<svg width="24" height="20" viewBox="0 0 24 20" fill="none" xmlns="http://www.w3.org/2000/svg">
<path d="M2.27763 7.75C1.89763 6.3 1.90763 4.77 2.29763 3.26C3.22763 3.41 4.15763 3.53 5.09763 3.64C5.23763 2.95 5.47763 2.3 5.79763 1.7C4.17763 1.53 2.56763 1.3 0.967631 1C-0.292369 3.91 -0.352369 7.12 0.967631 10C2.77763 9.66 4.58763 9.41 6.40763 9.24C5.96763 8.67 5.61763 8.03 5.37763 7.34C4.34763 7.46 3.30763 7.58 2.27763 7.75ZM22.9676 1C21.3576 1.3 19.7476 1.52 18.1276 1.69C18.4476 2.29 18.6876 2.94 18.8276 3.63C19.7776 3.52 20.7276 3.4 21.6776 3.25C22.0876 4.72 22.0876 6.27 21.6776 7.74C20.6476 7.57 19.5976 7.44 18.5576 7.33C18.3176 8.02 17.9676 8.66 17.5276 9.23C19.3476 9.4 21.1576 9.66 22.9676 10C24.2876 7.21 24.3176 3.85 22.9676 1ZM11.9676 0C9.20763 0 6.96763 2.24 6.96763 5C6.96763 7.76 9.20763 10 11.9676 10C12.6776 10 13.3576 9.85 13.9676 9.58V16.13L11.9676 14.79L9.96763 16.13V11H7.96763V19.87L11.9676 17.19L15.9676 19.87V7.97C16.5876 7.14 16.9676 6.12 16.9676 5C16.9676 2.24 14.7176 0 11.9676 0ZM11.9676 8C10.3176 8 8.96763 6.65 8.96763 5C8.96763 3.35 10.3176 2 11.9676 2C13.6176 2 14.9676 3.35 14.9676 5C14.9676 6.65 13.6176 8 11.9676 8Z" fill="white"/>
</svg>
