<svg width="24" height="17" viewBox="0 0 24 17" fill="none" xmlns="http://www.w3.org/2000/svg">
<path d="M21 0H2.99C1.34 0 0 1.35 0 3V7H1.99V3C1.99 2.45 2.44 2 2.99 2H21C21.55 2 22 2.45 22 3V7H24V3C24 1.35 22.65 0 21 0Z" fill="white"/>
<path d="M19 7C19 5.35 17.65 4 16 4H8C6.35 4 5 5.35 5 7V8H0V17H0.99C2.85 17 4.42 15.72 4.86 13.99H19.11C19.55 15.72 21.12 17 22.99 17H24V8H19V7ZM7 7C7 6.45 7.45 6 8 6H16C16.55 6 17 6.45 17 7V8H7V7ZM22 14.73C21.4 14.38 21 13.73 21 12.99V12H3V13C3 13.74 2.59 14.39 1.99 14.73V10H22V14.73Z" fill="white"/>
</svg>
