<svg width="25" height="32" viewBox="0 0 25 32" fill="none" xmlns="http://www.w3.org/2000/svg">
<path d="M12.2624 0.544434C9.94256 0.544434 7.67485 1.23234 5.746 2.52115C3.81715 3.80997 2.31379 5.64182 1.42604 7.78504C0.538285 9.92826 0.306009 12.2866 0.758581 14.5618C1.21115 16.8371 2.32825 18.927 3.9686 20.5674C5.60895 22.2077 7.69889 23.3248 9.97412 23.7774C12.2494 24.23 14.6077 23.9977 16.7509 23.1099C18.8941 22.2222 20.726 20.7188 22.0148 18.79C23.3036 16.8611 23.9915 14.5934 23.9915 12.2736C23.9915 9.16283 22.7558 6.17947 20.5561 3.97983C18.3565 1.78018 15.3731 0.544434 12.2624 0.544434ZM12.2624 20.8039C10.5752 20.8039 8.92599 20.3036 7.52319 19.3663C6.12039 18.429 5.02704 17.0967 4.3814 15.538C3.73576 13.9793 3.56683 12.2641 3.89598 10.6094C4.22512 8.9547 5.03755 7.43475 6.23054 6.24176C7.42352 5.04878 8.94347 4.23635 10.5982 3.9072C12.2529 3.57806 13.9681 3.74699 15.5268 4.39263C17.0855 5.03827 18.4177 6.13161 19.3551 7.53442C20.2924 8.93722 20.7927 10.5865 20.7927 12.2736C20.79 14.5351 19.8904 16.7033 18.2912 18.3025C16.6921 19.9016 14.5239 20.8012 12.2624 20.8039Z" fill="#F3E9DF"/>
<path d="M17.1843 10.141H14.1987C14.0861 10.141 13.9765 10.1053 13.8854 10.0392C13.7943 9.97299 13.7265 9.87967 13.6917 9.7726L12.7688 6.93308C12.7338 6.82641 12.6659 6.73354 12.575 6.6677C12.4841 6.60185 12.3746 6.56641 12.2624 6.56641C12.1501 6.56641 12.0407 6.60185 11.9497 6.6677C11.8588 6.73354 11.7909 6.82641 11.7559 6.93308L10.833 9.7726C10.7982 9.87967 10.7304 9.97299 10.6393 10.0392C10.5483 10.1053 10.4386 10.141 10.326 10.141H7.34037C7.22778 10.141 7.11807 10.1766 7.02696 10.2428C6.93586 10.3089 6.86805 10.4023 6.83324 10.5093C6.79843 10.6164 6.79842 10.7318 6.83321 10.8389C6.868 10.9459 6.9358 11.0393 7.02689 11.1055L9.44149 12.86C9.53255 12.9262 9.60032 13.0196 9.63508 13.1266C9.66985 13.2337 9.66983 13.349 9.63503 13.4561L8.71269 16.2956C8.67802 16.4026 8.67809 16.5179 8.71289 16.6248C8.74768 16.7318 8.81542 16.825 8.9064 16.8912C8.99739 16.9573 9.10696 16.993 9.21945 16.9931C9.33194 16.9931 9.44157 16.9577 9.53266 16.8917L11.9483 15.1366C12.0394 15.0703 12.1492 15.0347 12.2618 15.0347C12.3745 15.0347 12.4842 15.0703 12.5753 15.1366L14.991 16.8917C15.0821 16.9577 15.1917 16.9931 15.3042 16.9931C15.4167 16.993 15.5263 16.9573 15.6172 16.8912C15.7082 16.825 15.776 16.7318 15.8108 16.6248C15.8456 16.5179 15.8456 16.4026 15.811 16.2956L14.8886 13.4561C14.8538 13.349 14.8538 13.2337 14.8886 13.1266C14.9233 13.0196 14.9911 12.9262 15.0822 12.86L17.4978 11.1049C17.5887 11.0387 17.6563 10.9454 17.6909 10.8384C17.7256 10.7314 17.7255 10.6162 17.6907 10.5093C17.6559 10.4023 17.5882 10.3091 17.4973 10.243C17.4063 10.1768 17.2968 10.1411 17.1843 10.141Z" fill="#F87E1B"/>
<path d="M12.2627 3.20996C10.4701 3.20996 8.71776 3.74152 7.22729 4.73743C5.73681 5.73333 4.57513 7.14885 3.88914 8.80497C3.20315 10.4611 3.02366 12.2835 3.37337 14.0416C3.72309 15.7997 4.5863 17.4147 5.85384 18.6822C7.12139 19.9498 8.73634 20.813 10.4945 21.1627C12.2526 21.5124 14.075 21.3329 15.7311 20.6469C17.3872 19.9609 18.8027 18.7993 19.7986 17.3088C20.7945 15.8183 21.3261 14.066 21.3261 12.2734C21.3234 9.87045 20.3677 7.56669 18.6685 5.86754C16.9694 4.1684 14.6656 3.21264 12.2627 3.20996ZM12.2627 20.2706C10.681 20.2706 9.13481 19.8015 7.81968 18.9228C6.50456 18.0441 5.47954 16.7951 4.87426 15.3338C4.26897 13.8725 4.1106 12.2645 4.41917 10.7132C4.72775 9.16194 5.4894 7.73698 6.60782 6.61856C7.72624 5.50014 9.1512 4.73848 10.7025 4.42991C12.2538 4.12134 13.8618 4.27971 15.323 4.885C16.7843 5.49028 18.0333 6.5153 18.9121 7.83042C19.7908 9.14555 20.2598 10.6917 20.2598 12.2734C20.2574 14.3936 19.4141 16.4264 17.9149 17.9256C16.4156 19.4248 14.3829 20.2682 12.2627 20.2706Z" fill="#FDF8F3"/>
<path d="M18.1268 32C18.1502 32 18.1735 31.9984 18.1966 31.9952L18.1268 32Z" stroke="#F3E9DF" stroke-width="8"/>
<path d="M15.3041 17.5311C15.0784 17.53 14.8589 17.4574 14.6771 17.3237L12.262 15.5686L9.84628 17.3237C9.6641 17.4559 9.44476 17.527 9.21967 17.527C8.99458 17.5269 8.77529 17.4556 8.5932 17.3233C8.41111 17.1909 8.27556 17.0044 8.20598 16.7903C8.13639 16.5763 8.13633 16.3457 8.2058 16.1316L9.12814 13.292L6.71246 11.5369C6.53028 11.4046 6.39469 11.2179 6.32511 11.0037C6.25554 10.7896 6.25556 10.5589 6.32517 10.3447C6.39479 10.1305 6.53041 9.9439 6.71262 9.81157C6.89482 9.67923 7.11425 9.60798 7.33944 9.60802H10.325L11.249 6.7685C11.3191 6.55516 11.4548 6.36942 11.6367 6.23773C11.8186 6.10605 12.0374 6.03516 12.262 6.03516C12.4865 6.03516 12.7053 6.10605 12.8872 6.23773C13.0691 6.36942 13.2048 6.55516 13.2749 6.7685L14.1989 9.60802H17.1845C17.4097 9.60798 17.6291 9.67923 17.8113 9.81157C17.9935 9.9439 18.1291 10.1305 18.1987 10.3447C18.2684 10.5589 18.2684 10.7896 18.1988 11.0037C18.1292 11.2179 17.9936 11.4046 17.8115 11.5369L15.3958 13.292L16.3181 16.1316C16.3903 16.3454 16.3918 16.5769 16.3221 16.7916C16.2525 17.0063 16.1156 17.1929 15.9316 17.3237C15.7497 17.4575 15.5299 17.5301 15.3041 17.5311ZM12.262 14.5017C12.4871 14.502 12.7064 14.5734 12.8884 14.7059L15.3041 16.461L14.3817 13.6215C14.3116 13.4074 14.3113 13.1766 14.3809 12.9624C14.4505 12.7481 14.5863 12.5615 14.7688 12.4294L17.1845 10.6743H14.1989C13.9739 10.6741 13.7547 10.6027 13.5728 10.4703C13.3908 10.338 13.2554 10.1515 13.1859 9.9375L12.262 7.09798V7.09158L11.3396 9.9375C11.27 10.1517 11.1343 10.3384 10.9521 10.4708C10.7698 10.6032 10.5503 10.6744 10.325 10.6743H7.33944L9.75618 12.4294C9.93819 12.5618 10.0736 12.7483 10.1432 12.9624C10.2127 13.1764 10.2127 13.4069 10.1432 13.621L9.2209 16.461L11.636 14.7059C11.8179 14.5736 12.037 14.5021 12.262 14.5017Z" fill="#F87E1B"/>
</svg>
