<svg width="331" height="539" viewBox="0 0 331 539" fill="none" xmlns="http://www.w3.org/2000/svg">
<path opacity="0.3" d="M32.0002 538C20.3335 525.333 1.60016 491.2 20.0002 456C43.0002 412 108 404 130 375C152 346 173 326 177 264C181 202 322.574 188.132 316 132C311.667 95 281.5 65 279 63" stroke="white" stroke-width="2" stroke-linecap="round" stroke-dasharray="1 10"/>
<path d="M277.215 61.5714L256.005 64.5112L260.652 47.7112L276.37 40.1748L277.215 61.5714Z" fill="#E9EDF5"/>
<path d="M260.652 47.7114L260.803 47.8374L277.215 61.5716L276.37 40.1751L260.652 47.7114Z" fill="#CDD2E1"/>
<path d="M248.985 72.8998L228.202 20.5566L283.389 31.7866L248.985 72.8998Z" fill="white"/>
<path d="M228.202 20.5566L266.187 52.3432L283.389 31.7866L228.202 20.5566Z" fill="#E9EDF5"/>
<path d="M277.216 61.5717L260.942 58.6117L228.203 20.5567L271.433 46.0748L277.216 61.5717Z" fill="#DCE1EB"/>
<path d="M228.202 20.5566L277.215 61.5716L271.433 46.0747L228.202 20.5566Z" fill="#BEC3D2"/>
<path d="M330.933 129.403H301.067V129.403H330.933V129.403Z" fill="#C42126"/>
<path d="M329.377 121.214H302.623V121.215H329.377V121.214Z" fill="#C42126"/>
<path d="M330.439 123.943H301.559V123.944H330.439V123.943Z" fill="#C42126"/>
<path d="M307.446 140.32H324.553L324.553 140.319H307.445L307.446 140.32Z" fill="#C42126"/>
<path d="M315.999 113C315.704 113 315.412 113.011 315.122 113.027H316.876C316.586 113.011 316.294 113 315.999 113Z" fill="#C42126"/>
<path d="M330.937 126.673H301.062V126.674H330.937V126.673Z" fill="#C42126"/>
<path d="M320.433 118.486H327.596C326.745 117.45 325.756 116.533 324.661 115.757H319.282C319.727 116.54 320.11 117.464 320.433 118.486Z" fill="#E7E7E7"/>
<path d="M319.282 115.757H324.661C322.437 114.181 319.768 113.194 316.877 113.027H316.415C317.776 113.199 318.401 114.206 319.282 115.757Z" fill="#DC3027"/>
<path d="M330.441 123.944C330.174 122.993 329.817 122.08 329.377 121.215H321.137C321.304 122.091 321.435 123.007 321.533 123.944H330.441Z" fill="#E7E7E7"/>
<path d="M320.673 121.214H329.377C328.881 120.239 328.285 119.324 327.596 118.485H319.993C320.261 119.334 320.489 120.249 320.673 121.214Z" fill="#DC3027"/>
<path d="M321.849 129.402H330.933C330.976 128.941 331 128.473 331 128C331 127.553 330.977 127.111 330.938 126.673H321.851C321.88 127.581 321.88 128.495 321.849 129.402Z" fill="#E7E7E7"/>
<path d="M330.939 126.673C330.856 125.736 330.688 124.824 330.441 123.944H321.15C321.244 124.838 321.305 125.752 321.335 126.673H330.939Z" fill="#DC3027"/>
<path d="M320.979 134.861H329.337C329.783 133.997 330.146 133.084 330.419 132.132H321.384C321.284 133.071 321.149 133.986 320.979 134.861Z" fill="#E7E7E7"/>
<path d="M330.42 132.132C330.671 131.252 330.846 130.34 330.933 129.403H321.566C321.534 130.324 321.47 131.238 321.375 132.132H330.42Z" fill="#DC3027"/>
<path d="M324.554 140.319C325.666 139.546 326.668 138.628 327.533 137.59H320.495C320.166 138.616 319.775 139.539 319.322 140.319H324.554Z" fill="#E7E7E7"/>
<path d="M320.229 137.59H327.532C328.229 136.753 328.834 135.837 329.337 134.861H320.918C320.731 135.827 320.501 136.743 320.229 137.59Z" fill="#DC3027"/>
<path d="M315.456 142.989C315.426 142.988 315.396 142.987 315.365 142.986C315.396 142.987 315.426 142.988 315.456 142.989Z" fill="#DC3027"/>
<path d="M316 143C319.18 143 322.127 142.007 324.553 140.32H319.125C318.161 141.98 317.525 143 316 143Z" fill="#DC3027"/>
<path d="M316 143C315.817 143 315.636 142.996 315.456 142.989C315.638 142.995 315.82 143 316 143Z" fill="#C42126"/>
<path d="M319.779 115.757H307.34C306.244 116.533 305.255 117.45 304.404 118.486H320.93C320.607 117.464 320.225 116.54 319.779 115.757Z" fill="#F3F4F5"/>
<path d="M307.339 115.757H319.779C318.897 114.206 317.776 113.199 316.415 113.027H315.122C312.232 113.194 309.562 114.181 307.339 115.757Z" fill="#E73625"/>
<path d="M301.56 123.944H322.006C321.908 123.006 321.777 122.091 321.61 121.215H302.623C302.184 122.08 301.826 122.993 301.56 123.944Z" fill="#F3F4F5"/>
<path d="M304.404 118.485C303.716 119.324 303.12 120.239 302.624 121.214H321.61C321.426 120.25 321.198 119.334 320.93 118.485C320.93 118.485 304.404 118.485 304.404 118.485Z" fill="#E73625"/>
<path d="M301 128C301 128.473 301.025 128.941 301.068 129.403H322.189C322.22 128.495 322.221 127.581 322.191 126.674H301.062C301.023 127.111 301 127.553 301 128Z" fill="#F3F4F5"/>
<path d="M301.062 126.673H322.191C322.16 125.752 322.099 124.838 322.006 123.944H301.559C301.312 124.824 301.143 125.736 301.062 126.673Z" fill="#E73625"/>
<path d="M321.998 132.131H301.581C301.853 133.083 302.217 133.996 302.662 134.86H321.594C321.764 133.985 321.899 133.07 321.998 132.131Z" fill="#F3F4F5"/>
<path d="M301.581 132.132H321.998C322.093 131.238 322.157 130.324 322.189 129.403H301.067C301.154 130.34 301.329 131.252 301.581 132.132Z" fill="#E73625"/>
<path d="M307.446 140.319H319.733C320.187 139.539 320.577 138.616 320.906 137.59H304.468C305.332 138.628 306.335 139.546 307.446 140.319Z" fill="#F3F4F5"/>
<path d="M302.663 134.861C303.166 135.837 303.771 136.753 304.468 137.59H320.906C321.178 136.743 321.408 135.827 321.595 134.861H302.663Z" fill="#E73625"/>
<path d="M315.366 142.986C315.396 142.987 315.426 142.988 315.457 142.989C315.637 142.996 315.818 143 316 143C317.526 143 318.77 141.98 319.733 140.32H307.447C309.711 141.894 312.429 142.864 315.366 142.986Z" fill="#E73625"/>
<path d="M315.689 113.008C308.003 113.164 301.738 119.099 301.063 126.649H315.69V113.008H315.689Z" fill="#283991"/>
<path d="M304.001 121.499L304.23 122.202H304.97L304.371 122.637L304.6 123.341L304.001 122.906L303.403 123.341L303.631 122.637L303.032 122.202H303.773L304.001 121.499Z" fill="#EFEFEF"/>
<path d="M304.001 123.984L304.23 124.688H304.97L304.371 125.124L304.6 125.828L304.001 125.392L303.403 125.828L303.631 125.124L303.032 124.688H303.773L304.001 123.984Z" fill="#EFEFEF"/>
<path d="M306.488 117.769L306.716 118.473H307.456L306.858 118.908L307.086 119.612L306.488 119.177L305.889 119.612L306.118 118.908L305.519 118.473H306.259L306.488 117.769Z" fill="#EFEFEF"/>
<path d="M306.488 120.255L306.716 120.959H307.456L306.858 121.394L307.086 122.098L306.488 121.663L305.889 122.098L306.118 121.394L305.519 120.959H306.259L306.488 120.255Z" fill="#EFEFEF"/>
<path d="M306.488 122.742L306.716 123.446H307.456L306.858 123.88L307.086 124.585L306.488 124.149L305.889 124.585L306.118 123.88L305.519 123.446H306.259L306.488 122.742Z" fill="#EFEFEF"/>
<path d="M302.114 124.584L301.885 123.88L302.484 123.445H301.744L301.727 123.394C301.646 123.645 301.573 123.9 301.505 124.157L301.515 124.149L302.114 124.584Z" fill="#EFEFEF"/>
<path d="M303.403 120.855L304.001 120.42L304.6 120.855L304.371 120.151L304.97 119.716H304.23L304.001 119.012L303.772 119.716H303.5C303.449 119.793 303.4 119.87 303.351 119.948L303.631 120.151L303.403 120.855Z" fill="#EFEFEF"/>
<path d="M306.488 116.69L307.086 117.125L306.858 116.422L307.456 115.986H307.029C306.666 116.258 306.315 116.545 305.979 116.848L305.889 117.125L306.488 116.69Z" fill="#EFEFEF"/>
<path d="M308.375 115.882L308.974 115.447L309.572 115.882L309.344 115.178L309.942 114.743H309.202L309.171 114.648C308.92 114.777 308.672 114.91 308.429 115.052L308.603 115.178L308.375 115.882Z" fill="#EFEFEF"/>
<path d="M308.974 116.526L309.203 117.229H309.943L309.344 117.665L309.573 118.369L308.974 117.933L308.375 118.369L308.604 117.665L308.005 117.229H308.745L308.974 116.526Z" fill="#EFEFEF"/>
<path d="M308.974 119.012L309.203 119.716H309.943L309.344 120.151L309.573 120.855L308.974 120.42L308.375 120.855L308.604 120.151L308.005 119.716H308.745L308.974 119.012Z" fill="#EFEFEF"/>
<path d="M308.974 121.499L309.203 122.202H309.943L309.344 122.637L309.573 123.341L308.974 122.906L308.375 123.341L308.604 122.637L308.005 122.202H308.745L308.974 121.499Z" fill="#EFEFEF"/>
<path d="M308.974 123.984L309.203 124.688H309.943L309.344 125.124L309.573 125.828L308.974 125.392L308.375 125.828L308.604 125.124L308.005 124.688H308.745L308.974 123.984Z" fill="#EFEFEF"/>
<path d="M311.46 115.283L311.689 115.987H312.429L311.831 116.422L312.059 117.126L311.46 116.691L310.861 117.126L311.09 116.422L310.491 115.987H311.232L311.46 115.283Z" fill="#EFEFEF"/>
<path d="M311.46 117.769L311.689 118.473H312.429L311.831 118.908L312.059 119.612L311.46 119.177L310.861 119.612L311.09 118.908L310.491 118.473H311.232L311.46 117.769Z" fill="#EFEFEF"/>
<path d="M311.46 120.255L311.689 120.959H312.429L311.831 121.394L312.059 122.098L311.46 121.663L310.861 122.098L311.09 121.394L310.491 120.959H311.232L311.46 120.255Z" fill="#EFEFEF"/>
<path d="M311.46 122.742L311.689 123.446H312.429L311.831 123.88L312.059 124.585L311.46 124.149L310.861 124.585L311.09 123.88L310.491 123.446H311.232L311.46 122.742Z" fill="#EFEFEF"/>
<path d="M313.947 114.04L314.175 114.743H314.915L314.317 115.178L314.545 115.882L313.947 115.447L313.348 115.882L313.576 115.178L312.978 114.743H313.718L313.947 114.04Z" fill="#EFEFEF"/>
<path d="M313.947 116.526L314.175 117.229H314.915L314.317 117.665L314.545 118.369L313.947 117.933L313.348 118.369L313.576 117.665L312.978 117.229H313.718L313.947 116.526Z" fill="#EFEFEF"/>
<path d="M313.947 119.012L314.175 119.716H314.915L314.317 120.151L314.545 120.855L313.947 120.42L313.348 120.855L313.576 120.151L312.978 119.716H313.718L313.947 119.012Z" fill="#EFEFEF"/>
<path d="M313.947 121.499L314.175 122.202H314.915L314.317 122.637L314.545 123.341L313.947 122.906L313.348 123.341L313.576 122.637L312.978 122.202H313.718L313.947 121.499Z" fill="#EFEFEF"/>
<path d="M313.947 123.984L314.175 124.688H314.915L314.317 125.124L314.545 125.828L313.947 125.392L313.348 125.828L313.576 125.124L312.978 124.688H313.718L313.947 123.984Z" fill="#EFEFEF"/>
<g clip-path="url(#clip0)">
<path d="M179.001 272.001C187.285 272.001 194.001 265.285 194.001 257.001C194.001 248.717 187.285 242.002 179.001 242.002C170.717 242.002 164.002 248.717 164.002 257.001C164.002 265.285 170.717 272.001 179.001 272.001Z" fill="white"/>
<path d="M164 257C164 262.638 167.112 267.547 171.711 270.11V243.89C167.112 246.453 164 251.361 164 257Z" fill="#D32027"/>
<path d="M179 272C178.828 272 178.661 271.994 178.492 271.991C178.66 271.997 178.83 272 179 272Z" fill="white"/>
<path d="M179 242C178.995 242 178.991 242 178.986 242C178.991 242 178.995 242 179 242C187.284 242 187.284 272 179 272C181.641 272 184.121 271.315 186.277 270.116V243.883C184.121 242.685 181.641 242 179 242Z" fill="#E7E7E7"/>
<path d="M186.276 243.883V270.116C190.882 267.556 194 262.643 194 257C194 251.357 190.882 246.444 186.276 243.883Z" fill="#B52025"/>
<path d="M179 242C178.995 242 178.991 242 178.986 242C176.346 242.002 173.866 242.69 171.711 243.89V270.109C173.73 271.235 176.036 271.909 178.492 271.991C178.661 271.994 178.827 271.999 179 271.999C187.284 272 187.284 242 179 242Z" fill="#F3F1F2"/>
<path d="M184.821 256.729C184.614 256.532 184.191 256.554 184.116 256.226C184.016 255.422 184.386 254.953 184.619 254.415C183.438 254.692 182.506 255.147 182.507 253.812C181.828 254.642 181.099 255.471 180.797 255.321C180.37 255.069 181.208 252.934 181.3 251.801C180.886 251.99 180.093 252.404 180.093 252.404C180.093 252.404 179.372 250.994 178.991 250.299V250.292C178.989 250.293 178.989 250.294 178.989 250.295C178.988 250.294 178.988 250.293 178.987 250.292V250.299C178.605 250.994 177.885 252.404 177.885 252.404C177.885 252.404 177.091 251.99 176.678 251.801C176.769 252.934 177.607 255.069 177.179 255.321C176.878 255.472 176.149 254.642 175.471 253.812C175.471 255.147 174.539 254.692 173.358 254.415C173.591 254.953 173.961 255.421 173.86 256.226C173.786 256.554 173.363 256.532 173.156 256.729C174.527 258.099 176.904 259.117 175.772 260.249L178.823 259.964C178.923 260.996 178.6 262.261 178.881 262.965C178.946 262.965 178.925 262.965 178.987 262.965C178.988 262.965 178.989 262.965 178.99 262.965C179.052 262.965 179.029 262.965 179.094 262.965C179.38 262.236 179.054 260.996 179.154 259.964L182.205 260.249C181.074 259.117 183.45 258.099 184.821 256.729Z" fill="#D32027"/>
</g>
<path d="M128 399C139.046 399 148 390.046 148 379C148 367.954 139.046 359 128 359C116.954 359 108 367.954 108 379C108 390.046 116.954 399 128 399Z" fill="#F0F0F0"/>
<path d="M108 379C108 367.954 116.954 359 128 359C139.046 359 148 367.954 148 379" fill="#D80027"/>
<path d="M120.174 369.435C120.174 366.521 122.222 364.086 124.957 363.489C124.536 363.397 124.1 363.348 123.652 363.348C120.291 363.348 117.565 366.073 117.565 369.435C117.565 372.796 120.291 375.522 123.652 375.522C124.1 375.522 124.536 375.472 124.957 375.38C122.222 374.783 120.174 372.349 120.174 369.435Z" fill="#F0F0F0"/>
<path d="M128 363.782L128.432 365.111H129.829L128.699 365.932L129.131 367.26L128 366.439L126.87 367.26L127.302 365.932L126.172 365.111H127.569L128 363.782Z" fill="#F0F0F0"/>
<path d="M124.612 366.391L125.044 367.72H126.441L125.31 368.541L125.742 369.869L124.612 369.048L123.482 369.869L123.913 368.541L122.783 367.72H124.18L124.612 366.391Z" fill="#F0F0F0"/>
<path d="M131.389 366.391L131.821 367.72H133.218L132.088 368.541L132.519 369.869L131.389 369.048L130.259 369.869L130.691 368.541L129.561 367.72H130.957L131.389 366.391Z" fill="#F0F0F0"/>
<path d="M130.084 370.304L130.516 371.633H131.913L130.783 372.454L131.215 373.782L130.084 372.961L128.954 373.782L129.386 372.454L128.256 371.633H129.653L130.084 370.304Z" fill="#F0F0F0"/>
<path d="M125.916 370.304L126.347 371.633H127.744L126.614 372.454L127.046 373.782L125.916 372.961L124.785 373.782L125.217 372.454L124.087 371.633H125.484L125.916 370.304Z" fill="#F0F0F0"/>
<g clip-path="url(#clip1)">
<path d="M15 464V494C23.2846 494 30.0002 487.284 30.0002 479C30.0002 470.715 23.2845 464 15 464Z" fill="#252F6B"/>
<path d="M14.9998 464C6.71572 464 0 470.715 0 479C0 487.284 6.71572 494 14.9998 494C23.2843 494 23.2843 464 14.9998 464Z" fill="#273375"/>
<path d="M10.2875 486.994L11.299 485.733L9.73632 486.016L9.19418 484.502L8.60492 486.016L7.00953 485.733L8.02345 486.966L6.9707 488.198L8.57528 487.946L9.11647 489.429L9.70598 487.947L11.3425 488.239L10.2875 486.994Z" fill="#F3F4F5"/>
<path d="M22.2434 488.108L22.817 487.393L21.9312 487.553L21.624 486.696L21.2901 487.553L20.386 487.393L20.9606 488.091L20.3643 488.79L21.2733 488.647L21.58 489.487L21.9139 488.647L22.8414 488.813L22.2434 488.108Z" fill="#F3F4F5"/>
<path d="M22.2434 472.318L22.817 471.603L21.9312 471.764L21.624 470.906L21.2901 471.764L20.386 471.603L20.9606 472.302L20.3643 473L21.2733 472.857L21.58 473.697L21.9139 472.858L22.8414 473.023L22.2434 472.318Z" fill="#F3F4F5"/>
<path d="M25.9548 476.403L26.5279 475.688L25.6427 475.848L25.3354 474.991L25.0015 475.848L24.097 475.688L24.6716 476.387L24.0752 477.085L24.9842 476.942L25.2909 477.782L25.6249 476.942L26.5523 477.108L25.9548 476.403Z" fill="#F3F4F5"/>
<path d="M19.0341 478.219L19.6078 477.504L18.722 477.665L18.4148 476.807L18.0809 477.665L17.1771 477.504L17.7514 478.203L17.1553 478.901L18.0643 478.758L18.371 479.598L18.7049 478.759L19.6325 478.924L19.0341 478.219Z" fill="#F3F4F5"/>
<path d="M3.15015 469.809C2.91474 470.112 2.68996 470.423 2.47754 470.744H4.08547L3.15015 469.809Z" fill="#29337A"/>
<path d="M10.8965 479H12.3415L10.8965 477.555V479Z" fill="#29337A"/>
<path d="M6.10673 466.922C5.76257 467.176 5.43127 467.445 5.11035 467.727L6.10673 468.723V466.922Z" fill="#29337A"/>
<path d="M4.66113 479H6.10655V477.555L4.66113 479Z" fill="#29337A"/>
<path d="M15 464C13.5766 464 12.2015 464.202 10.8965 464.573V468.723L15.0005 464.619V464H15Z" fill="#29337A"/>
<path d="M15.0005 477.617V475.535H12.918L15.0005 477.617Z" fill="#29337A"/>
<path d="M0.618903 479L4.08506 475.535H0.407113C0.143515 476.648 0 477.807 0 479H0.618903Z" fill="#29337A"/>
<path d="M12.916 470.744H15V468.661L12.916 470.744Z" fill="#29337A"/>
<path d="M15.0002 478.054V477.617L12.9177 475.534H15.0002V474.789H11.7344L15.0002 478.054Z" fill="white"/>
<path d="M4.08525 470.744H2.47732C2.31677 470.987 2.1642 471.236 2.01758 471.489H5.17638L3.30149 469.615C3.25013 469.679 3.19965 469.743 3.14968 469.808L4.08525 470.744Z" fill="white"/>
<path d="M6.1064 477.555V479H6.85178V476.463L4.31543 479H4.66098L6.1064 477.555Z" fill="white"/>
<path d="M10.8965 464.573C10.6452 464.644 10.397 464.722 10.1514 464.805V469.814L15.0005 464.965V464.619L10.8965 468.722V464.573Z" fill="white"/>
<path d="M6.08033 475.534L6.10662 475.508L6.82591 474.789H0.603816C0.532058 475.035 0.466444 475.283 0.407227 475.534H4.08518L0.619017 479H2.61468L6.08033 475.534Z" fill="white"/>
<path d="M0.619141 479L4.0853 475.534L0.619141 479Z" fill="white"/>
<path d="M15 471.49V470.744H12.9161L15 468.661V466.666L10.1758 471.49H15Z" fill="white"/>
<path d="M15 468.661L12.916 470.744L15 468.661Z" fill="white"/>
<path d="M6.10648 468.723L5.1101 467.727C4.75676 468.037 4.41754 468.364 4.09473 468.707L6.10648 470.718L6.12782 470.74L6.85186 471.464V466.408C6.59846 466.573 6.34905 466.743 6.10673 466.922V468.723H6.10648Z" fill="white"/>
<path d="M10.8958 477.555L12.3407 479H14.2445L10.1504 474.906V479H10.8958V477.555Z" fill="white"/>
<path d="M6.10645 470.718L6.12779 470.74L6.10645 470.718Z" fill="#D32030"/>
<path d="M12.4793 475.534L11.7342 474.789H15V471.49H10.1758L10.1509 471.515V471.49H10.1758L15 466.666V464.965L10.1507 469.814V464.806C8.97853 465.206 7.87246 465.747 6.85145 466.409V471.464L6.87729 471.49H6.85145V471.464L6.12741 470.74L6.13165 470.745H6.10632V470.719L4.09457 468.707C3.81843 468.999 3.55388 469.302 3.30162 469.615L5.17645 471.49H2.01771C1.42085 472.519 0.943621 473.624 0.603516 474.789H6.82561L6.85145 474.763V474.789H6.82561L6.10632 475.508V475.535H6.08004L2.61432 479H4.31535L6.8517 476.463V479H10.1509V474.906L14.2448 479H14.8078C14.8719 478.933 14.9373 478.866 15.0003 478.797V478.054L12.4793 475.534Z" fill="#D32030"/>
<path d="M10.1504 469.814L14.9998 464.965L10.1504 469.814Z" fill="#D32030"/>
<path d="M6.10636 475.534V475.508L6.08008 475.534H6.10636Z" fill="#D32030"/>
<path d="M6.85122 474.762L6.8252 474.788H6.85122V474.762Z" fill="#D32030"/>
<path d="M10.1504 471.515L10.1755 471.49H10.1504V471.515Z" fill="#D32030"/>
<path d="M6.10645 470.744H6.13203L6.12779 470.74L6.10645 470.718V470.744Z" fill="#D32030"/>
<path d="M6.87734 471.489L6.85156 471.464V471.489H6.87734Z" fill="#D32030"/>
</g>
<defs>
<clipPath id="clip0">
<rect width="30" height="30" fill="white" transform="translate(164 242)"/>
</clipPath>
<clipPath id="clip1">
<rect width="30" height="30" fill="white" transform="translate(0 464)"/>
</clipPath>
</defs>
</svg>
