<svg width="24" height="20" viewBox="0 0 24 20" fill="none" xmlns="http://www.w3.org/2000/svg">
<path d="M15 0C13.81 0 12.73 0.53 12 1.36C11.27 0.53 10.19 0 9 0H0V18H9C9.86 18 10.68 18.37 11.25 19.02C11.61 19.44 12.25 19.48 12.66 19.11C12.69 19.08 12.72 19.05 12.75 19.02C13.32 18.37 14.14 18 15 18H24V0H15ZM22 16H15C13.91 16 12.86 16.36 12 17C11.14 16.36 10.09 16 9 16H2V2H9C10.1 2 11 2.9 11 4V12C11 12.55 11.45 13 12 13C12.55 13 13 12.55 13 12V4C13 2.9 13.9 2 15 2H22V16ZM4 8H9V6H4V8ZM4 12H9V10H4V12ZM15 8H20V6H15V8ZM15 12H20V10H15V12Z" fill="#3661F7"/>
</svg>
