<svg width="100" height="100" viewBox="0 0 100 100" fill="none" xmlns="http://www.w3.org/2000/svg">
<rect width="100" height="100" fill="white"/>
<path d="M60.7346 70.1542C51.8582 71.4335 42.9251 69.0916 37.149 63.3288C26.9871 53.1669 27.4626 33.1776 39.6323 20.9904C51.8195 8.80307 70.9987 7.51742 81.9707 18.5071C89.8058 26.3421 91.3926 38.3507 87.2346 49.0247" stroke="#3661F7" stroke-width="3" stroke-miterlimit="10" stroke-linecap="round" stroke-linejoin="round"/>
<path d="M48.3501 69.5459C40.0902 69.5459 37.5893 70.3384 34.6482 73.2796C31.39 76.5378 24.8385 84.6391 22.1967 88.2319C20.4884 90.5391 15.8389 89.3591 13.479 86.9815C11.119 84.6039 9.93901 79.972 12.2461 78.2637C15.8213 75.622 23.9403 69.0704 27.1985 65.8122C30.1396 62.8711 30.9321 60.3702 30.9321 52.1104" stroke="#3661F7" stroke-width="3" stroke-miterlimit="10" stroke-linecap="round" stroke-linejoin="round"/>
<path d="M86.1627 60.7399C86.1627 66.4813 81.4956 71.1484 75.7542 71.1484C70.0128 71.1484 65.3457 66.4813 65.3457 60.7399C65.3457 54.9985 70.0128 50.3314 75.7542 50.3314C81.4956 50.3314 86.1627 54.9809 86.1627 60.7399Z" stroke="#F87E1B" stroke-width="3" stroke-miterlimit="10" stroke-linecap="round" stroke-linejoin="round"/>
<mask id="mask0" mask-type="alpha" maskUnits="userSpaceOnUse" x="29" y="10" width="61" height="61">
<path d="M63.7344 51.2256C56.5698 57.9687 58.9011 66.5587 60.7344 70.2254C34.2344 70.2254 29.7344 56.7256 29.7344 42.7256C29.7344 28.7256 42.2344 11.2256 62.2344 11.2256C78.2344 11.2256 85.5677 21.2256 87.2344 26.2256C88.401 30.3923 90.0344 42.6255 87.2344 50.2254C83.2344 44.2256 72.2344 43.2256 63.7344 51.2256Z" fill="#C4C4C4"/>
<path d="M63.7344 51.2256C56.5698 57.9687 58.9011 66.5587 60.7344 70.2254C34.2344 70.2254 29.7344 56.7256 29.7344 42.7256C29.7344 28.7256 42.2344 11.2256 62.2344 11.2256C78.2344 11.2256 85.5677 21.2256 87.2344 26.2256C88.401 30.3923 90.0344 42.6255 87.2344 50.2254C83.2344 44.2256 72.2344 43.2256 63.7344 51.2256Z" stroke="black"/>
<path d="M63.7344 51.2256C56.5698 57.9687 58.9011 66.5587 60.7344 70.2254C34.2344 70.2254 29.7344 56.7256 29.7344 42.7256C29.7344 28.7256 42.2344 11.2256 62.2344 11.2256C78.2344 11.2256 85.5677 21.2256 87.2344 26.2256C88.401 30.3923 90.0344 42.6255 87.2344 50.2254C83.2344 44.2256 72.2344 43.2256 63.7344 51.2256Z" stroke="url(#paint0_linear)"/>
</mask>
<g mask="url(#mask0)">
<line x1="24.2344" y1="15.2256" x2="102.234" y2="15.2256" stroke="#3661F7" stroke-width="2" stroke-linecap="round" stroke-linejoin="round" stroke-dasharray="0.1 5"/>
<line x1="24.2344" y1="21.2256" x2="102.234" y2="21.2256" stroke="#3661F7" stroke-width="2" stroke-linecap="round" stroke-linejoin="round" stroke-dasharray="0.1 5"/>
<line x1="24.2344" y1="27.2256" x2="102.234" y2="27.2256" stroke="#3661F7" stroke-width="2" stroke-linecap="round" stroke-linejoin="round" stroke-dasharray="0.1 5"/>
<line x1="24.2344" y1="39.2256" x2="102.234" y2="39.2256" stroke="#3661F7" stroke-width="2" stroke-linecap="round" stroke-linejoin="round" stroke-dasharray="0.1 5"/>
<line x1="24.2344" y1="33.2256" x2="102.234" y2="33.2256" stroke="#3661F7" stroke-width="2" stroke-linecap="round" stroke-linejoin="round" stroke-dasharray="0.1 5"/>
<line x1="24.2344" y1="45.2256" x2="102.234" y2="45.2256" stroke="#3661F7" stroke-width="2" stroke-linecap="round" stroke-linejoin="round" stroke-dasharray="0.1 5"/>
<line x1="24.2344" y1="51.2256" x2="102.234" y2="51.2256" stroke="#3661F7" stroke-width="2" stroke-linecap="round" stroke-linejoin="round" stroke-dasharray="0.1 5"/>
<line x1="24.2344" y1="57.2256" x2="102.234" y2="57.2256" stroke="#3661F7" stroke-width="2" stroke-linecap="round" stroke-linejoin="round" stroke-dasharray="0.1 5"/>
<line x1="24.2344" y1="63.2256" x2="102.234" y2="63.2256" stroke="#3661F7" stroke-width="2" stroke-linecap="round" stroke-linejoin="round" stroke-dasharray="0.1 5"/>
<line x1="24.2344" y1="69.2256" x2="102.234" y2="69.2256" stroke="#3661F7" stroke-width="2" stroke-linecap="round" stroke-linejoin="round" stroke-dasharray="0.1 5"/>
</g>
<defs>
<linearGradient id="paint0_linear" x1="59.2574" y1="11.2256" x2="59.2574" y2="70.2254" gradientUnits="userSpaceOnUse">
<stop stop-color="white"/>
<stop offset="1" stop-color="white" stop-opacity="0"/>
</linearGradient>
</defs>
</svg>
