<svg width="100" height="100" viewBox="0 0 100 100" fill="none" xmlns="http://www.w3.org/2000/svg">
<rect width="100" height="100" fill="white"/>
<path d="M50.5 71.3976H52.3165L52.9946 70.0634C53.5274 69.0024 53.2206 67.7164 52.268 66.993L35.1695 54.1327C34.5236 53.6343 33.7486 53.6986 32.9413 53.7147H9.88489C9.17447 53.7147 8.52863 54.1166 8.20572 54.7435C7.78592 55.5634 8.02811 56.544 8.75468 57.0905L27.4355 70.7867C27.9845 71.2208 28.9856 71.3976 29.696 71.3815H45.8419" stroke="#F87E1B" stroke-width="3" stroke-miterlimit="10" stroke-linecap="round" stroke-linejoin="round"/>
<path d="M32.1826 61.0449L44.2436 69.7899C45.1478 70.4008 45.8582 72.5388 45.8582 74.6125V87.4728" stroke="#F87E1B" stroke-width="3" stroke-miterlimit="10" stroke-linecap="round" stroke-linejoin="round"/>
<path d="M17.0374 63.6812L14.0827 72.5387C13.3561 74.7089 18.0707 78.2294 24.626 80.3835C31.1651 82.5536 37.0745 82.5376 37.7849 80.3674L40.7396 71.5099" stroke="#F87E1B" stroke-width="3" stroke-miterlimit="10" stroke-linecap="round" stroke-linejoin="round"/>
<mask id="mask0" mask-type="alpha" maskUnits="userSpaceOnUse" x="8" y="53" width="45" height="29">
<path d="M17 63.5L8 56.5V53.5H34.5L53 67.5L51 71H40C39.6667 73.6667 38.7 79.3 37.5 80.5C36 82 30.5 82 24.5 80.5C19.7 79.3 15.5 75.3333 14 73.5L17 63.5Z" fill="#C4C4C4"/>
</mask>
<g mask="url(#mask0)">
<line x1="2" y1="54.5" x2="80" y2="54.5" stroke="#F87E1B" stroke-width="2" stroke-linecap="round" stroke-linejoin="round" stroke-dasharray="0.1 5"/>
<line x1="2" y1="60.5" x2="80" y2="60.5" stroke="#F87E1B" stroke-width="2" stroke-linecap="round" stroke-linejoin="round" stroke-dasharray="0.1 5"/>
<line x1="2" y1="66.5" x2="80" y2="66.5" stroke="#F87E1B" stroke-width="2" stroke-linecap="round" stroke-linejoin="round" stroke-dasharray="0.1 5"/>
<line x1="2" y1="78.5" x2="80" y2="78.5" stroke="#F87E1B" stroke-width="2" stroke-linecap="round" stroke-linejoin="round" stroke-dasharray="0.1 5"/>
<line x1="2" y1="72.5" x2="80" y2="72.5" stroke="#F87E1B" stroke-width="2" stroke-linecap="round" stroke-linejoin="round" stroke-dasharray="0.1 5"/>
</g>
<path d="M34.6836 42.2026L34.6836 12.5H81.4175L92.2022 23.2847V87.9932H56.9995" stroke="#3661F7" stroke-width="3" stroke-miterlimit="10" stroke-linecap="round"/>
<path d="M86.9995 25.0822H79.6201V17.7028" stroke="#3661F7" stroke-width="3" stroke-miterlimit="10" stroke-linecap="round"/>
<path d="M70.6328 70.0187L74.2277 73.6136L81.4176 64.6263" stroke="#3661F7" stroke-width="3" stroke-miterlimit="10" stroke-linecap="round"/>
<path d="M70.6328 53.8415L74.2277 57.4364L81.4176 48.4492" stroke="#3661F7" stroke-width="3" stroke-miterlimit="10" stroke-linecap="round"/>
<path d="M70.6328 37.6644L74.2277 41.2593L81.4176 32.272" stroke="#3661F7" stroke-width="3" stroke-miterlimit="10" stroke-linecap="round"/>
<path d="M49.0635 32.272H61.6457" stroke="#3661F7" stroke-width="3" stroke-miterlimit="10" stroke-linecap="round"/>
<path d="M49.0635 39.4619H56.2533" stroke="#3661F7" stroke-width="3" stroke-miterlimit="10" stroke-linecap="round"/>
<path d="M49.0635 46.6517H61.6457" stroke="#3661F7" stroke-width="3" stroke-miterlimit="10" stroke-linecap="round"/>
</svg>
