<svg width="72" height="72" viewBox="0 0 72 72" fill="none" xmlns="http://www.w3.org/2000/svg">
<circle cx="36.0002" cy="35.9997" r="20.7692" fill="white"/>
<path fill-rule="evenodd" clip-rule="evenodd" d="M66 24V48C66 52.17 63.726 56.121 59.598 59.247C54.27 63.285 45.696 66 36 66C26.304 66 17.73 63.285 12.402 59.247C8.274 56.121 6 52.17 6 48V24C6 19.83 8.274 15.879 12.402 12.753C17.73 8.715 26.304 6 36 6C45.696 6 54.27 8.715 59.598 12.753C63.726 15.879 66 19.83 66 24ZM33 37.758L45.879 24.879C47.049 23.709 48.951 23.709 50.121 24.879C51.291 26.049 51.291 27.951 50.121 29.121L35.121 44.121C33.951 45.294 32.049 45.294 30.879 44.121L21.879 35.121C20.709 33.951 20.709 32.049 21.879 30.879C23.049 29.709 24.951 29.709 26.121 30.879L33 37.758Z" fill="#F87E1B"/>
</svg>
