<svg width="10" height="24" viewBox="0 0 10 24" fill="none" xmlns="http://www.w3.org/2000/svg">
<g clip-path="url(#clip0)">
<path d="M5 8C7.21 8 9 6.21 9 4C9 1.79 7.21 0 5 0C2.79 0 1 1.79 1 4C1 6.21 2.79 8 5 8ZM5 2C6.1 2 7 2.9 7 4C7 5.1 6.1 6 5 6C3.9 6 3 5.1 3 4C3 2.9 3.9 2 5 2ZM0 23L1.74 24L3.43 21.04L2.28 19.03L0 23ZM5 15.73V14L7.66 16L8.86 14.4L5 11.5V10H3V16.27L7.42 24L9.16 23.01L5 15.73Z" fill="white"/>
<path d="M2 11H0V16H2V11Z" fill="white"/>
</g>
<defs>
<clipPath id="clip0">
<rect width="9.16" height="24" fill="white"/>
</clipPath>
</defs>
</svg>
