<svg width="24" height="24" viewBox="0 0 24 24" fill="none" xmlns="http://www.w3.org/2000/svg">
<path d="M12 0C5.38 0 0 5.38 0 12C0 18.62 5.38 24 12 24C18.62 24 24 18.62 24 12C24 5.38 18.62 0 12 0ZM21.95 11H18.97C18.83 7.92 18.04 5.21 16.82 3.25C19.63 4.8 21.62 7.66 21.95 11ZM11 2.21V11H7.03C7.25 6.7 8.91 3.1 11 2.21ZM11 13V21.79C8.91 20.9 7.25 17.3 7.03 13H11ZM13 21.79V13H17C16.77 17.3 15.09 20.9 13 21.79ZM13 11V2.21C15.09 3.1 16.75 6.7 16.97 11H13ZM7.18 3.25C5.96 5.21 5.17 7.92 5.03 11H2.05C2.38 7.66 4.37 4.8 7.18 3.25ZM2.05 13H5.03C5.17 16.08 5.96 18.79 7.18 20.75C4.37 19.2 2.38 16.34 2.05 13ZM16.82 20.75C18.03 18.79 18.83 16.08 18.97 13H21.95C21.62 16.34 19.63 19.2 16.82 20.75Z" fill="white"/>
</svg>
