<svg width="72" height="72" viewBox="0 0 72 72" fill="none" xmlns="http://www.w3.org/2000/svg">
<rect x="14" y="15" width="41" height="38" fill="white"/>
<path fill-rule="evenodd" clip-rule="evenodd" d="M66 24V48C66 52.17 63.726 56.121 59.598 59.247C54.27 63.285 45.693 66 36 66C26.304 66 17.73 63.285 12.399 59.247C8.274 56.121 6 52.17 6 48V24C6 19.83 8.274 15.879 12.399 12.753C17.73 8.715 26.304 6 36 6C45.693 6 54.27 8.715 59.598 12.753C63.726 15.879 66 19.83 66 24ZM31.755 36L21.879 26.121C20.706 24.951 20.706 23.049 21.879 21.879C23.049 20.709 24.951 20.709 26.121 21.879L36 31.758L45.879 21.879C47.049 20.709 48.951 20.709 50.121 21.879C51.291 23.049 51.291 24.951 50.121 26.121L40.242 36L50.121 45.879C51.291 47.049 51.291 48.951 50.121 50.121C48.951 51.291 47.049 51.291 45.879 50.121L36 40.242L26.121 50.121C24.951 51.291 23.049 51.291 21.879 50.121C20.706 48.951 20.706 47.049 21.879 45.879L31.755 36Z" fill="#F81B1B"/>
</svg>
