<svg width="17" height="16" viewBox="0 0 17 16" fill="none" xmlns="http://www.w3.org/2000/svg">
<path d="M15.6855 15.0882C15.4883 14.9733 14.2872 14.2295 13.6445 12.8847C15.1454 11.4812 15.9991 9.52889 15.9991 7.53083C15.9991 3.39562 12.3933 0 7.99954 0C3.60574 0 0 3.39562 0 7.53083C0 11.666 3.60574 15.0617 7.99954 15.0617C8.58937 15.0617 9.22292 15.0064 10.097 14.8227C12.3944 16.0435 14.4565 16.0092 15.2411 15.9968C15.5903 15.9925 15.8439 16.0555 15.9744 15.6947C16.0627 15.4527 15.9321 15.1731 15.6855 15.0882ZM8.93701 11.3119C8.93701 11.8296 8.5173 12.2493 7.99954 12.2493C7.48179 12.2493 7.06208 11.8296 7.06208 11.3119V7.53083C7.06208 7.01307 7.48179 6.59336 7.99954 6.59336C8.5173 6.59336 8.93701 7.01307 8.93701 7.53083V11.3119ZM7.99954 5.15596C7.48179 5.15596 7.06208 4.73619 7.06208 4.2185C7.06208 3.70075 7.48179 3.28104 7.99954 3.28104C8.5173 3.28104 8.93701 3.70075 8.93701 4.2185C8.93701 4.73622 8.5173 5.15596 7.99954 5.15596Z" fill="#FB6C02"/>
</svg>
