<svg width="80" height="103" viewBox="0 0 80 103" fill="none" xmlns="http://www.w3.org/2000/svg">
<path d="M35.0184 57.784C33.4249 58.065 31.7835 58.2112 30.1056 58.2112C14.5829 58.2112 2 45.6283 2 30.1056C2 14.5829 14.5829 2 30.1056 2C45.6283 2 58.2112 14.5829 58.2112 30.1056C58.2112 31.9718 58.0285 33.7987 57.6828 35.5637" stroke="#3661F7" stroke-width="3" stroke-miterlimit="10" stroke-linecap="round" stroke-linejoin="round"/>
<mask id="mask0" mask-type="alpha" maskUnits="userSpaceOnUse" x="3" y="3" width="55" height="55">
<circle cx="30.5" cy="30.5" r="27.5" fill="#C4C4C4"/>
</mask>
<g mask="url(#mask0)">
<line x1="-8" y1="8" x2="70" y2="8" stroke="#3661F7" stroke-width="2" stroke-linecap="round" stroke-linejoin="round" stroke-dasharray="0.1 5"/>
<line x1="-8" y1="14" x2="70" y2="14" stroke="#3661F7" stroke-width="2" stroke-linecap="round" stroke-linejoin="round" stroke-dasharray="0.1 5"/>
<line x1="-8" y1="20" x2="70" y2="20" stroke="#3661F7" stroke-width="2" stroke-linecap="round" stroke-linejoin="round" stroke-dasharray="0.1 5"/>
<line x1="-8" y1="32" x2="70" y2="32" stroke="#3661F7" stroke-width="2" stroke-linecap="round" stroke-linejoin="round" stroke-dasharray="0.1 5"/>
<line x1="-8" y1="26" x2="70" y2="26" stroke="#3661F7" stroke-width="2" stroke-linecap="round" stroke-linejoin="round" stroke-dasharray="0.1 5"/>
<line x1="-8" y1="38" x2="70" y2="38" stroke="#3661F7" stroke-width="2" stroke-linecap="round" stroke-linejoin="round" stroke-dasharray="0.1 5"/>
<line x1="-8" y1="44" x2="70" y2="44" stroke="#3661F7" stroke-width="2" stroke-linecap="round" stroke-linejoin="round" stroke-dasharray="0.1 5"/>
<line x1="-8" y1="50" x2="70" y2="50" stroke="#3661F7" stroke-width="2" stroke-linecap="round" stroke-linejoin="round" stroke-dasharray="0.1 5"/>
<line x1="-8" y1="56" x2="70" y2="56" stroke="#3661F7" stroke-width="2" stroke-linecap="round" stroke-linejoin="round" stroke-dasharray="0.1 5"/>
</g>
<circle cx="31" cy="30" r="17" fill="white"/>
<path d="M24 34.1499H34.6125" stroke="#F87E1B" stroke-width="3" stroke-miterlimit="10" stroke-linecap="round" stroke-linejoin="round"/>
<path d="M27.5371 29.4333H34.6121C36.5651 29.4333 38.1496 27.8488 38.1496 25.8958V23.5375C38.1496 21.5845 36.5651 20 34.6121 20H27.5371V41.225" stroke="#F87E1B" stroke-width="3" stroke-miterlimit="10" stroke-linecap="round" stroke-linejoin="round"/>
<path d="M24 29.4329H27.5375" stroke="#F87E1B" stroke-width="3" stroke-miterlimit="10" stroke-linecap="round" stroke-linejoin="round"/>
<path d="M51.4658 56.2109H55.9627C57.3792 56.2109 59.5996 57.1103 60.4596 58.4594H64.9565C67.0644 58.4594 69.4534 60.4268 69.4534 62.9563H73.9503C76.0582 62.9563 78.4472 64.9237 78.4472 67.4532V90.8539C78.4472 95.4042 73.9503 98.1501 73.9503 101.18" stroke="#3661F7" stroke-width="3" stroke-miterlimit="10" stroke-linecap="round" stroke-linejoin="round"/>
<path d="M51.4659 65.2049V40.472C51.4659 37.9875 49.4535 35.9751 46.969 35.9751C44.4844 35.9751 42.4721 37.9875 42.4721 40.472V74.1987C40.915 75.6939 38.3799 75.396 37.2107 73.5832L33.5935 67.9761C29.996 63.0211 24.4873 65.8008 24.4873 67.9761C24.4873 67.9761 31.3085 83.9148 32.2866 85.4438C33.8577 87.903 42.4749 97.9283 42.4749 99.8507V101.18" fill="white"/>
<path d="M51.4659 65.2049V40.472C51.4659 37.9875 49.4535 35.9751 46.969 35.9751C44.4844 35.9751 42.4721 37.9875 42.4721 40.472V74.1987C40.915 75.6939 38.3799 75.396 37.2107 73.5832L33.5935 67.9761C29.996 63.0211 24.4873 65.8008 24.4873 67.9761C24.4873 67.9761 31.3085 83.9148 32.2866 85.4438C33.8577 87.903 42.4749 97.9283 42.4749 99.8507V101.18" stroke="#3661F7" stroke-width="3" stroke-miterlimit="10" stroke-linecap="round" stroke-linejoin="round"/>
<path d="M60.46 58.4597V67.4535" stroke="#3661F7" stroke-width="3" stroke-miterlimit="10" stroke-linecap="round" stroke-linejoin="round"/>
<path d="M69.4531 62.9563V69.7017" stroke="#3661F7" stroke-width="3" stroke-miterlimit="10" stroke-linecap="round" stroke-linejoin="round"/>
</svg>
