<svg width="88" height="88" viewBox="0 0 88 88" fill="none" xmlns="http://www.w3.org/2000/svg">
<path d="M31.2178 22.087V2H78.6961L86.0004 9.30435V80.5218H54.9569" stroke="#3661F7" stroke-width="3" stroke-miterlimit="10" stroke-linecap="round" stroke-linejoin="round"/>
<path d="M75.043 7.47827V12.9565H80.5212" stroke="#3661F7" stroke-width="3" stroke-miterlimit="10" stroke-linecap="round" stroke-linejoin="round"/>
<path d="M54.9561 38.522H75.043" stroke="#3661F7" stroke-width="3" stroke-miterlimit="10" stroke-linecap="round" stroke-linejoin="round"/>
<path d="M54.9561 31.2173H75.043" stroke="#3661F7" stroke-width="3" stroke-miterlimit="10" stroke-linecap="round" stroke-linejoin="round"/>
<path d="M54.9561 45.8262H75.043" stroke="#3661F7" stroke-width="3" stroke-miterlimit="10" stroke-linecap="round" stroke-linejoin="round"/>
<path d="M54.9561 53.1304H69.5648" stroke="#3661F7" stroke-width="3" stroke-miterlimit="10" stroke-linecap="round" stroke-linejoin="round"/>
<path d="M2.00022 86H49.4785L49.4785 27.5652L2.00022 27.5652L2.00022 86Z" stroke="#3661F7" stroke-width="3" stroke-miterlimit="10" stroke-linecap="round" stroke-linejoin="round"/>
<path d="M34.8693 75.0435H16.6084" stroke="#3661F7" stroke-width="3" stroke-miterlimit="10" stroke-linecap="round" stroke-linejoin="round"/>
<mask id="mask0" mask-type="alpha" maskUnits="userSpaceOnUse" x="2" y="27" width="47" height="59">
<rect x="2" y="27" width="47" height="59" fill="#C4C4C4"/>
</mask>
<g mask="url(#mask0)">
<line x1="-14" y1="27" x2="64" y2="27" stroke="#3661F7" stroke-width="2" stroke-linecap="round" stroke-linejoin="round" stroke-dasharray="0.1 5"/>
<line x1="-14" y1="33" x2="64" y2="33" stroke="#3661F7" stroke-width="2" stroke-linecap="round" stroke-linejoin="round" stroke-dasharray="0.1 5"/>
<line x1="-14" y1="39" x2="64" y2="39" stroke="#3661F7" stroke-width="2" stroke-linecap="round" stroke-linejoin="round" stroke-dasharray="0.1 5"/>
<line x1="-14" y1="45" x2="64" y2="45" stroke="#3661F7" stroke-width="2" stroke-linecap="round" stroke-linejoin="round" stroke-dasharray="0.1 5"/>
<line x1="-14" y1="57" x2="64" y2="57" stroke="#3661F7" stroke-width="2" stroke-linecap="round" stroke-linejoin="round" stroke-dasharray="0.1 5"/>
<line x1="-14" y1="51" x2="64" y2="51" stroke="#3661F7" stroke-width="2" stroke-linecap="round" stroke-linejoin="round" stroke-dasharray="0.1 5"/>
<line x1="-14" y1="63" x2="64" y2="63" stroke="#3661F7" stroke-width="2" stroke-linecap="round" stroke-linejoin="round" stroke-dasharray="0.1 5"/>
<line x1="-14" y1="69" x2="64" y2="69" stroke="#3661F7" stroke-width="2" stroke-linecap="round" stroke-linejoin="round" stroke-dasharray="0.1 5"/>
<line x1="-14" y1="75" x2="64" y2="75" stroke="#3661F7" stroke-width="2" stroke-linecap="round" stroke-linejoin="round" stroke-dasharray="0.1 5"/>
<line x1="-14" y1="81" x2="64" y2="81" stroke="#3661F7" stroke-width="2" stroke-linecap="round" stroke-linejoin="round" stroke-dasharray="0.1 5"/>
</g>
<circle cx="26" cy="51" r="20" fill="white"/>
<path d="M25.7396 65.9132C33.8077 65.9132 40.3483 59.3727 40.3483 51.3045C40.3483 43.2363 33.8077 36.6958 25.7396 36.6958C17.6714 36.6958 11.1309 43.2363 11.1309 51.3045C11.1309 59.3727 17.6714 65.9132 25.7396 65.9132Z" stroke="#F87E1B" stroke-width="3" stroke-miterlimit="10" stroke-linecap="round" stroke-linejoin="round"/>
<path d="M25.74 65.9132C28.7655 65.9132 31.2182 59.3727 31.2182 51.3045C31.2182 43.2363 28.7655 36.6958 25.74 36.6958C22.7144 36.6958 20.2617 43.2363 20.2617 51.3045C20.2617 59.3727 22.7144 65.9132 25.74 65.9132Z" stroke="#F87E1B" stroke-width="3" stroke-miterlimit="10" stroke-linecap="round" stroke-linejoin="round"/>
<path d="M40.3483 51.3042H11.1309" stroke="#F87E1B" stroke-width="3" stroke-miterlimit="10" stroke-linecap="round" stroke-linejoin="round"/>
</svg>
