<svg width="88" height="84" viewBox="0 0 88 84" fill="none" xmlns="http://www.w3.org/2000/svg">
<path d="M7.47852 73.2172V27.565C7.47852 25.5563 9.12199 23.9128 11.1307 23.9128H21.9133" stroke="#3661F7" stroke-width="3" stroke-miterlimit="10" stroke-linecap="round" stroke-linejoin="round"/>
<path d="M80.5215 54.3042V73.2172" stroke="#3661F7" stroke-width="3" stroke-miterlimit="10" stroke-linecap="round" stroke-linejoin="round"/>
<path d="M86 73.2173H53.1304L49.4783 76.8695H40.3478L36.6957 73.2173H2V75.0434C2 79.079 5.2687 82.3477 9.30435 82.3477H78.6957C82.7313 82.3477 86 79.079 86 75.0434V73.2173Z" stroke="#3661F7" stroke-width="3" stroke-miterlimit="10" stroke-linecap="round" stroke-linejoin="round"/>
<mask id="mask0" mask-type="alpha" maskUnits="userSpaceOnUse" x="7" y="23" width="74" height="51">
<rect x="7" y="23" width="74" height="51" rx="7" fill="#C4C4C4"/>
</mask>
<g mask="url(#mask0)">
<line x1="10" y1="28" x2="88" y2="28" stroke="#3661F7" stroke-width="2" stroke-linecap="round" stroke-linejoin="round" stroke-dasharray="0.1 5"/>
<line x1="10" y1="34" x2="88" y2="34" stroke="#3661F7" stroke-width="2" stroke-linecap="round" stroke-linejoin="round" stroke-dasharray="0.1 5"/>
<line x1="10" y1="40" x2="88" y2="40" stroke="#3661F7" stroke-width="2" stroke-linecap="round" stroke-linejoin="round" stroke-dasharray="0.1 5"/>
<line x1="10" y1="52" x2="88" y2="52" stroke="#3661F7" stroke-width="2" stroke-linecap="round" stroke-linejoin="round" stroke-dasharray="0.1 5"/>
<line x1="10" y1="46" x2="88" y2="46" stroke="#3661F7" stroke-width="2" stroke-linecap="round" stroke-linejoin="round" stroke-dasharray="0.1 5"/>
<line x1="10" y1="58" x2="88" y2="58" stroke="#3661F7" stroke-width="2" stroke-linecap="round" stroke-linejoin="round" stroke-dasharray="0.1 5"/>
<line x1="10" y1="64" x2="88" y2="64" stroke="#3661F7" stroke-width="2" stroke-linecap="round" stroke-linejoin="round" stroke-dasharray="0.1 5"/>
<line x1="10" y1="70" x2="88" y2="70" stroke="#3661F7" stroke-width="2" stroke-linecap="round" stroke-linejoin="round" stroke-dasharray="0.1 5"/>
</g>
<path d="M27.5654 7.47826C27.5654 4.44696 30.0124 2 33.0437 2H80.522C83.5533 2 86.0002 4.44696 86.0002 7.47826V42.1739C86.0002 45.2052 83.5533 47.6522 80.522 47.6522H58.6089L48.9489 59.1383C47.7985 60.2887 45.8263 59.4852 45.8263 57.86V47.6522H33.0437C30.0124 47.6522 27.5654 45.2052 27.5654 42.1739V7.47826Z" fill="white" stroke="#3661F7" stroke-width="3" stroke-miterlimit="10" stroke-linecap="round" stroke-linejoin="round"/>
<path d="M67.7392 25.7392V36.6958H45.8262V14.7827H62.261" stroke="#F87E1B" stroke-width="3" stroke-miterlimit="10" stroke-linecap="round" stroke-linejoin="round"/>
<path d="M51.3047 25.7392L56.7829 31.2175L69.5656 14.7827" stroke="#F87E1B" stroke-width="3" stroke-miterlimit="10" stroke-linecap="round" stroke-linejoin="round"/>
</svg>
