<svg width="214" height="54" viewBox="0 0 214 54" fill="none" xmlns="http://www.w3.org/2000/svg">
<path d="M41.1379 28.8075C40.0643 28.1226 38.9152 27.4719 37.6682 26.8517C38.9152 27.6784 40.065 28.5894 41.1379 29.5768C45.0784 33.205 47.8775 37.8634 50.031 43.0934L52.8216 42.628C50.6174 37.5806 47.2597 32.7091 41.1372 28.8061L41.1379 28.8075ZM36.4014 31.3974C38.1669 33.3242 39.7398 35.5331 41.1379 37.9761C41.8298 39.1903 42.4818 40.4613 43.091 41.7875L45.8751 42.4659C44.4984 39.7975 42.912 37.5246 41.1386 35.5833C39.6706 33.9728 38.0841 32.5891 36.4021 31.3967L36.4014 31.3974ZM41.1379 23.4693C40.0237 23.0599 38.8666 22.7073 37.6682 22.4106C38.8595 22.9472 40.0165 23.5325 41.1379 24.1826C47.2533 27.7322 52.191 33.1257 55.4046 41.216L57.3791 39.3314C53.9016 31.4672 48.4852 26.1799 41.1379 23.4685V23.4693Z" fill="#3661F7"/>
<path d="M41.1377 18.7045C39.3993 18.3519 37.5924 18.1323 35.7363 18.0269C37.6195 18.4078 39.4207 18.9023 41.1377 19.5232C49.0471 22.3756 55.1404 27.8338 58.7014 36.9311L59.5595 33.6919C55.3701 24.5641 48.8881 20.2866 41.1377 18.7052V18.7045Z" fill="#3661F7"/>
<path d="M28.7604 6.87308C27.3138 5.80717 25.9213 4.70635 24.6466 3.52702C24.0995 3.02678 23.5802 2.51855 23.0816 1.98923L20.5328 1.58715C21.8696 2.61089 23.2335 3.58519 24.6466 4.4955C25.9763 5.3491 27.3402 6.15326 28.7597 6.87308H28.7604ZM27.8259 9.90866C26.7731 9.32263 25.7002 8.70897 24.6473 8.07349C21.2405 6.04056 17.9919 3.81713 15.8163 1.58643L12.6933 1.98851C16.3434 4.74126 20.3524 6.93706 24.6473 8.69443C25.6924 9.12486 26.7517 9.52694 27.8259 9.90866ZM24.6466 16.6429C15.4353 14.5111 6.80615 11.2007 2.78295 6.72548L0.0273438 9.54657C6.24048 14.5729 14.6464 17.0225 24.648 17.5867C26.3458 17.6856 28.0899 17.7278 29.8839 17.7212C28.1305 17.4035 26.3779 17.0436 24.6466 16.6415V16.6429ZM28.4002 13.6495C27.1611 13.2118 25.9071 12.7392 24.6466 12.239C18.6418 9.85921 12.617 6.8309 8.90478 3.13221L5.81604 4.678C9.95837 8.26399 16.3648 10.9324 24.6466 12.8526C25.8593 13.1347 27.1055 13.403 28.4002 13.6495Z" fill="#3661F7"/>
<path d="M16.926 30.79C18.852 28.6364 20.5141 26.2573 21.9336 23.6812C22.5635 22.5375 23.1463 21.3517 23.6856 20.1302C23.1385 20.9423 22.5564 21.7327 21.9336 22.4947C20.4585 24.3233 18.7893 26.0385 16.926 27.641C14.0028 30.1611 10.6237 32.4201 6.83594 34.4465L7.41088 38.3073C11.1288 36.2751 14.2803 33.7485 16.9253 30.7892L16.926 30.79ZM16.926 21.1604C17.5638 20.4828 18.153 19.7841 18.6994 19.0708C18.1244 19.5361 17.5352 19.9942 16.926 20.4464C14.3709 22.3383 11.5382 24.047 8.4017 25.5651L7.24396 28.7483C10.9982 26.4405 14.3152 23.9554 16.926 21.1597V21.1604ZM21.9336 38.0398C25.6251 33.0905 27.9099 27.1189 28.7139 20.0465C27.2801 24.769 25.0017 28.9897 21.9336 32.724C20.4499 34.525 18.7821 36.2191 16.926 37.7991C14.627 39.7622 12.0433 41.5625 9.18352 43.1926L11.6559 47.2243C13.5677 46.0588 15.3267 44.7886 16.926 43.3969C18.8092 41.7661 20.4856 39.9811 21.9336 38.0398ZM33.2079 19.1064C33.118 29.5888 29.2738 38.2942 21.9329 45.3448C20.4164 46.8063 18.7465 48.195 16.9253 49.5161C16.3504 49.9335 15.7626 50.3493 15.1591 50.7521L16.926 51.9664L19.8835 53.9993C20.5897 53.4409 21.2745 52.8767 21.9336 52.2979C31.844 43.602 36.4714 31.9271 33.2086 19.1064H33.2079Z" fill="#3661F7"/>
<path d="M38.8797 1.69204C39.5517 1.52263 40.2721 1.46665 41.0411 1.52264L38.8797 0.337482L38.2841 0.0117484C31.068 -0.354703 30.07 8.29326 32.633 15.7183C32.3762 7.83302 34.7659 2.71579 38.8797 1.69278V1.69204ZM45.2376 5.35583C45.4252 5.34856 45.6114 5.3413 45.8054 5.34857L45.2376 4.81197L43.8659 3.52067C42.7923 3.48432 41.8507 3.65445 41.0411 4.00782C40.1879 4.37427 39.4682 4.95303 38.8797 5.72374C37.3703 7.69997 36.6919 10.9471 36.7112 15.2668C37.2661 12.9372 37.9937 11.0387 38.8797 9.54168C39.5174 8.47577 40.2372 7.61489 41.0411 6.95834C42.2523 5.96223 43.6519 5.43363 45.2376 5.35583ZM49.0804 9.65437L47.9105 7.86137C46.899 7.8541 46.013 8.0795 45.2369 8.51067C43.1946 9.64056 41.9128 12.1752 41.0397 15.4638L41.0254 15.5052L41.0397 15.4834C42.2595 13.4156 43.6505 11.8335 45.2369 10.8468C46.4068 10.1139 47.6815 9.70527 49.0804 9.65437ZM50.2167 12.6478C48.1944 13.2549 46.5673 14.6458 45.2376 16.6082C45.045 16.8903 44.8496 17.1943 44.6705 17.504C44.856 17.3208 45.0436 17.1375 45.2376 16.9674C46.7406 15.5903 48.3742 14.568 50.3137 14.3339L50.2167 12.6471V12.6478Z" fill="#3661F7"/>
<path d="M41.1379 28.8075C40.0643 28.1226 38.9152 27.4719 37.6682 26.8517C38.9152 27.6784 40.065 28.5894 41.1379 29.5768C45.0784 33.205 47.8775 37.8634 50.031 43.0934L52.8216 42.628C50.6174 37.5806 47.2597 32.7091 41.1372 28.8061L41.1379 28.8075ZM36.4014 31.3974C38.1669 33.3242 39.7398 35.5331 41.1379 37.9761C41.8298 39.1903 42.4818 40.4613 43.091 41.7875L45.8751 42.4659C44.4984 39.7975 42.912 37.5246 41.1386 35.5833C39.6706 33.9728 38.0841 32.5891 36.4021 31.3967L36.4014 31.3974ZM41.1379 23.4693C40.0237 23.0599 38.8666 22.7073 37.6682 22.4106C38.8595 22.9472 40.0165 23.5325 41.1379 24.1826C47.2533 27.7322 52.191 33.1257 55.4046 41.216L57.3791 39.3314C53.9016 31.4672 48.4852 26.1799 41.1379 23.4685V23.4693Z" fill="#3661F7"/>
<path d="M41.1377 18.7045C39.3993 18.3519 37.5924 18.1323 35.7363 18.0269C37.6195 18.4078 39.4207 18.9023 41.1377 19.5232C49.0471 22.3756 55.1404 27.8338 58.7014 36.9311L59.5595 33.6919C55.3701 24.5641 48.8881 20.2866 41.1377 18.7052V18.7045Z" fill="#3661F7"/>
<path d="M28.7604 6.87308C27.3138 5.80717 25.9213 4.70635 24.6466 3.52702C24.0995 3.02678 23.5802 2.51855 23.0816 1.98923L20.5328 1.58715C21.8696 2.61089 23.2335 3.58519 24.6466 4.4955C25.9763 5.3491 27.3402 6.15326 28.7597 6.87308H28.7604ZM27.8259 9.90866C26.7731 9.32263 25.7002 8.70897 24.6473 8.07349C21.2405 6.04056 17.9919 3.81713 15.8163 1.58643L12.6933 1.98851C16.3434 4.74126 20.3524 6.93706 24.6473 8.69443C25.6924 9.12486 26.7517 9.52694 27.8259 9.90866ZM24.6466 16.6429C15.4353 14.5111 6.80615 11.2007 2.78295 6.72548L0.0273438 9.54657C6.24048 14.5729 14.6464 17.0225 24.648 17.5867C26.3458 17.6856 28.0899 17.7278 29.8839 17.7212C28.1305 17.4035 26.3779 17.0436 24.6466 16.6415V16.6429ZM28.4002 13.6495C27.1611 13.2118 25.9071 12.7392 24.6466 12.239C18.6418 9.85921 12.617 6.8309 8.90478 3.13221L5.81604 4.678C9.95837 8.26399 16.3648 10.9324 24.6466 12.8526C25.8593 13.1347 27.1055 13.403 28.4002 13.6495Z" fill="#3661F7"/>
<path d="M16.926 30.79C18.852 28.6364 20.5141 26.2573 21.9336 23.6812C22.5635 22.5375 23.1463 21.3517 23.6856 20.1302C23.1385 20.9423 22.5564 21.7327 21.9336 22.4947C20.4585 24.3233 18.7893 26.0385 16.926 27.641C14.0028 30.1611 10.6237 32.4201 6.83594 34.4465L7.41088 38.3073C11.1288 36.2751 14.2803 33.7485 16.9253 30.7892L16.926 30.79ZM16.926 21.1604C17.5638 20.4828 18.153 19.7841 18.6994 19.0708C18.1244 19.5361 17.5352 19.9942 16.926 20.4464C14.3709 22.3383 11.5382 24.047 8.4017 25.5651L7.24396 28.7483C10.9982 26.4405 14.3152 23.9554 16.926 21.1597V21.1604ZM21.9336 38.0398C25.6251 33.0905 27.9099 27.1189 28.7139 20.0465C27.2801 24.769 25.0017 28.9897 21.9336 32.724C20.4499 34.525 18.7821 36.2191 16.926 37.7991C14.627 39.7622 12.0433 41.5625 9.18352 43.1926L11.6559 47.2243C13.5677 46.0588 15.3267 44.7886 16.926 43.3969C18.8092 41.7661 20.4856 39.9811 21.9336 38.0398ZM33.2079 19.1064C33.118 29.5888 29.2738 38.2942 21.9329 45.3448C20.4164 46.8063 18.7465 48.195 16.9253 49.5161C16.3504 49.9335 15.7626 50.3493 15.1591 50.7521L16.926 51.9664L19.8835 53.9993C20.5897 53.4409 21.2745 52.8767 21.9336 52.2979C31.844 43.602 36.4714 31.9271 33.2086 19.1064H33.2079Z" fill="#3661F7"/>
<path d="M38.8797 1.69204C39.5517 1.52263 40.2721 1.46665 41.0411 1.52264L38.8797 0.337482L38.2841 0.0117484C31.068 -0.354703 30.07 8.29326 32.633 15.7183C32.3762 7.83302 34.7659 2.71579 38.8797 1.69278V1.69204ZM45.2376 5.35583C45.4252 5.34856 45.6114 5.3413 45.8054 5.34857L45.2376 4.81197L43.8659 3.52067C42.7923 3.48432 41.8507 3.65445 41.0411 4.00782C40.1879 4.37427 39.4682 4.95303 38.8797 5.72374C37.3703 7.69997 36.6919 10.9471 36.7112 15.2668C37.2661 12.9372 37.9937 11.0387 38.8797 9.54168C39.5174 8.47577 40.2372 7.61489 41.0411 6.95834C42.2523 5.96223 43.6519 5.43363 45.2376 5.35583ZM49.0804 9.65437L47.9105 7.86137C46.899 7.8541 46.013 8.0795 45.2369 8.51067C43.1946 9.64056 41.9128 12.1752 41.0397 15.4638L41.0254 15.5052L41.0397 15.4834C42.2595 13.4156 43.6505 11.8335 45.2369 10.8468C46.4068 10.1139 47.6815 9.70527 49.0804 9.65437ZM50.2167 12.6478C48.1944 13.2549 46.5673 14.6458 45.2376 16.6082C45.045 16.8903 44.8496 17.1943 44.6705 17.504C44.856 17.3208 45.0436 17.1375 45.2376 16.9674C46.7406 15.5903 48.3742 14.568 50.3137 14.3339L50.2167 12.6471V12.6478Z" fill="#F87E1B"/>
<path d="M100.393 13.72C100.337 14.0036 100.295 14.2988 100.267 14.61C100.192 15.3792 100.157 16.2263 100.164 17.1511C100.164 17.9408 100.192 18.6395 100.254 19.2611C100.289 19.6 100.336 19.925 100.392 20.2282V13.7193L100.393 13.72ZM100.393 8.65949V8.72275L94.5262 16.8196L100.393 24.9026V25.2203H94.4078L91.4853 20.5612L88.5627 25.2196H82.8418L88.4515 16.8196L82.6692 8.65949H88.7496L91.4853 13.086L94.2202 8.66022H100.393L100.393 8.65949ZM82.1577 25.2196V21.1959H74.2897C74.1256 21.1959 73.9444 21.2032 73.7711 21.1814C73.5842 21.1668 73.4315 21.0956 73.3003 20.9829C73.2375 20.932 73.1897 20.8622 73.1405 20.7633C73.0977 20.6644 73.0713 20.5379 73.0713 20.3678V18.5675H81.8596V14.9757H73.0713V13.7178C73.0713 13.6473 73.0713 13.563 73.0784 13.4634C73.0856 13.3645 73.1127 13.2729 73.1483 13.174C73.184 13.0751 73.2382 12.9835 73.3217 12.9122C73.4187 12.8352 73.5357 12.7719 73.6812 12.7363C73.8267 12.6941 73.9722 12.6796 74.132 12.6796H82.0885V8.65586H70.5154C70.3228 8.65586 70.1138 8.66313 69.8855 8.69803C69.6644 8.73293 69.4361 8.79691 69.2079 8.88853C68.9796 8.98741 68.7656 9.12847 68.5645 9.31896C68.3633 9.50219 68.2178 9.70723 68.1136 9.91881C68.0166 10.1297 67.9481 10.3427 67.921 10.5608C67.8854 10.7804 67.8711 10.9993 67.8711 11.2116V22.5701C67.8711 22.8319 67.8782 23.0791 67.8996 23.3117C67.9189 23.5517 67.9888 23.7771 68.0922 24.0025C68.19 24.2206 68.3633 24.4402 68.6044 24.6525C68.8113 24.8219 69.0274 24.9491 69.2421 25.0269C69.4575 25.112 69.6773 25.1615 69.8927 25.1898C70.1152 25.2116 70.3421 25.2189 70.5646 25.2189L82.1584 25.2203L82.1577 25.2196ZM213.307 25.2196V21.1959H205.44C205.275 21.2032 205.101 21.1959 204.921 21.1814C204.74 21.1596 204.581 21.0956 204.45 20.9829C204.386 20.9393 204.339 20.8622 204.29 20.7633C204.248 20.6644 204.219 20.5379 204.219 20.3678V18.5675H213.007V14.9757H204.219V13.7178C204.219 13.6473 204.219 13.563 204.226 13.4634C204.233 13.3645 204.255 13.2729 204.297 13.174C204.333 13.0751 204.387 12.9835 204.469 12.9122C204.569 12.8352 204.686 12.7719 204.83 12.7363C204.976 12.6941 205.128 12.6796 205.28 12.6796H213.237V8.65586H201.664C201.471 8.64859 201.262 8.6704 201.033 8.69803C200.812 8.73293 200.584 8.79691 200.356 8.88853C200.127 8.98741 199.913 9.13574 199.711 9.31896C199.512 9.50946 199.366 9.70723 199.262 9.91881C199.165 10.1297 199.104 10.3427 199.069 10.5608C199.034 10.7804 199.012 10.9985 199.022 11.2108V22.5679C199.013 22.8297 199.029 23.0769 199.05 23.3096C199.069 23.5495 199.139 23.7764 199.243 24.0018C199.341 24.2199 199.514 24.4395 199.755 24.651C199.964 24.8205 200.179 24.9477 200.393 25.0255C200.609 25.1098 200.83 25.1593 201.044 25.1876C201.272 25.2094 201.493 25.2225 201.716 25.2167H213.308V25.2189L213.307 25.2196ZM192.349 25.2196V12.7748H198.099V8.65949H181.394V12.7748H187.15V25.2196H192.349ZM180.473 8.65949H176.471V18.5282C176.478 18.5704 176.471 18.6199 176.464 18.6831C176.457 18.7464 176.435 18.8031 176.4 18.846C176.358 18.9027 176.303 18.923 176.221 18.9303C176.13 18.923 176.047 18.8736 175.972 18.7893C175.902 18.7042 175.84 18.6126 175.784 18.5275L169.917 10.0082C169.669 9.64833 169.391 9.36549 169.087 9.16118C168.789 8.94887 168.483 8.79401 168.174 8.70312C167.855 8.60351 167.556 8.54025 167.271 8.50462C166.989 8.47554 166.733 8.46973 166.51 8.46973C166.039 8.46973 165.588 8.51844 165.16 8.62387C164.73 8.73002 164.342 8.90016 164.004 9.12556C163.664 9.35823 163.394 9.66142 163.2 10.0344C162.998 10.4096 162.902 10.8684 162.896 11.405V25.2196H166.897V15.4003C166.905 15.2447 166.924 15.1386 166.967 15.068C167.009 15.0048 167.057 14.9619 167.105 14.9408C167.161 14.9335 167.196 14.9263 167.223 14.9263C167.306 14.9335 167.38 14.9757 167.459 15.0673C167.534 15.1524 167.604 15.2367 167.659 15.3291L173.484 23.7778C173.732 24.1377 174.004 24.4278 174.279 24.6532C174.563 24.8641 174.854 25.0342 175.153 25.1404C175.45 25.2531 175.754 25.3236 176.06 25.3585C176.365 25.3948 176.669 25.4094 176.973 25.4094C177.645 25.4021 178.206 25.3171 178.642 25.1549C179.072 24.992 179.418 24.7877 179.667 24.5405C179.916 24.286 180.103 24.0243 180.215 23.7502C180.332 23.4739 180.407 23.2194 180.436 22.9867C180.464 22.7541 180.479 22.5708 180.471 22.4509L180.473 8.65804V8.65949ZM161.29 25.2196V21.1959H153.422C153.258 21.2032 153.076 21.1959 152.895 21.1814C152.716 21.1596 152.564 21.0956 152.432 20.9829C152.37 20.9393 152.321 20.8622 152.273 20.7633C152.224 20.6644 152.201 20.5379 152.201 20.3678V18.5675H160.991V14.9757H152.203V13.7178C152.203 13.6473 152.203 13.563 152.21 13.4634C152.217 13.3645 152.238 13.2729 152.28 13.174C152.315 13.0751 152.37 12.9835 152.453 12.9122C152.551 12.8352 152.667 12.7719 152.815 12.7363C152.96 12.6941 153.105 12.6796 153.259 12.6796H161.222V8.65586H149.65C149.457 8.64859 149.249 8.6704 149.02 8.69803C148.792 8.73293 148.57 8.79691 148.342 8.88853C148.113 8.98741 147.898 9.13574 147.697 9.31896C147.498 9.50946 147.351 9.70723 147.248 9.91881C147.151 10.1297 147.082 10.3427 147.054 10.5608C147.011 10.7804 147 10.9985 147.007 11.2108V22.5679C147 22.8297 147.007 23.0769 147.035 23.3096C147.055 23.5495 147.117 23.7764 147.222 24.0018C147.326 24.2199 147.499 24.4395 147.743 24.651C147.95 24.8205 148.164 24.9477 148.379 25.0255C148.593 25.1098 148.816 25.1593 149.028 25.1876C149.251 25.2094 149.474 25.2225 149.695 25.2167H161.292V25.2189L161.29 25.2196ZM146.31 25.2196V21.1043H137.957C137.818 21.1116 137.673 21.097 137.52 21.0694C137.367 21.0403 137.237 20.9843 137.131 20.8927C137.057 20.8149 137.001 20.7306 136.959 20.631C136.925 20.5255 136.904 20.4274 136.89 20.3285C136.883 20.2289 136.875 20.1511 136.875 20.0886V8.65877H131.674V23.0943C131.681 23.3197 131.715 23.5379 131.776 23.7436C131.848 23.9472 131.936 24.1384 132.04 24.294C132.145 24.4634 132.269 24.5972 132.387 24.6961C132.539 24.8234 132.705 24.9215 132.899 24.9993C133.091 25.0771 133.294 25.1338 133.501 25.1687C133.717 25.2051 133.931 25.2182 134.138 25.2182H146.31V25.2196ZM129.75 25.2196V21.1959H121.882C121.716 21.1959 121.537 21.2032 121.356 21.1814C121.176 21.1668 121.024 21.0956 120.892 20.9829C120.83 20.932 120.774 20.8622 120.733 20.7633C120.685 20.6644 120.658 20.5379 120.658 20.3678V18.5675H129.453V14.9757H120.658V13.7178C120.658 13.6473 120.658 13.563 120.672 13.4634C120.679 13.3645 120.699 13.2729 120.736 13.174C120.778 13.0751 120.833 12.9835 120.915 12.9122C121.013 12.8352 121.131 12.7719 121.275 12.7363C121.422 12.6941 121.568 12.6796 121.72 12.6796H129.684V8.65586H118.111C117.917 8.65586 117.71 8.66313 117.481 8.69803C117.252 8.73293 117.024 8.79691 116.796 8.88853C116.575 8.98741 116.352 9.12847 116.151 9.31896C115.957 9.50219 115.804 9.70723 115.707 9.91881C115.609 10.1297 115.541 10.3427 115.507 10.5608C115.471 10.7804 115.464 10.9985 115.464 11.2108V22.5679C115.464 22.8297 115.464 23.0769 115.491 23.3096C115.512 23.5495 115.574 23.7764 115.679 24.0018C115.782 24.2199 115.955 24.4395 116.199 24.651C116.399 24.8205 116.613 24.9477 116.837 25.0255C117.051 25.1098 117.272 25.1593 117.486 25.1876C117.707 25.2094 117.93 25.2167 118.151 25.2167H129.75V25.2189V25.2196ZM100.393 8.72203V8.65949H100.433L100.393 8.72275V8.72203ZM100.393 20.2289C100.433 20.4688 100.483 20.687 100.538 20.8993C100.663 21.3719 100.814 21.7958 100.995 22.1702C101.182 22.5447 101.389 22.8828 101.632 23.1867C102.069 23.7371 102.554 24.161 103.081 24.4576C103.613 24.7543 104.216 24.9593 104.887 25.0647C105.544 25.1774 106.3 25.2196 107.13 25.2196H114.263V21.1043H109.798C109.367 21.1043 108.951 21.097 108.557 21.0825C108.162 21.068 107.796 21.02 107.456 20.9422C107.117 20.8644 106.813 20.7371 106.55 20.5539C106.286 20.3765 106.065 20.1227 105.892 19.805C105.844 19.7134 105.788 19.5723 105.732 19.3746C105.669 19.1768 105.614 18.8947 105.566 18.5275C105.524 18.1603 105.504 17.6659 105.497 17.0588C105.497 16.8538 105.504 16.6211 105.517 16.3681C105.532 16.1136 105.552 15.8446 105.593 15.577C105.629 15.3007 105.683 15.0331 105.753 14.7794C105.823 14.5176 105.912 14.285 106.029 14.0741C106.21 13.7491 106.418 13.4946 106.667 13.3179C106.91 13.1347 107.188 13.0075 107.499 12.9297C107.81 12.8526 108.143 12.8097 108.517 12.7886C108.884 12.7741 109.285 12.7741 109.708 12.7741H114.009V8.65877H107.202C106.744 8.65877 106.261 8.67331 105.761 8.72203C105.255 8.77147 104.757 8.86308 104.251 9.00414C103.752 9.14519 103.275 9.37204 102.81 9.65342C102.354 9.9428 101.937 10.3311 101.563 10.8109C101.182 11.3054 100.893 11.8703 100.69 12.5051C100.565 12.8795 100.469 13.2889 100.393 13.7193L100.394 20.2282L100.393 20.2289ZM100.393 25.2196V24.9019L100.621 25.2189H100.393V25.2196Z" fill="#3661F7"/>
<path d="M72.24 38.5692V38.258C72.24 38.1802 72.1844 38.1373 72.1016 38.1373H72.0659C71.9918 38.1519 71.9076 38.1592 71.7963 38.1592C71.6922 38.1737 71.568 38.1781 71.4503 38.1781C71.3184 38.1926 71.2007 38.1999 71.0766 38.1999H70.7042C70.4888 38.1999 70.309 38.1708 70.1357 38.0995C69.9645 38.0356 69.8111 37.9236 69.6791 37.7745C69.5479 37.6189 69.4437 37.4212 69.3681 37.1681C69.2918 36.9209 69.2576 36.6097 69.2576 36.236V35.0509C69.2576 34.6822 69.2911 34.3725 69.3674 34.1187C69.4423 33.8657 69.5472 33.6679 69.6784 33.5131C69.8104 33.364 69.9623 33.2513 70.135 33.1873C70.309 33.1161 70.4888 33.0819 70.7042 33.0819C70.8148 33.0819 70.9467 33.0965 71.0773 33.0965C71.2028 33.1124 71.3341 33.1183 71.466 33.1183C71.598 33.1328 71.7157 33.1386 71.8198 33.1386C71.9304 33.1532 72.0139 33.1604 72.1038 33.1604H72.1252C72.1665 33.1604 72.1865 33.1604 72.2001 33.1386C72.2143 33.1168 72.22 33.095 72.22 33.0746V32.6871C72.22 32.6304 72.1787 32.602 72.0888 32.5853C71.9083 32.5664 71.6936 32.5417 71.4511 32.5104C71.2157 32.4886 70.9517 32.4668 70.6963 32.4668C70.4324 32.4668 70.1756 32.5104 69.9131 32.586C69.6563 32.6624 69.4138 32.7991 69.2212 32.9954C69.0271 33.1932 68.8666 33.4622 68.7489 33.7865C68.6177 34.1187 68.5635 34.5499 68.5635 35.0574V36.228C68.5635 36.737 68.6177 37.1674 68.7489 37.4931C68.8666 37.824 69.0271 38.093 69.2197 38.2908C69.4138 38.4871 69.6563 38.6289 69.9131 38.7067C70.177 38.7845 70.4338 38.8194 70.6963 38.8194H71.1457C71.2777 38.8194 71.3954 38.8048 71.5067 38.799C71.6173 38.799 71.7136 38.7845 71.797 38.7626C71.8876 38.7554 71.9846 38.7437 72.0681 38.719C72.1159 38.719 72.143 38.6994 72.1851 38.6754C72.2229 38.6609 72.2436 38.626 72.2436 38.5692H72.24ZM76.9352 35.9983H75.0933L75.848 33.239C75.8694 33.1401 75.9244 33.0834 76.0142 33.0834C76.0899 33.0834 76.1391 33.1415 76.1733 33.2397L76.9352 35.9997V35.9983ZM78.3904 38.6259L76.8588 33.1117C76.811 32.9779 76.769 32.8791 76.7062 32.7874C76.637 32.7104 76.5735 32.6464 76.4993 32.6035C76.4151 32.5548 76.3381 32.5271 76.2496 32.5039C76.1662 32.4835 76.0899 32.469 76.0142 32.469C75.9379 32.469 75.8609 32.4835 75.7717 32.5039C75.6883 32.5257 75.5977 32.5526 75.522 32.6042C75.4386 32.6478 75.3758 32.7104 75.3066 32.802C75.2438 32.8856 75.2032 32.9859 75.1689 33.1117L73.631 38.6259C73.6182 38.6456 73.6182 38.6696 73.6182 38.6899C73.6182 38.7808 73.6667 38.823 73.7637 38.823H74.263C74.2823 38.823 74.3101 38.8084 74.345 38.7881C74.3664 38.7663 74.3878 38.7314 74.4007 38.6878L74.9414 36.7057H77.0957L77.6285 38.6907C77.6357 38.7343 77.6571 38.7677 77.677 38.7903C77.6984 38.8106 77.7327 38.8266 77.7748 38.8266H78.267C78.349 38.8266 78.4046 38.783 78.4046 38.6928C78.4068 38.6696 78.3925 38.6492 78.3925 38.6274L78.3904 38.6259ZM83.7432 34.1922C83.7432 34.4118 83.7004 34.6015 83.6255 34.7302C83.5492 34.8771 83.4372 34.9847 83.286 35.0749C83.1333 35.1599 82.9536 35.2166 82.7381 35.2508C82.5156 35.2799 82.2673 35.2944 81.9891 35.2944H80.9712V33.1764C81.0268 33.1764 81.1025 33.1764 81.1852 33.1546C81.2765 33.1328 81.3593 33.1183 81.4563 33.111C81.5469 33.0965 81.6439 33.0834 81.7402 33.0834H81.9898C82.5655 33.0834 82.9942 33.1612 83.2995 33.316C83.5906 33.4716 83.7432 33.7472 83.7432 34.134V34.1922ZM84.5885 38.6259L83.0727 35.8652C83.2653 35.8216 83.4386 35.746 83.612 35.6602C83.7853 35.5693 83.9301 35.4566 84.0557 35.3286C84.1734 35.1934 84.2768 35.0232 84.3388 34.8487C84.4016 34.6713 84.4366 34.4736 84.4366 34.2474V34.1907C84.4366 33.8672 84.3745 33.5901 84.249 33.372C84.1241 33.1524 83.9579 32.9758 83.7439 32.8412C83.5278 32.7067 83.266 32.6231 82.9593 32.5526C82.6618 32.5039 82.3437 32.469 82.0105 32.469C81.8793 32.469 81.7395 32.4835 81.6089 32.4835C81.4705 32.4835 81.3307 32.4908 81.2002 32.4908C81.0547 32.4908 80.9291 32.5053 80.8121 32.5126C80.6809 32.5271 80.5696 32.5322 80.4861 32.5322C80.3963 32.5526 80.3406 32.5809 80.3206 32.6028C80.2935 32.6246 80.2793 32.6667 80.2793 32.7235V38.6594C80.2793 38.703 80.2935 38.7445 80.3149 38.7801C80.3349 38.8092 80.3763 38.8223 80.4184 38.8223H80.8335C80.8749 38.8223 80.9091 38.8077 80.9305 38.7663C80.9505 38.7299 80.9733 38.6885 80.9733 38.6449V35.9983H82.1988L83.7575 38.7016C83.786 38.767 83.8195 38.8084 83.8552 38.8084C83.8752 38.823 83.9166 38.823 83.9722 38.823H84.4979C84.5671 38.823 84.6085 38.7881 84.6085 38.703C84.6085 38.6812 84.5942 38.6594 84.5871 38.6245L84.5885 38.6259ZM89.8936 38.6885V38.2304C89.8936 38.1599 89.865 38.1184 89.7958 38.1184H88.1951C87.9797 38.1184 87.7928 38.1039 87.6616 38.0748C87.536 38.0552 87.4262 38.0043 87.362 37.941C87.2878 37.8778 87.2321 37.8007 87.2107 37.688C87.1893 37.5877 87.1751 37.4684 87.1751 37.3128V35.9968H89.7302C89.773 35.9968 89.8065 35.9844 89.8344 35.9416C89.8686 35.9052 89.8893 35.8645 89.8893 35.8216V35.4682C89.8893 35.4268 89.8679 35.3926 89.8344 35.3497C89.8058 35.3133 89.7716 35.293 89.7302 35.293H87.1765V34.0773C87.1765 33.9231 87.1908 33.7814 87.2107 33.6607C87.2321 33.5487 87.2863 33.4498 87.3627 33.3844C87.4269 33.3138 87.536 33.2579 87.6623 33.2295C87.7928 33.1932 87.9797 33.1735 88.1944 33.1735H89.7944C89.8636 33.1735 89.8914 33.1372 89.8914 33.0601V32.602C89.8914 32.5824 89.8843 32.5461 89.87 32.5112C89.8501 32.4893 89.8294 32.4675 89.808 32.4675H88.183C87.6009 32.4675 87.1629 32.5875 86.894 32.8347C86.6172 33.0746 86.486 33.4695 86.486 34.0344V37.2539C86.486 37.8254 86.6172 38.2282 86.894 38.4682C87.1651 38.7081 87.6002 38.8215 88.183 38.8215H89.8101C89.8315 38.8215 89.8529 38.8012 89.8722 38.7779C89.8864 38.759 89.8936 38.7307 89.8936 38.6885ZM95.4062 38.6885V38.2304C95.4062 38.1599 95.3705 38.1184 95.3092 38.1184H93.7085C93.4945 38.1184 93.3069 38.1039 93.1756 38.0748C93.0508 38.0552 92.9402 38.0043 92.8774 37.941C92.8025 37.8778 92.7462 37.8007 92.7248 37.688C92.7034 37.5877 92.6905 37.4684 92.6905 37.3128V35.9968H95.2443C95.2871 35.9968 95.3206 35.9844 95.3491 35.9416C95.3848 35.9052 95.4048 35.8645 95.4048 35.8216V35.4682C95.4048 35.4268 95.3834 35.3926 95.3491 35.3497C95.3206 35.3133 95.2871 35.293 95.245 35.293H92.6913V34.0773C92.6913 33.9231 92.7055 33.7814 92.7255 33.6607C92.7469 33.5487 92.8018 33.4498 92.8782 33.3844C92.9409 33.3138 93.0515 33.2579 93.1778 33.2295C93.3076 33.1932 93.4952 33.1735 93.7099 33.1735H95.3106C95.3727 33.1735 95.4076 33.1372 95.4076 33.0601V32.602C95.4076 32.5824 95.4005 32.5461 95.3862 32.5112C95.3663 32.4893 95.3449 32.4675 95.3242 32.4675H93.6956C93.1143 32.4675 92.677 32.5875 92.4074 32.8347C92.1292 33.0746 91.9986 33.4702 91.9986 34.0359V37.2547C91.9986 37.8254 92.1306 38.229 92.4081 38.4689C92.6791 38.7088 93.1143 38.8215 93.6964 38.8215H95.3235C95.3449 38.8215 95.3663 38.8019 95.3877 38.7779C95.4005 38.7583 95.4076 38.7299 95.4076 38.6878L95.4062 38.6885ZM100.974 34.1922C100.974 34.4118 100.931 34.6015 100.856 34.7302C100.78 34.8771 100.668 34.9847 100.517 35.0749C100.371 35.1599 100.185 35.2166 99.9687 35.2508C99.7476 35.2799 99.505 35.2944 99.2211 35.2944H98.2025V33.1764C98.2581 33.1764 98.3344 33.1764 98.4165 33.1546C98.5092 33.1328 98.5905 33.1183 98.6876 33.111C98.7781 33.0965 98.8752 33.0834 98.9729 33.0834H99.2211C99.7961 33.0834 100.225 33.1612 100.531 33.316C100.821 33.4716 100.973 33.7472 100.973 34.134V34.1922H100.974ZM101.819 38.6259L100.303 35.8652C100.496 35.8216 100.67 35.746 100.843 35.6602C101.015 35.5693 101.16 35.4566 101.285 35.3286C101.41 35.1934 101.506 35.0232 101.57 34.8487C101.631 34.6713 101.666 34.4736 101.666 34.2474V34.1907C101.666 33.8672 101.604 33.5901 101.48 33.372C101.355 33.1524 101.188 32.9758 100.973 32.8412C100.759 32.7067 100.495 32.6231 100.198 32.5526C99.8938 32.5039 99.5749 32.469 99.2418 32.469C99.1106 32.469 98.9722 32.4835 98.8409 32.4835C98.7025 32.4835 98.5627 32.4908 98.4322 32.4908C98.2945 32.4908 98.1633 32.5053 98.0448 32.5126C97.9136 32.5271 97.8023 32.5322 97.7188 32.5322C97.629 32.5526 97.574 32.5809 97.5533 32.6028C97.5248 32.6246 97.5105 32.6667 97.5105 32.7235V38.6594C97.5105 38.703 97.5248 38.7445 97.5462 38.7801C97.5676 38.8092 97.6083 38.8223 97.6504 38.8223H98.0655C98.1083 38.8223 98.1418 38.8077 98.164 38.7663C98.1832 38.7299 98.2053 38.6885 98.2053 38.6449V35.9983H99.4301L100.989 38.7016C101.017 38.767 101.052 38.8084 101.086 38.8084C101.106 38.823 101.147 38.823 101.203 38.823H101.729C101.799 38.823 101.84 38.7881 101.84 38.703C101.84 38.6812 101.826 38.6594 101.818 38.6245L101.819 38.6259ZM109.32 35.9983H107.477L108.233 33.239C108.255 33.1401 108.309 33.0834 108.397 33.0834C108.474 33.0834 108.524 33.1415 108.559 33.2397L109.32 35.9997V35.9983ZM110.774 38.6259L109.243 33.1117C109.196 32.9779 109.153 32.8791 109.091 32.7874C109.022 32.7104 108.961 32.6464 108.884 32.6035C108.8 32.5548 108.725 32.5271 108.634 32.5039C108.552 32.4835 108.475 32.469 108.399 32.469C108.324 32.469 108.246 32.4835 108.156 32.5039C108.073 32.5257 107.983 32.5526 107.907 32.6042C107.823 32.6478 107.761 32.7104 107.691 32.802C107.629 32.8856 107.587 32.9859 107.554 33.1117L106.016 38.6259C106.002 38.6456 106.002 38.6696 106.002 38.6899C106.002 38.7808 106.05 38.823 106.147 38.823H106.646C106.666 38.823 106.694 38.8084 106.729 38.7881C106.748 38.7663 106.77 38.7314 106.783 38.6878L107.325 36.7057H109.48L110.012 38.6907C110.02 38.7343 110.041 38.7677 110.061 38.7903C110.082 38.8106 110.117 38.8266 110.159 38.8266H110.65C110.734 38.8266 110.789 38.783 110.789 38.6928C110.789 38.6696 110.774 38.6492 110.774 38.6274L110.774 38.6259ZM116.82 38.5831V32.6318C116.82 32.5882 116.8 32.554 116.777 32.5257C116.757 32.4893 116.722 32.4697 116.68 32.4697H116.264C116.221 32.4697 116.181 32.4893 116.161 32.5257C116.141 32.5533 116.125 32.589 116.125 32.6318V37.6647V37.6298L113.681 32.6318C113.645 32.5824 113.611 32.5315 113.571 32.5119C113.53 32.4901 113.468 32.4697 113.357 32.4697H112.9C112.837 32.4697 112.775 32.4893 112.727 32.533C112.685 32.5817 112.665 32.6457 112.665 32.7096V38.7227C112.665 38.7677 112.679 38.8012 112.7 38.8084C112.72 38.823 112.762 38.823 112.803 38.823H113.22C113.262 38.823 113.294 38.8085 113.317 38.7794C113.337 38.7445 113.36 38.703 113.36 38.6594V33.6476V33.6694L115.867 38.6878C115.914 38.7779 115.998 38.8201 116.129 38.8201H116.606C116.662 38.8201 116.71 38.7997 116.759 38.7568C116.801 38.7096 116.821 38.6456 116.821 38.5823L116.82 38.5831ZM122.333 36.1757C122.333 36.5639 122.278 36.8809 122.194 37.1209C122.098 37.3754 121.966 37.5739 121.802 37.7287C121.642 37.8843 121.447 37.9832 121.234 38.0537C121.013 38.117 120.777 38.1373 120.513 38.1373H119.987C119.833 38.1373 119.696 38.1373 119.566 38.117V33.1757C119.702 33.1394 119.848 33.119 119.994 33.1117C120.14 33.0972 120.313 33.0826 120.515 33.0826C120.777 33.0826 121.013 33.119 121.235 33.1888C121.449 33.2528 121.643 33.3509 121.802 33.4942C121.966 33.649 122.101 33.8461 122.196 34.1006C122.28 34.3536 122.335 34.6721 122.335 35.0531V36.1757H122.333ZM123.025 35.0814C123.025 34.6291 122.963 34.2474 122.838 33.9159C122.72 33.5836 122.561 33.3153 122.346 33.0972C122.125 32.8791 121.855 32.7235 121.551 32.6246C121.251 32.5257 120.906 32.4697 120.538 32.4697C120.374 32.4697 120.22 32.4842 120.067 32.4842C119.923 32.4915 119.769 32.5046 119.639 32.5046C119.506 32.5119 119.389 32.5264 119.277 32.5264C119.174 32.5337 119.097 32.5461 119.042 32.5533C118.924 32.5824 118.868 32.6457 118.868 32.7656V38.5263C118.868 38.6601 118.924 38.7227 119.042 38.7299C119.097 38.759 119.173 38.7663 119.277 38.7663C119.388 38.7808 119.505 38.7881 119.638 38.7881C119.768 38.8026 119.921 38.8077 120.066 38.8077C120.22 38.8223 120.373 38.8223 120.537 38.8223C120.905 38.8223 121.25 38.7801 121.55 38.6667C121.854 38.5678 122.124 38.4122 122.345 38.1941C122.561 37.9832 122.719 37.7069 122.837 37.3754C122.962 37.0438 123.024 36.6628 123.024 36.2098V35.0828L123.025 35.0814ZM131.224 38.6885V38.2304C131.224 38.1599 131.19 38.1184 131.127 38.1184H129.526C129.312 38.1184 129.125 38.1039 128.993 38.0748C128.868 38.0552 128.757 38.0043 128.695 37.941C128.62 37.8778 128.564 37.8007 128.541 37.688C128.521 37.5877 128.506 37.4684 128.506 37.3128V35.9968H131.061C131.104 35.9968 131.136 35.9844 131.165 35.9416C131.201 35.9052 131.221 35.8645 131.221 35.8216V35.4682C131.221 35.4268 131.199 35.3926 131.165 35.3497C131.136 35.3133 131.103 35.293 131.061 35.293H128.506V34.0773C128.506 33.9231 128.522 33.7814 128.542 33.6607C128.563 33.5487 128.618 33.4498 128.695 33.3844C128.757 33.3138 128.868 33.2579 128.993 33.2295C129.124 33.1932 129.312 33.1735 129.526 33.1735H131.127C131.19 33.1735 131.225 33.1372 131.225 33.0601V32.602C131.225 32.5824 131.219 32.5461 131.206 32.5112C131.185 32.4893 131.163 32.4675 131.142 32.4675H129.516C128.934 32.4675 128.497 32.5875 128.228 32.8347C127.95 33.0746 127.819 33.4695 127.819 34.0344V37.2539C127.819 37.8254 127.951 38.2282 128.227 38.4682C128.497 38.7081 128.934 38.8215 129.514 38.8215H131.142C131.163 38.8215 131.185 38.8012 131.206 38.7779C131.219 38.759 131.225 38.7307 131.225 38.6885H131.224ZM136.793 36.1757C136.793 36.5639 136.737 36.8809 136.655 37.1209C136.558 37.3754 136.427 37.5739 136.261 37.7287C136.101 37.8843 135.909 37.9832 135.694 38.0537C135.473 38.117 135.237 38.1373 134.981 38.1373H134.447C134.295 38.1373 134.157 38.1373 134.025 38.117V33.1757C134.164 33.1394 134.309 33.119 134.461 33.1117C134.599 33.0972 134.773 33.0826 134.982 33.0826C135.237 33.0826 135.472 33.119 135.694 33.1888C135.909 33.2528 136.102 33.3509 136.262 33.4942C136.429 33.649 136.561 33.8461 136.657 34.1006C136.739 34.3536 136.795 34.6721 136.795 35.0531V36.1757H136.793ZM137.485 35.0814C137.485 34.6291 137.423 34.2474 137.3 33.9159C137.181 33.5836 137.021 33.3153 136.807 33.0972C136.586 32.8791 136.317 32.7235 136.018 32.6246C135.713 32.5257 135.367 32.4697 135 32.4697C134.834 32.4697 134.682 32.4842 134.529 32.4842C134.383 32.4915 134.229 32.5046 134.099 32.5046C133.967 32.5119 133.849 32.5264 133.738 32.5264C133.635 32.5337 133.558 32.5461 133.503 32.5533C133.385 32.5824 133.33 32.6457 133.33 32.7656V38.5263C133.33 38.6601 133.385 38.7227 133.503 38.7299C133.558 38.759 133.634 38.7663 133.738 38.7663C133.848 38.7808 133.966 38.7881 134.099 38.7881C134.23 38.8026 134.383 38.8077 134.529 38.8077C134.682 38.8223 134.833 38.8223 135 38.8223C135.367 38.8223 135.713 38.7801 136.018 38.6667C136.318 38.5678 136.587 38.4122 136.81 38.1941C137.024 37.9832 137.183 37.7069 137.3 37.3754C137.425 37.0438 137.487 36.6628 137.487 36.2098L137.486 35.0828L137.485 35.0814ZM143.691 36.4709V32.6318C143.691 32.5882 143.671 32.5475 143.648 32.5126C143.613 32.4908 143.579 32.469 143.55 32.469H143.133C143.093 32.469 143.058 32.4879 143.036 32.525C143.008 32.554 142.993 32.589 142.993 32.6304V36.5058C142.993 36.7879 142.973 37.0365 142.931 37.2474C142.883 37.451 142.799 37.6284 142.689 37.776C142.585 37.9178 142.432 38.0247 142.259 38.0945C142.085 38.1715 141.869 38.1999 141.607 38.1999C141.336 38.1999 141.122 38.1723 140.949 38.0945C140.776 38.0217 140.624 37.9178 140.514 37.776C140.41 37.6291 140.333 37.4524 140.286 37.2328C140.243 37.022 140.223 36.7806 140.223 36.5058V32.6304C140.223 32.5882 140.201 32.5548 140.18 32.5257C140.146 32.4893 140.111 32.469 140.082 32.469H139.666C139.624 32.469 139.591 32.4886 139.569 32.5126C139.54 32.549 139.526 32.5897 139.526 32.6333V36.4723C139.526 37.2903 139.699 37.8829 140.066 38.2573C140.433 38.631 140.945 38.8223 141.604 38.8223C142.254 38.8223 142.759 38.6318 143.127 38.2573C143.503 37.8836 143.69 37.2903 143.69 36.4716L143.691 36.4709ZM149.418 38.5692V38.258C149.418 38.1802 149.363 38.1373 149.281 38.1373H149.245C149.171 38.1519 149.085 38.1592 148.974 38.1592C148.871 38.1737 148.746 38.1781 148.628 38.1781C148.497 38.1926 148.38 38.1999 148.255 38.1999H147.88C147.666 38.1999 147.488 38.1708 147.314 38.0995C147.141 38.0356 146.988 37.9236 146.858 37.7745C146.725 37.6189 146.622 37.4212 146.545 37.1681C146.47 36.9209 146.435 36.6097 146.435 36.236V35.0509C146.435 34.6822 146.47 34.3725 146.545 34.1187C146.621 33.8657 146.725 33.6679 146.857 33.5131C146.988 33.364 147.141 33.2513 147.313 33.1873C147.487 33.1161 147.668 33.0819 147.88 33.0819C147.991 33.0819 148.124 33.0965 148.255 33.0965C148.38 33.1124 148.51 33.1183 148.644 33.1183C148.775 33.1328 148.893 33.1386 148.998 33.1386C149.107 33.1532 149.19 33.1604 149.281 33.1604H149.301C149.343 33.1604 149.365 33.1604 149.376 33.1386C149.391 33.1168 149.398 33.095 149.398 33.0746V32.6871C149.398 32.6304 149.355 32.602 149.265 32.5853C149.085 32.5664 148.871 32.5417 148.627 32.5104C148.392 32.4886 148.129 32.4668 147.871 32.4668C147.61 32.4668 147.353 32.5104 147.09 32.586C146.833 32.6624 146.591 32.7991 146.398 32.9954C146.204 33.1932 146.044 33.4622 145.927 33.7865C145.795 34.1187 145.738 34.5499 145.738 35.0574V36.228C145.738 36.737 145.793 37.1674 145.927 37.4931C146.044 37.824 146.202 38.093 146.397 38.2908C146.59 38.4871 146.833 38.6289 147.089 38.7067C147.353 38.7845 147.61 38.8194 147.872 38.8194H148.323C148.453 38.8194 148.57 38.8048 148.682 38.799C148.793 38.799 148.891 38.7845 148.973 38.7626C149.064 38.7554 149.162 38.7437 149.245 38.719C149.293 38.719 149.319 38.6994 149.363 38.6754C149.398 38.6609 149.42 38.626 149.42 38.5692H149.418ZM154.108 35.9983H152.273L153.029 33.239C153.049 33.1401 153.103 33.0834 153.195 33.0834C153.27 33.0834 153.32 33.1415 153.353 33.2397L154.107 35.9997L154.108 35.9983ZM155.569 38.6259L154.038 33.1117C153.989 32.9779 153.947 32.8791 153.885 32.7874C153.814 32.7104 153.753 32.6464 153.677 32.6035C153.586 32.5548 153.518 32.5271 153.427 32.5039C153.345 32.4835 153.268 32.469 153.192 32.469C153.116 32.469 153.039 32.4835 152.949 32.5039C152.866 32.5257 152.775 32.5526 152.7 32.6042C152.618 32.6478 152.546 32.7104 152.486 32.802C152.422 32.8856 152.374 32.9859 152.347 33.1117L150.809 38.6259C150.795 38.6456 150.795 38.6696 150.795 38.6899C150.795 38.7808 150.843 38.823 150.941 38.823H151.441C151.461 38.823 151.488 38.8084 151.523 38.7881C151.543 38.7663 151.564 38.7314 151.578 38.6878L152.119 36.7057H154.273L154.799 38.6907C154.813 38.7343 154.835 38.7677 154.855 38.7903C154.876 38.8106 154.91 38.8266 154.952 38.8266H155.445C155.527 38.8266 155.582 38.783 155.582 38.6928C155.584 38.6696 155.57 38.6492 155.57 38.6274L155.569 38.6259ZM160.617 33.0347V32.6326C160.617 32.5271 160.562 32.4704 160.465 32.4704H156.53C156.483 32.4704 156.44 32.4901 156.405 32.5141C156.376 32.5482 156.362 32.5897 156.362 32.6333V33.0361C156.362 33.0783 156.376 33.1204 156.405 33.1423C156.44 33.1641 156.48 33.1786 156.53 33.1786H158.149V38.6623C158.149 38.7059 158.165 38.7474 158.186 38.783C158.205 38.8121 158.248 38.8266 158.289 38.8266H158.705C158.748 38.8266 158.78 38.8121 158.803 38.783C158.823 38.7466 158.844 38.7067 158.844 38.6623V33.1779H160.466C160.562 33.1764 160.616 33.1343 160.616 33.0354L160.617 33.0347ZM162.972 38.6463V32.6333C162.972 32.5897 162.952 32.5555 162.929 32.5264C162.91 32.4901 162.874 32.4697 162.833 32.4697H162.416C162.373 32.4697 162.334 32.4901 162.313 32.5264C162.292 32.5555 162.278 32.5904 162.278 32.6326V38.647C162.278 38.7037 162.292 38.7467 162.313 38.7823C162.335 38.8114 162.376 38.8244 162.417 38.8244H162.835C162.876 38.8244 162.91 38.8099 162.932 38.7823C162.951 38.7459 162.972 38.7037 162.972 38.647V38.6463ZM169.176 36.1968C169.176 36.5719 169.143 36.8817 169.08 37.1347C169.016 37.3892 168.913 37.6015 168.795 37.7505C168.678 37.9054 168.539 38.0268 168.365 38.0959C168.193 38.1723 168.006 38.2013 167.79 38.2013C167.576 38.2013 167.389 38.1723 167.217 38.0959C167.043 38.0247 166.89 37.904 166.772 37.7505C166.655 37.6015 166.564 37.3899 166.501 37.1354C166.439 36.8809 166.404 36.5719 166.404 36.1975V35.0952C166.404 34.7273 166.439 34.4241 166.502 34.1704C166.564 33.9159 166.655 33.7036 166.785 33.5472C166.903 33.3924 167.042 33.2724 167.215 33.1946C167.388 33.1306 167.576 33.0826 167.789 33.0826C168.005 33.0826 168.19 33.1314 168.364 33.1953C168.537 33.2731 168.676 33.3931 168.794 33.5472C168.911 33.7036 169.015 33.9144 169.077 34.1696C169.14 34.4227 169.173 34.7273 169.173 35.0945V36.196H169.175L169.176 36.1968ZM169.868 35.1032C169.868 34.6437 169.815 34.2474 169.718 33.9152C169.607 33.5836 169.469 33.3088 169.287 33.0826C169.099 32.8791 168.885 32.7213 168.622 32.6246C168.365 32.525 168.096 32.4683 167.79 32.4683C167.486 32.4683 167.209 32.525 166.961 32.6246C166.697 32.7242 166.483 32.8791 166.294 33.0826C166.113 33.308 165.968 33.5843 165.865 33.9159C165.754 34.2482 165.711 34.643 165.711 35.1032V36.1888C165.711 36.6468 165.754 37.0562 165.865 37.3884C165.968 37.7207 166.113 37.9956 166.294 38.1999C166.483 38.4253 166.696 38.5801 166.96 38.6798C167.208 38.7794 167.485 38.8201 167.789 38.8201C168.094 38.8201 168.364 38.7765 168.621 38.679C168.883 38.5794 169.099 38.4245 169.284 38.1992C169.467 37.9941 169.605 37.7171 169.716 37.3877C169.813 37.0547 169.867 36.6461 169.867 36.188V35.101L169.868 35.1032ZM176.075 38.5831V32.6318C176.075 32.5882 176.054 32.554 176.032 32.5257C176.013 32.4893 175.977 32.4697 175.935 32.4697H175.518C175.475 32.4697 175.436 32.4893 175.415 32.5257C175.395 32.5533 175.379 32.589 175.379 32.6318V37.6647V37.6298L172.936 32.6318C172.901 32.5824 172.865 32.5315 172.826 32.5119C172.784 32.4901 172.722 32.4697 172.612 32.4697H172.154C172.092 32.4697 172.028 32.4893 171.981 32.533C171.938 32.5817 171.918 32.6457 171.918 32.7096V38.7227C171.918 38.7677 171.933 38.8012 171.954 38.8084C171.973 38.823 172.015 38.823 172.056 38.823H172.474C172.515 38.823 172.549 38.8085 172.571 38.7794C172.592 38.7445 172.614 38.7037 172.614 38.6594V33.6476V33.6694L175.12 38.6878C175.168 38.7779 175.252 38.8201 175.384 38.8201H175.862C175.917 38.8201 175.965 38.7997 176.014 38.7568C176.054 38.7096 176.075 38.6456 176.075 38.5823V38.5831ZM184.546 38.5692V38.258C184.546 38.1802 184.49 38.1373 184.407 38.1373H184.372C184.296 38.1519 184.213 38.1592 184.101 38.1592C183.998 38.1737 183.873 38.1781 183.756 38.1781C183.625 38.1926 183.506 38.1999 183.382 38.1999H183.008C182.792 38.1999 182.613 38.1708 182.44 38.0995C182.266 38.0356 182.113 37.9236 181.982 37.7745C181.852 37.6189 181.747 37.4212 181.67 37.1681C181.596 36.9209 181.561 36.6097 181.561 36.236V35.0509C181.561 34.6822 181.597 34.3725 181.671 34.1187C181.747 33.8657 181.853 33.6679 181.983 33.5131C182.115 33.364 182.267 33.2513 182.44 33.1873C182.613 33.1161 182.794 33.0819 183.009 33.0819C183.119 33.0819 183.251 33.0965 183.382 33.0965C183.507 33.1124 183.638 33.1183 183.77 33.1183C183.901 33.1328 184.019 33.1386 184.123 33.1386C184.233 33.1532 184.317 33.1604 184.406 33.1604H184.427C184.469 33.1604 184.489 33.1604 184.502 33.1386C184.515 33.1168 184.522 33.095 184.522 33.0746V32.6871C184.522 32.6304 184.48 32.602 184.391 32.5853C184.211 32.5664 183.997 32.5417 183.754 32.5104C183.519 32.4886 183.255 32.4668 182.998 32.4668C182.734 32.4668 182.479 32.5104 182.215 32.586C181.96 32.6624 181.717 32.7991 181.522 32.9954C181.329 33.1932 181.17 33.4622 181.051 33.7865C180.921 34.1187 180.866 34.5499 180.866 35.0574V36.228C180.866 36.737 180.92 37.1674 181.051 37.4931C181.17 37.824 181.329 38.093 181.522 38.2908C181.717 38.4871 181.96 38.6289 182.216 38.7067C182.48 38.7845 182.735 38.8194 182.999 38.8194H183.45C183.582 38.8194 183.7 38.8048 183.811 38.799C183.921 38.799 184.018 38.7845 184.102 38.7626C184.192 38.7554 184.289 38.7437 184.373 38.719C184.42 38.719 184.448 38.6994 184.49 38.6754C184.524 38.6609 184.547 38.626 184.547 38.5692H184.546ZM189.787 38.6885V38.2304C189.787 38.1599 189.752 38.1184 189.69 38.1184H188.09C187.874 38.1184 187.689 38.1039 187.557 38.0748C187.432 38.0552 187.321 38.0043 187.259 37.941C187.182 37.8778 187.127 37.8007 187.105 37.688C187.086 37.5877 187.071 37.4684 187.071 37.3128V35.9968H189.625C189.668 35.9968 189.7 35.9844 189.728 35.9416C189.764 35.9052 189.784 35.8645 189.784 35.8216V35.4682C189.784 35.4268 189.762 35.3926 189.728 35.3497C189.701 35.3133 189.666 35.293 189.625 35.293H187.071V34.0773C187.071 33.9231 187.085 33.7814 187.104 33.6607C187.124 33.5487 187.179 33.4498 187.258 33.3844C187.321 33.3138 187.431 33.2579 187.556 33.2295C187.687 33.1932 187.873 33.1735 188.09 33.1735H189.69C189.752 33.1735 189.788 33.1372 189.788 33.0601V32.602C189.788 32.5824 189.78 32.5461 189.767 32.5112C189.747 32.4893 189.725 32.4675 189.705 32.4675H188.077C187.496 32.4675 187.059 32.5875 186.79 32.8347C186.513 33.0746 186.382 33.4702 186.382 34.0359V37.2547C186.382 37.8254 186.512 38.229 186.79 38.4689C187.061 38.7088 187.496 38.8215 188.077 38.8215H189.706C189.726 38.8215 189.747 38.8019 189.768 38.7779C189.781 38.7583 189.788 38.7299 189.788 38.6878L189.787 38.6885ZM196.048 38.5831V32.6318C196.048 32.5882 196.027 32.554 196.005 32.5257C195.986 32.4893 195.951 32.4697 195.908 32.4697H195.491C195.45 32.4697 195.41 32.4893 195.388 32.5257C195.368 32.5533 195.354 32.589 195.354 32.6318V37.6647V37.6298L192.91 32.6318C192.874 32.5824 192.838 32.5315 192.8 32.5119C192.758 32.4901 192.696 32.4683 192.586 32.4683H192.128C192.066 32.4683 192.002 32.4886 191.955 32.5322C191.912 32.5817 191.892 32.6449 191.892 32.7082V38.7227C191.892 38.7663 191.907 38.8004 191.928 38.8077C191.948 38.8223 191.99 38.8223 192.03 38.8223H192.448C192.489 38.8223 192.523 38.8077 192.545 38.7786C192.567 38.7445 192.588 38.703 192.588 38.6594V33.6476V33.6694L195.095 38.6878C195.142 38.7779 195.227 38.8201 195.359 38.8201H195.835C195.891 38.8201 195.939 38.7997 195.989 38.7568C196.028 38.7096 196.05 38.6456 196.05 38.5823L196.048 38.5831ZM201.949 33.0347V32.6326C201.949 32.5271 201.893 32.4704 201.796 32.4704H197.862C197.814 32.4704 197.772 32.4901 197.736 32.5141C197.71 32.5482 197.695 32.5897 197.695 32.6333V33.0361C197.695 33.0783 197.709 33.1204 197.737 33.1423C197.773 33.1641 197.812 33.1786 197.863 33.1786H199.482V38.6623C199.482 38.7059 199.497 38.7474 199.518 38.783C199.539 38.8121 199.581 38.8266 199.622 38.8266H200.038C200.081 38.8266 200.114 38.8121 200.136 38.783C200.156 38.7466 200.178 38.7067 200.178 38.6623V33.1779H201.798C201.894 33.1764 201.95 33.1343 201.95 33.0354L201.949 33.0347ZM207.019 38.6885V38.2304C207.019 38.1599 206.99 38.1184 206.92 38.1184H205.321C205.105 38.1184 204.919 38.1039 204.787 38.0748C204.661 38.0552 204.55 38.0043 204.488 37.941C204.414 37.8778 204.357 37.8007 204.336 37.688C204.314 37.5877 204.3 37.4684 204.3 37.3128V35.9968H206.855C206.898 35.9968 206.932 35.9844 206.959 35.9416C206.995 35.9052 207.016 35.8645 207.016 35.8216V35.4682C207.016 35.4268 206.995 35.3926 206.959 35.3497C206.933 35.3133 206.898 35.293 206.856 35.293H204.304V34.0773C204.304 33.9231 204.319 33.7814 204.34 33.6607C204.359 33.5487 204.415 33.4498 204.491 33.3844C204.554 33.3138 204.665 33.2579 204.791 33.2295C204.922 33.1932 205.109 33.1735 205.324 33.1735H206.923C206.992 33.1735 207.021 33.1372 207.021 33.0601V32.602C207.021 32.5824 207.014 32.5461 207.001 32.5112C206.976 32.4893 206.955 32.4675 206.935 32.4675H205.309C204.726 32.4675 204.29 32.5875 204.02 32.8347C203.744 33.0746 203.614 33.4702 203.614 34.0359V37.2547C203.614 37.8254 203.742 38.229 204.02 38.4689C204.292 38.7088 204.727 38.8215 205.309 38.8215H206.937C206.957 38.8215 206.978 38.8019 206.999 38.7779C207.012 38.7583 207.019 38.7299 207.019 38.6878V38.6885ZM212.587 34.1922C212.587 34.4118 212.544 34.6015 212.468 34.7302C212.393 34.8771 212.28 34.9847 212.129 35.0749C211.976 35.1599 211.797 35.2166 211.582 35.2508C211.361 35.2799 211.111 35.2944 210.834 35.2944H209.816V33.1764C209.871 33.1764 209.947 33.1764 210.031 33.1546C210.122 33.1328 210.204 33.1183 210.302 33.111C210.393 33.0965 210.49 33.0834 210.585 33.0834H210.835C211.409 33.0834 211.838 33.1612 212.144 33.316C212.435 33.4716 212.588 33.7472 212.588 34.134V34.1922H212.587ZM213.432 38.6259L211.916 35.8652C212.108 35.8216 212.281 35.746 212.454 35.6602C212.627 35.5693 212.773 35.4566 212.898 35.3286C213.016 35.1934 213.119 35.0232 213.181 34.8487C213.244 34.6713 213.28 34.4736 213.28 34.2474V34.1907C213.28 33.8672 213.215 33.5901 213.091 33.372C212.966 33.1524 212.801 32.9758 212.586 32.8412C212.372 32.7067 212.108 32.6231 211.804 32.5526C211.504 32.5039 211.186 32.469 210.855 32.469C210.723 32.469 210.584 32.4835 210.453 32.4835C210.315 32.4835 210.175 32.4908 210.045 32.4908C209.9 32.4908 209.774 32.5053 209.657 32.5126C209.525 32.5271 209.415 32.5322 209.331 32.5322C209.241 32.5526 209.186 32.5809 209.165 32.6028C209.138 32.6246 209.122 32.6667 209.122 32.7235V38.6594C209.122 38.703 209.138 38.7445 209.158 38.7801C209.179 38.8092 209.22 38.8223 209.262 38.8223H209.678C209.719 38.8223 209.754 38.8077 209.776 38.7663C209.796 38.7299 209.817 38.6885 209.817 38.6449V35.9983H211.043L212.602 38.7016C212.629 38.767 212.665 38.8084 212.699 38.8084C212.72 38.823 212.762 38.823 212.817 38.823H213.343C213.413 38.823 213.454 38.7881 213.454 38.703C213.452 38.6812 213.438 38.6594 213.432 38.6245V38.6259Z" fill="#3661F7"/>
</svg>
