<svg width="27" height="31" viewBox="0 0 27 31" fill="none" xmlns="http://www.w3.org/2000/svg">
<path d="M13.4995 24.2609C18.9967 24.2609 23.4531 19.5843 23.4531 13.8153C23.4531 8.04631 18.9967 3.36963 13.4995 3.36963C8.00227 3.36963 3.5459 8.04631 3.5459 13.8153C3.5459 19.5843 8.00227 24.2609 13.4995 24.2609Z" fill="#0739E5"/>
<path d="M23.0459 4.01562C20.4962 1.42612 17.106 0 13.5 0C9.89401 0 6.50383 1.42612 3.95407 4.01562C1.40424 6.60524 0 10.0482 0 13.7104C0 20.1712 4.44747 25.749 10.626 27.1083L13.5 31L16.3741 27.1082C22.5525 25.7489 27 20.1712 27 13.7104C27 10.0482 25.5958 6.60524 23.0459 4.01562ZM13.5 3.57926C18.9677 3.57926 23.4159 8.09688 23.4159 13.6497C23.4159 19.2025 18.9677 23.7202 13.5 23.7202C8.03232 23.7202 3.58407 19.2025 3.58407 13.6497C3.58407 8.09688 8.03232 3.57926 13.5 3.57926Z" fill="#3661F7"/>
</svg>
