<svg width="12" height="12" viewBox="0 0 12 12" fill="none" xmlns="http://www.w3.org/2000/svg">
<g clip-path="url(#clip0)">
<path d="M6 0.000976562C2.6916 0.000976562 0 2.69247 0 6.00065C0 9.3089 2.6916 12.0004 6 12.0004C9.3084 12.0004 12 9.3089 12 6.00065C12 2.69247 9.3084 0.000976562 6 0.000976562ZM6 10.9095C3.29313 10.9095 1.09091 8.70741 1.09091 6.00069C1.09091 3.29396 3.29313 1.09189 6 1.09189C8.70687 1.09189 10.9091 3.29396 10.9091 6.00065C10.9091 8.70745 8.70687 10.9095 6 10.9095Z" fill="#F87E1B"/>
<path d="M6.00004 4.72754C5.69881 4.72754 5.45459 4.97176 5.45459 5.27299V8.90874C5.45459 9.20998 5.69881 9.45419 6.00004 9.45419C6.30128 9.45419 6.5455 9.20998 6.5455 8.90874V5.27299C6.5455 4.97179 6.30128 4.72754 6.00004 4.72754Z" fill="#F87E1B"/>
<path d="M6.00004 2.54578C5.85641 2.54578 5.71601 2.60396 5.61423 2.70541C5.51277 2.80687 5.45459 2.94759 5.45459 3.09123C5.45459 3.23487 5.51277 3.37523 5.61423 3.47705C5.71568 3.5785 5.85641 3.63669 6.00004 3.63669C6.14368 3.63669 6.28404 3.5785 6.38583 3.47705C6.48728 3.37523 6.5455 3.23487 6.5455 3.09123C6.5455 2.94759 6.48728 2.80687 6.38583 2.70541C6.28404 2.60392 6.14368 2.54578 6.00004 2.54578Z" fill="#F87E1B"/>
</g>
<defs>
<clipPath id="clip0">
<rect width="12" height="12" fill="white"/>
</clipPath>
</defs>
</svg>
