<svg width="421" height="406" viewBox="0 0 421 406" fill="none" xmlns="http://www.w3.org/2000/svg">
<g opacity="0.3" clip-path="url(#clip0)">
<path d="M290.603 306.206L275.48 298.642C242.057 281.826 237.138 247.957 237.63 237.71V98.8428C237.525 67.4297 217.744 41.0161 195.949 31.408L181.844 24.3572L1.44922 114.553L1.55737 114.678L15.4846 121.642C37.2791 131.25 57.0605 157.664 57.1652 189.077V327.948C56.6732 338.191 61.5924 372.064 95.015 388.88L110.139 396.443L290.603 306.206Z" fill="white"/>
<path fill-rule="evenodd" clip-rule="evenodd" d="M182.051 23L182.452 23.1291L196.526 30.166C196.69 30.2392 196.854 30.3125 197.018 30.3858C205.53 34.2513 213.091 40.2555 219.29 47.2994C231.717 61.415 238.915 80.2998 238.995 98.8393V237.742C238.632 245.731 240.673 253.947 243.454 261.235C249.374 276.753 260.936 289.767 276.088 297.414L291.212 304.974C291.997 305.571 292.356 306.565 291.212 307.43L110.747 397.664C110.482 397.748 110.234 397.895 109.519 397.664L94.3916 390.101C74.1322 379.875 59.3049 359.766 56.2138 335.899C55.8824 333.328 55.68 330.728 55.7742 328.136L55.7847 327.913V189.08C55.687 166.972 45.3427 144.996 28.2058 131.114C24.1379 127.821 19.6757 125.005 14.8926 122.887L0.937462 115.91L0.410655 115.46C-0.00102164 114.766 -0.137084 114.057 0.82931 113.328L181.228 23.1291L181.629 23C181.768 23 181.911 23 182.051 23ZM4.44718 114.588L16.0648 120.396C29.6886 126.436 40.8143 137.687 48.2315 150.735C54.8357 162.353 58.4745 175.708 58.5304 189.07V327.976C58.2547 334.071 59.4549 340.277 61.2237 346.25C66.4674 363.945 78.9293 379.219 95.6231 387.648L110.133 394.901L287.527 306.206L274.856 299.87C254.269 289.477 239.571 268.586 236.654 245.459C236.333 242.909 236.141 240.337 236.246 237.773L236.249 237.679V98.8462C236.152 76.3087 225.392 53.7885 207.509 39.959C203.845 37.1261 199.879 34.6805 195.636 32.7756L195.357 32.6535L181.842 25.8922C122.71 55.4597 63.5786 85.0237 4.44718 114.588Z" fill="#CBD7E2"/>
<path d="M161.979 44.2188C171.846 48.7298 187.001 48.7577 196.923 44.292C213.467 57.3889 226.815 78.0914 226.93 102.143L227.254 244.241C226.843 252.81 230.715 280.092 256.197 295.572C254.875 296.022 253.619 296.542 252.447 297.128C242.291 302.208 242.291 310.452 252.447 315.531L133.162 375.172C123.062 370.12 106.692 370.092 96.5226 375.092C71.2987 359.581 67.454 332.473 67.8657 323.936L67.5413 181.837C67.8378 157.528 54.7932 136.7 38.375 123.313C39.5926 122.884 40.7544 122.399 41.8429 121.855C51.6812 116.936 51.9882 109.044 42.7674 103.94L161.979 44.2188Z" fill="#ECF1F8"/>
<path fill-rule="evenodd" clip-rule="evenodd" d="M162.547 42.9698C170.85 46.7551 180.839 47.1424 189.746 45.1782C192.013 44.6793 194.243 43.985 196.36 43.0396L196.842 42.921C197.494 43.0047 198.052 43.4338 198.558 43.8455C216.023 58.01 228.171 79.609 228.3 102.14L228.625 244.273C228.374 249.705 229.448 255.161 231.015 260.422C235.173 274.406 244.335 286.756 256.908 294.4L257.289 294.745C257.658 295.495 257.749 296.291 256.64 296.87C256.2 297.1 256.109 297.055 255.928 297.121C252.83 298.272 249.777 299.752 247.691 302.424C246.533 303.907 245.877 305.892 246.393 307.755C247.234 310.807 250.252 312.887 253.06 314.303L253.524 314.687L253.782 315.231V315.835L253.524 316.379L253.057 316.759L133.775 376.4L133.374 376.529C132.46 376.533 131.532 375.901 130.555 375.507C123.131 372.517 114.793 372.06 106.814 373.372C103.468 373.923 100.164 374.844 97.1184 376.323L96.6788 376.453C96.0927 376.425 95.5484 376.107 95.0495 375.79C79.4825 365.909 68.9185 348.992 66.7659 330.146C66.5322 328.098 66.3961 326.033 66.4833 323.974L66.4868 323.904L66.1624 181.831C66.3856 160.385 55.2983 139.309 38.4439 125.159C38.13 124.897 37.816 124.635 37.4985 124.377L37.1391 123.927L36.9961 123.369L37.0938 122.8L37.4182 122.322L37.9102 122.022C38.0218 121.984 38.1299 121.945 38.2381 121.904C41.2524 120.801 44.2109 119.357 46.3216 116.88C47.5776 115.407 48.3905 113.412 47.9404 111.465C47.2845 108.618 44.6296 106.556 42.0897 105.14L41.6466 104.749L41.4094 104.208L41.4234 103.619L41.685 103.089L42.1455 102.715L161.361 42.9907L161.748 42.8651L162.156 42.8582C162.285 42.8965 162.418 42.9314 162.547 42.9698ZM115.19 369.995C121.341 370.047 127.548 371.034 133.147 373.641L133.154 373.644L249.53 315.455C245.301 312.744 241.798 307.849 244.338 302.63C246.072 299.071 249.725 296.803 253.133 295.289C253.133 295.289 252.774 295.003 252.39 294.738C238.01 284.802 228.384 268.377 226.224 251.003C225.952 248.812 225.788 246.6 225.872 244.391L225.879 244.21C225.771 196.811 225.823 149.409 225.555 102.011C225.391 80.565 213.864 59.8381 196.831 45.9771L196.709 45.8794C196.598 45.9283 196.483 45.9736 196.371 46.019C187.621 49.5217 177.838 49.8811 168.666 47.8436C166.395 47.3378 164.162 46.654 162.017 45.7364L162.01 45.7329L45.568 104.076C45.6274 104.118 45.6867 104.163 45.7495 104.205C49.3638 106.86 52.0781 111.249 50.1977 115.819C48.5789 119.748 44.7063 122.151 41.0361 123.749C57.5381 137.983 68.5801 158.599 68.915 179.971C68.9255 180.595 68.9255 181.22 68.9185 181.844L69.243 323.967C68.9987 329.34 70.0593 334.8 71.6084 340.037C75.6519 353.681 84.489 365.826 96.5288 373.473C96.5288 373.473 97.9208 372.936 99.2082 372.479C104.204 370.696 109.563 369.991 114.873 369.991C114.977 369.991 115.086 369.995 115.19 369.995Z" fill="#CBD7E2"/>
<path fill-rule="evenodd" clip-rule="evenodd" d="M110.141 396.44L290.605 306.206V313.968L110.141 404.199V396.44Z" fill="white"/>
<path fill-rule="evenodd" clip-rule="evenodd" d="M291.072 304.915L291.543 305.208L291.86 305.662L291.972 306.206V313.968C291.909 314.3 291.906 314.673 291.211 315.196L110.747 405.43L110.21 405.573L109.662 405.493L109.191 405.2L108.873 404.747L108.762 404.202V396.44C108.825 396.108 108.828 395.735 109.522 395.212L289.987 304.978L290.524 304.835C290.705 304.863 290.887 304.891 291.072 304.915ZM111.507 397.288V401.98L289.226 313.121V308.428C229.987 338.048 170.747 367.668 111.507 397.288Z" fill="#CBD7E2"/>
<path d="M110.138 396.44L95.0145 388.876C61.5919 372.06 56.6727 338.191 57.1646 327.944V189.077C57.06 157.664 37.2785 131.25 15.4841 121.642L1.37891 114.588V122.35L12.3721 127.845C31.5081 137.003 50.1068 158.958 50.2219 189.094V327.965C50.5255 356.514 66.0959 381.895 91.899 395.079L110.138 404.199V396.44Z" fill="white"/>
<path fill-rule="evenodd" clip-rule="evenodd" d="M1.99252 113.36L16.0698 120.396C29.6935 126.436 40.8192 137.687 48.2364 150.735C54.8407 162.353 58.4795 175.708 58.5353 189.07V327.976C58.2597 334.071 59.4598 340.277 61.2286 346.25C66.4723 363.945 78.9342 379.219 95.6281 387.648L110.752 395.208C111.021 395.414 111.352 395.582 111.513 396.436V404.199L111.401 404.743L111.083 405.197L110.612 405.49L110.065 405.57L109.527 405.427L91.2846 396.304C76.1711 388.573 63.5557 375.978 56.2292 360.449C51.46 350.339 48.9865 339.164 48.8504 327.972V189.098C48.7911 176.392 45.1767 163.675 38.3282 152.947C31.8775 142.843 22.6043 134.341 11.9949 129.188L11.7646 129.08L0.760973 123.578C0.0701932 123.055 0.0632156 122.682 0.00390625 122.35V114.588L0.115547 114.043L0.433027 113.59L0.904013 113.297L1.45175 113.217C1.63317 113.265 1.8111 113.314 1.99252 113.36ZM2.74958 121.502L12.9717 126.613C35.1639 137.233 50.082 160.629 51.474 185.18C51.5473 186.485 51.5856 187.789 51.5926 189.094V327.958C51.7566 341.544 55.5349 355.042 62.6625 366.562C69.8076 378.11 80.2565 387.536 92.3731 393.781L92.5161 393.855L108.76 401.977V397.284L94.3931 390.101C74.1023 379.858 59.3063 359.766 56.2153 335.899C55.8838 333.328 55.6815 330.729 55.7757 328.136L55.7861 327.913V189.08C55.6884 166.972 45.3442 144.996 28.2073 131.114C24.1393 127.821 19.6772 125.005 14.8941 122.887L2.74958 116.81C2.74958 118.376 2.74958 119.939 2.74958 121.502Z" fill="#CBD7E2"/>
<path fill-rule="evenodd" clip-rule="evenodd" d="M130.284 185.536C130.284 182.553 128.344 181.098 125.958 182.291L93.205 198.667C90.8187 199.861 88.8789 203.252 88.8789 206.235C88.8789 209.218 90.8152 210.672 93.205 209.479L125.958 193.103C128.344 191.91 130.284 188.519 130.284 185.536Z" fill="white"/>
<path fill-rule="evenodd" clip-rule="evenodd" d="M127.609 180.501C128.973 180.522 130.264 181.297 130.962 182.553C132.556 185.421 131.408 189.331 129.325 191.99C128.593 192.925 127.696 193.748 126.643 194.296C115.74 199.85 104.757 205.24 93.8131 210.711C91.9396 211.632 89.4975 211.391 88.2729 209.343C86.5739 206.5 87.7042 202.509 89.8359 199.784C90.565 198.849 91.4617 198.029 92.5188 197.478C103.421 191.927 114.404 186.533 125.348 181.063C126.008 180.739 126.719 180.533 127.459 180.505C127.532 180.501 127.532 180.501 127.609 180.501ZM127.532 183.247C127.211 183.257 126.904 183.362 126.615 183.498C115.629 188.888 104.684 194.362 93.7782 199.916C91.214 201.253 89.4521 204.766 90.4534 207.55C90.7186 208.29 91.6675 208.691 92.5502 208.272C103.536 202.882 114.481 197.408 125.387 191.854C128.021 190.483 129.814 186.704 128.645 184.056C128.453 183.62 128.056 183.24 127.532 183.247Z" fill="#CBD7E2"/>
<path fill-rule="evenodd" clip-rule="evenodd" d="M175.783 105.674C174.181 101.704 169.831 100.325 166.011 102.237L115.238 127.622C112.395 129.045 111.575 133.382 113.177 137.352C114.778 141.326 118.521 143.276 121.04 142.013L173.435 115.816C177.255 113.911 177.384 109.648 175.783 105.674Z" fill="white"/>
<path fill-rule="evenodd" clip-rule="evenodd" d="M169.565 100.015C172.928 100.046 176.008 102.352 177.212 105.569C177.449 106.208 177.652 106.86 177.802 107.523C178.555 110.813 177.843 114.79 174.613 116.737C174.463 116.827 174.309 116.911 174.152 116.995C156.733 125.94 139.17 134.606 121.608 143.265C119.099 144.476 115.858 143.154 114.016 141.207C110.182 137.153 109.554 129.429 114.229 126.61C114.341 126.544 114.456 126.481 114.574 126.418C131.526 117.892 148.461 109.323 165.497 100.957C166.767 100.35 168.166 100.008 169.565 100.015ZM169.474 102.761C168.501 102.768 167.538 103.019 166.665 103.444C149.696 111.891 132.636 120.152 115.806 128.874C114.288 129.67 113.779 131.533 113.74 133.113C113.667 136.18 115.08 139.498 117.983 140.719C118.088 140.761 118.192 140.802 118.297 140.837C118.384 140.865 118.471 140.893 118.559 140.914C119.159 141.071 119.818 141.075 120.39 140.806C138.009 132.297 155.487 123.495 172.893 114.553C173.685 114.138 174.379 113.524 174.805 112.732C176.912 108.814 173.967 102.837 169.586 102.757C169.547 102.761 169.509 102.761 169.474 102.761Z" fill="#CBD7E2"/>
<path fill-rule="evenodd" clip-rule="evenodd" d="M162.73 169.313C162.73 166.33 160.794 164.875 158.404 166.068L142.6 173.97C140.213 175.163 138.273 178.555 138.273 181.537C138.273 184.52 140.213 185.975 142.6 184.782L158.404 176.88C160.79 175.687 162.73 172.296 162.73 169.313Z" fill="white"/>
<path fill-rule="evenodd" clip-rule="evenodd" d="M160.13 164.278C161.494 164.331 162.764 165.123 163.444 166.393C165.576 170.363 162.848 176.112 159.094 178.073C153.819 180.753 148.509 183.366 143.216 186.014C141.367 186.924 138.96 186.725 137.715 184.709C135.3 180.812 138.056 174.815 141.919 172.781C147.19 170.094 152.504 167.488 157.8 164.84C158.525 164.481 159.314 164.265 160.13 164.278ZM160.001 167.024C159.673 167.028 159.356 167.136 159.062 167.275C153.753 169.888 148.453 172.529 143.182 175.216C140.614 176.566 138.852 180.062 139.857 182.853C139.878 182.909 139.899 182.961 139.923 183.017C140.216 183.68 141.05 183.987 141.915 183.592L141.953 183.575C147.263 180.955 152.559 178.314 157.838 175.631C160.423 174.281 162.258 170.785 161.138 167.931C160.964 167.485 160.601 167.056 160.078 167.028C160.05 167.024 160.025 167.024 160.001 167.024Z" fill="#CBD7E2"/>
<path fill-rule="evenodd" clip-rule="evenodd" d="M130.284 248.986C130.284 246.003 128.344 244.549 125.958 245.742L93.205 262.118C90.8187 263.311 88.8789 266.702 88.8789 269.685C88.8789 272.668 90.8152 274.123 93.205 272.93L125.958 256.554C128.344 255.36 130.284 251.969 130.284 248.986Z" fill="white"/>
<path fill-rule="evenodd" clip-rule="evenodd" d="M127.684 243.952C129.052 244.004 130.318 244.796 130.999 246.066C132.551 248.958 131.383 252.81 129.331 255.437C128.602 256.372 127.702 257.192 126.648 257.743C115.725 263.255 104.763 268.684 93.8222 274.158C91.9732 275.075 89.5519 274.845 88.3169 272.853C85.9794 269.075 88.4146 263.084 92.5209 260.925C103.423 255.374 114.41 249.981 125.354 244.51C126.041 244.172 126.725 243.962 127.538 243.952C127.611 243.952 127.611 243.952 127.684 243.952ZM127.555 246.698C127.227 246.705 126.91 246.809 126.613 246.952C115.631 252.342 104.686 257.816 93.7804 263.367C91.1393 264.756 89.3322 268.478 90.5183 271.164C90.8219 271.852 91.7569 272.099 92.5488 271.723C103.514 266.291 114.458 260.817 125.385 255.304C127.96 253.951 129.708 250.452 128.71 247.671C128.525 247.151 128.155 246.698 127.555 246.698Z" fill="#CBD7E2"/>
<path fill-rule="evenodd" clip-rule="evenodd" d="M167.625 230.314C167.625 227.331 165.688 225.876 163.299 227.07L142.6 237.421C140.213 238.614 138.273 242.005 138.273 244.988C138.273 247.971 140.213 249.426 142.6 248.233L163.299 237.881C165.688 236.688 167.625 233.297 167.625 230.314Z" fill="white"/>
<path fill-rule="evenodd" clip-rule="evenodd" d="M165.028 225.28C166.256 225.325 167.414 225.967 168.119 227.021C170.003 229.85 168.841 234.037 166.622 236.831C165.9 237.738 165.021 238.53 163.991 239.075C157.08 242.563 150.141 246 143.216 249.464C141.377 250.368 138.959 250.169 137.714 248.159C135.317 244.29 138.115 238.213 141.921 236.231C148.815 232.704 155.772 229.306 162.697 225.842C163.381 225.507 164.127 225.294 164.881 225.283C164.954 225.28 164.951 225.28 165.028 225.28ZM164.899 228.026C164.571 228.029 164.253 228.137 163.957 228.277C157.007 231.696 150.071 235.139 143.177 238.666C140.449 240.09 138.858 243.966 139.905 246.432C140.205 247.141 141.147 247.402 141.949 247.019C148.899 243.6 155.817 240.118 162.728 236.629C165.373 235.233 167.17 231.486 165.99 228.835C165.799 228.409 165.418 228.026 164.899 228.026Z" fill="#CBD7E2"/>
<path fill-rule="evenodd" clip-rule="evenodd" d="M190.421 155.466C190.421 152.483 188.484 151.028 186.094 152.221L173.549 158.494C171.162 159.687 169.223 163.078 169.223 166.061C169.223 169.044 171.162 170.499 173.549 169.306L186.094 163.033C188.481 161.84 190.421 158.449 190.421 155.466Z" fill="white"/>
<path fill-rule="evenodd" clip-rule="evenodd" d="M187.818 150.435C189.046 150.484 190.204 151.119 190.909 152.176C192.8 155.012 191.61 159.178 189.464 161.92C188.732 162.855 187.835 163.675 186.781 164.226C182.588 166.354 178.366 168.434 174.159 170.537C172.282 171.462 169.819 171.179 168.619 169.17C166.937 166.351 168.033 162.408 170.129 159.677C170.869 158.714 171.787 157.866 172.865 157.304C177.058 155.176 181.28 153.097 185.484 150.993C186.164 150.658 186.904 150.445 187.668 150.431C187.744 150.431 187.744 150.431 187.818 150.435ZM187.692 153.177C187.364 153.184 187.047 153.289 186.75 153.428C182.529 155.508 178.321 157.615 174.124 159.743C171.549 161.09 169.84 164.708 170.799 167.376C171.078 168.154 172.034 168.507 172.896 168.099C177.117 166.019 181.325 163.912 185.525 161.784C188.271 160.347 190.117 156.464 188.714 153.843C188.515 153.477 188.146 153.177 187.692 153.177Z" fill="#CBD7E2"/>
<path fill-rule="evenodd" clip-rule="evenodd" d="M150.582 196.619C150.582 193.637 148.645 192.182 146.256 193.375L122.357 205.324C119.971 206.517 118.031 209.908 118.031 212.891C118.031 215.874 119.968 217.329 122.357 216.136L146.259 204.187C148.645 202.994 150.582 199.602 150.582 196.619Z" fill="white"/>
<path fill-rule="evenodd" clip-rule="evenodd" d="M147.905 191.585C149.318 191.613 150.636 192.426 151.327 193.769C153.382 197.764 150.64 203.444 146.942 205.38C138.98 209.434 130.96 213.373 122.967 217.367C121.097 218.292 118.641 218.041 117.423 216.003C115.072 212.061 117.887 206.109 121.669 204.134C129.63 200.08 137.651 196.142 145.644 192.147C146.303 191.822 147.022 191.61 147.758 191.589C147.828 191.585 147.828 191.585 147.905 191.585ZM147.821 194.331C147.5 194.341 147.193 194.446 146.907 194.582C138.897 198.545 130.89 202.519 122.925 206.573C120.259 207.962 118.358 211.848 119.719 214.486C120.054 215.131 120.954 215.281 121.697 214.929C129.707 210.965 137.714 206.992 145.679 202.938C148.442 201.49 150.026 197.506 148.927 195.109C148.731 194.687 148.341 194.324 147.821 194.331Z" fill="#CBD7E2"/>
<path fill-rule="evenodd" clip-rule="evenodd" d="M185.048 179.381C185.048 176.399 183.111 174.944 180.721 176.137L162.904 185.047C160.518 186.24 158.578 189.632 158.578 192.614C158.578 195.597 160.514 197.052 162.904 195.859L180.721 186.949C183.111 185.759 185.048 182.368 185.048 179.381Z" fill="white"/>
<path fill-rule="evenodd" clip-rule="evenodd" d="M182.449 174.351C183.698 174.403 184.877 175.059 185.578 176.151C188.087 180.051 185.132 186.192 181.412 188.142C175.468 191.167 169.481 194.108 163.519 197.09C161.666 198.001 159.259 197.792 158.017 195.786C156.237 192.914 157.424 188.822 159.594 186.097C160.316 185.19 161.198 184.391 162.224 183.858C168.169 180.833 174.152 177.892 180.118 174.909C180.802 174.574 181.545 174.358 182.306 174.351C182.375 174.351 182.375 174.351 182.449 174.351ZM182.32 177.096C181.992 177.1 181.674 177.208 181.378 177.347C175.391 180.289 169.422 183.271 163.477 186.296C160.79 187.699 158.889 191.627 160.288 194.237C160.623 194.858 161.512 195.001 162.252 194.652C168.239 191.711 174.205 188.728 180.15 185.703C182.811 184.308 184.723 180.341 183.342 177.763C183.143 177.393 182.77 177.096 182.32 177.096Z" fill="#CBD7E2"/>
<path fill-rule="evenodd" clip-rule="evenodd" d="M110.161 216.827C110.161 213.844 108.224 212.389 105.838 213.582L93.205 219.897C90.8187 221.09 88.8789 224.481 88.8789 227.464C88.8789 230.447 90.8152 231.902 93.205 230.709L105.838 224.39C108.224 223.201 110.161 219.81 110.161 216.827Z" fill="white"/>
<path fill-rule="evenodd" clip-rule="evenodd" d="M107.564 211.796C108.796 211.845 109.951 212.483 110.652 213.537C113.227 217.392 110.261 223.623 106.525 225.59C102.296 227.726 98.0541 229.826 93.8187 231.943C91.9557 232.865 89.4926 232.613 88.2785 230.579C85.9968 226.766 88.5157 220.814 92.5208 218.71C96.7423 216.561 100.995 214.472 105.23 212.354C105.914 212.019 106.657 211.806 107.414 211.792C107.488 211.792 107.488 211.792 107.564 211.796ZM107.435 214.538C107.107 214.541 106.79 214.65 106.493 214.789C102.241 216.875 98.0017 218.993 93.7803 221.146C91.1393 222.531 89.3495 226.292 90.5183 228.943C90.8148 229.616 91.7254 229.882 92.5139 229.519L92.5522 229.501C96.7981 227.398 101.037 225.28 105.265 223.145C107.889 221.763 109.703 218.013 108.524 215.347C108.339 214.922 107.948 214.538 107.435 214.538Z" fill="#CBD7E2"/>
<path fill-rule="evenodd" clip-rule="evenodd" d="M136.65 224.812C136.65 221.829 134.714 220.375 132.324 221.568L93.2011 241.129C90.8148 242.323 88.875 245.714 88.875 248.697C88.875 251.68 90.8113 253.134 93.2011 251.941L132.324 232.38C134.714 231.186 136.65 227.795 136.65 224.812Z" fill="white"/>
<path fill-rule="evenodd" clip-rule="evenodd" d="M133.983 219.778C135.361 219.802 136.635 220.57 137.336 221.829C138.965 224.764 137.751 228.723 135.598 231.392C134.887 232.275 134.025 233.046 133.017 233.569C119.993 240.184 106.886 246.635 93.8202 253.169C91.9711 254.076 89.5673 253.874 88.3184 251.868C86.5286 248.99 87.7253 244.908 89.8918 242.18C90.614 241.272 91.4931 240.474 92.5258 239.936C105.556 233.335 118.657 226.871 131.722 220.34C132.385 220.015 133.1 219.802 133.837 219.782C133.906 219.778 133.906 219.778 133.983 219.778ZM133.899 222.527C133.578 222.538 133.271 222.642 132.985 222.778C119.874 229.229 106.812 235.778 93.7783 242.382C91.1478 243.75 89.3336 247.496 90.5198 250.176C90.8233 250.863 91.7583 251.111 92.5537 250.734C105.672 244.297 118.734 237.749 131.757 231.131C134.391 229.763 136.254 226.03 135.002 223.305C134.81 222.883 134.416 222.517 133.899 222.527Z" fill="#CBD7E2"/>
<path fill-rule="evenodd" clip-rule="evenodd" d="M127.384 284.052C127.384 281.069 125.448 279.614 123.058 280.807L93.2011 295.736C90.8148 296.929 88.875 300.32 88.875 303.303C88.875 306.286 90.8113 307.741 93.2011 306.548L123.058 291.619C125.444 290.426 127.384 287.035 127.384 284.052Z" fill="white"/>
<path fill-rule="evenodd" clip-rule="evenodd" d="M124.783 279.018C126.127 279.07 127.379 279.841 128.063 281.069C130.278 285.053 127.452 290.859 123.747 292.812C113.804 297.871 103.791 302.79 93.8135 307.779C91.9575 308.693 89.5433 308.463 88.3117 306.474C86.5394 303.61 87.7221 299.563 89.8363 296.852C90.5655 295.917 91.4656 295.094 92.5192 294.546C102.462 289.491 112.475 284.568 122.449 279.579C123.133 279.244 123.876 279.032 124.633 279.018C124.71 279.018 124.71 279.018 124.783 279.018ZM124.658 281.763C124.33 281.767 124.012 281.875 123.719 282.015C113.707 286.934 103.725 291.926 93.7821 296.985C91.2074 298.332 89.4595 301.838 90.4573 304.618C90.7225 305.362 91.6749 305.756 92.5541 305.337C102.567 300.418 112.545 295.429 122.488 290.37C125.136 288.975 126.922 285.224 125.75 282.573C125.558 282.144 125.174 281.763 124.658 281.763Z" fill="#CBD7E2"/>
<path fill-rule="evenodd" clip-rule="evenodd" d="M174.256 206.011C174.256 203.028 172.32 201.574 169.93 202.767L148.99 213.237C146.604 214.43 144.664 217.821 144.664 220.804C144.664 223.787 146.6 225.242 148.99 224.048L169.93 213.579C172.316 212.389 174.256 208.998 174.256 206.011Z" fill="white"/>
<path fill-rule="evenodd" clip-rule="evenodd" d="M171.656 200.981C172.877 201.026 174.039 201.664 174.743 202.721C176.613 205.526 175.459 209.65 173.351 212.399C172.612 213.362 171.698 214.207 170.62 214.772C163.642 218.33 156.609 221.777 149.603 225.28C147.747 226.191 145.333 225.957 144.101 223.975C142.343 221.139 143.491 217.13 145.574 214.419C146.313 213.456 147.227 212.612 148.305 212.047C155.283 208.488 162.316 205.041 169.322 201.539C170.009 201.2 170.71 200.991 171.506 200.977C171.579 200.977 171.579 200.977 171.656 200.981ZM171.523 203.726C171.195 203.73 170.878 203.838 170.581 203.977C163.548 207.424 156.542 210.927 149.565 214.486C146.99 215.836 145.242 219.339 146.24 222.123C146.516 222.894 147.479 223.253 148.337 222.841C155.37 219.394 162.376 215.892 169.353 212.333C172.029 210.927 173.945 207.013 172.546 204.393C172.347 204.019 171.97 203.726 171.523 203.726Z" fill="#CBD7E2"/>
<path fill-rule="evenodd" clip-rule="evenodd" d="M280.104 146.482C280.104 142.774 277.697 140.97 274.728 142.453L206.794 176.419C203.829 177.902 201.418 182.117 201.418 185.825V321.843C201.418 325.551 203.825 327.355 206.794 325.872L274.728 291.905C277.693 290.423 280.104 286.208 280.104 282.499V146.482Z" fill="white"/>
<path fill-rule="evenodd" clip-rule="evenodd" d="M276.779 140.562C279.493 140.611 281.43 143.436 281.478 146.385C281.691 191.756 281.478 237.131 281.478 282.507C281.457 286.801 279.082 291.183 275.429 293.092C252.814 304.615 230.082 315.898 207.328 327.142C205.719 327.917 203.731 328.011 202.272 326.975C200.744 325.893 200.081 323.87 200.05 321.944C199.841 276.572 200.05 231.197 200.05 185.822C200.071 181.51 202.579 177.089 206.1 175.233C228.749 163.78 251.415 152.357 274.204 141.183C275.017 140.792 275.809 140.551 276.779 140.562ZM276.713 143.307C276.158 143.311 275.401 143.653 275.401 143.653C252.633 154.817 229.987 166.229 207.356 177.675C204.592 179.13 202.845 182.493 202.792 185.752C202.583 231.138 202.583 276.527 202.792 321.916C202.817 323.472 203.528 325.297 205.231 324.979C205.541 324.92 205.838 324.812 206.124 324.676C228.857 313.438 251.576 302.166 274.169 290.653C276.981 289.181 278.68 285.838 278.729 282.576C278.939 237.191 278.942 191.802 278.729 146.412C278.708 145.003 278.192 143.398 276.828 143.311C276.789 143.307 276.751 143.307 276.713 143.307Z" fill="#CBD7E2"/>
<path fill-rule="evenodd" clip-rule="evenodd" d="M201.422 223.734V185.825C201.422 182.117 203.829 177.902 206.798 176.419L274.732 142.453C277.697 140.97 280.108 142.777 280.108 146.482V184.391L201.422 223.734Z" fill="#CBD7E2"/>
<path fill-rule="evenodd" clip-rule="evenodd" d="M276.821 140.562C279.535 140.631 281.461 143.496 281.479 146.479V184.391C281.423 185.194 281.35 185.246 280.718 185.619L202.035 224.962C201.156 225.325 200.124 224.753 200.047 223.734V185.822C200.064 181.523 202.51 177.117 206.096 175.233C228.732 163.752 251.44 152.413 274.201 141.183C275.014 140.792 275.9 140.548 276.821 140.562ZM276.706 143.307C276.263 143.311 275.827 143.45 275.426 143.642C252.553 154.614 229.977 166.201 207.356 177.675C204.523 179.162 202.81 182.549 202.793 185.829V221.512L278.729 183.543C278.729 171.165 278.803 158.787 278.729 146.412C278.726 146.042 278.695 145.673 278.621 145.313C278.597 145.184 278.566 145.059 278.527 144.933C278.503 144.853 278.475 144.773 278.447 144.692C278.189 144.005 277.613 143.353 276.818 143.311C276.779 143.307 276.744 143.307 276.706 143.307Z" fill="#CBD7E2"/>
<path fill-rule="evenodd" clip-rule="evenodd" d="M203.443 326.081L194.247 321.483C193.015 320.866 192.227 319.369 192.227 317.244V181.227C192.227 177.518 194.634 173.304 197.603 171.821L265.536 137.854C266.873 137.185 268.097 137.185 269.039 137.729L278.117 142.261C277.192 141.786 276.017 141.814 274.736 142.453L206.803 176.419C203.837 177.902 201.427 182.117 201.427 185.825V321.843C201.423 323.967 202.211 325.464 203.443 326.081Z" fill="white"/>
<path fill-rule="evenodd" clip-rule="evenodd" d="M267.625 135.964C268.333 135.981 269.034 136.166 269.655 136.501L269.68 136.515C272.698 138.022 275.722 139.512 278.733 141.036L279.138 141.347L279.403 141.79C279.431 141.961 279.49 142.128 279.487 142.299C279.473 142.774 279.337 142.861 279.086 143.231L278.608 143.541L278.046 143.632C277.617 143.517 277.425 143.43 277.177 143.363C276.574 143.206 275.939 143.398 275.395 143.66C252.637 154.838 229.984 166.232 207.36 177.675C204.572 179.144 202.849 182.493 202.796 185.752C202.587 231.145 202.43 276.537 202.796 321.926C202.8 322.111 202.807 322.293 202.824 322.474C202.838 322.617 202.856 322.76 202.884 322.9C202.904 323.008 202.925 323.116 202.953 323.224C202.978 323.322 203.006 323.42 203.037 323.514C203.212 324.037 203.515 324.55 204.01 324.826C204.038 324.839 204.056 324.85 204.056 324.85L204.478 325.178C204.708 325.579 204.844 325.684 204.809 326.176C204.795 326.389 204.666 326.692 204.666 326.692L204.338 327.114L203.874 327.379L203.344 327.446L202.828 327.303L193.617 322.697C191.74 321.738 190.865 319.428 190.847 317.293C190.725 271.936 190.847 226.574 190.847 181.217C190.868 176.939 193.22 172.554 196.897 170.632C219.483 159.119 242.248 147.954 264.921 136.619C265.72 136.225 266.582 135.974 267.475 135.957C267.552 135.964 267.552 135.964 267.625 135.964ZM268.361 138.922C267.702 138.549 266.847 138.744 266.198 139.055C243.451 150.257 220.75 161.561 198.16 173.074C195.383 174.529 193.649 177.888 193.596 181.15C193.387 226.539 193.227 271.932 193.596 317.321C193.603 317.649 193.628 317.977 193.684 318.298C193.705 318.406 193.725 318.514 193.753 318.622C193.774 318.71 193.802 318.8 193.83 318.888C194.015 319.449 194.343 319.987 194.87 320.259L200.103 322.875C200.096 322.813 200.089 322.75 200.082 322.687C200.058 322.425 200.047 322.164 200.044 321.898C199.922 276.541 200.044 231.18 200.044 185.822C200.065 181.492 202.475 177.065 206.173 175.191L273.538 141.511L268.466 138.964C268.431 138.953 268.396 138.939 268.361 138.922Z" fill="#CBD7E2"/>
<path fill-rule="evenodd" clip-rule="evenodd" d="M280.104 204.584L201.422 243.927V244.915L280.104 205.572V204.584Z" fill="#CBD7E2"/>
<path fill-rule="evenodd" clip-rule="evenodd" d="M220.43 214.231V319.055L221.312 318.615V213.788L220.43 214.231Z" fill="#CBD7E2"/>
<path fill-rule="evenodd" clip-rule="evenodd" d="M240.32 204.284V309.112L241.203 308.669V203.845L240.32 204.284Z" fill="#CBD7E2"/>
<path fill-rule="evenodd" clip-rule="evenodd" d="M260.215 194.338V299.165L261.094 298.722V193.898L260.215 194.338Z" fill="#CBD7E2"/>
<path fill-rule="evenodd" clip-rule="evenodd" d="M280.104 246.861L201.422 286.205V287.188L280.104 247.849V246.861Z" fill="#CBD7E2"/>
<path fill-rule="evenodd" clip-rule="evenodd" d="M280.104 225.681L201.422 265.024V266.011L280.104 226.668V225.681Z" fill="#CBD7E2"/>
<path fill-rule="evenodd" clip-rule="evenodd" d="M260.836 277.675L201.422 307.382V308.369L260.836 278.662V277.675Z" fill="#CBD7E2"/>
<path d="M233.77 302.246C233.77 303.08 233.694 303.837 233.54 304.524C233.387 305.212 233.17 305.826 232.898 306.363C232.626 306.9 232.302 307.361 231.928 307.744C231.555 308.128 231.147 308.428 230.711 308.648C230.275 308.868 229.87 308.969 229.5 308.958C229.13 308.948 228.809 308.808 228.537 308.543C228.265 308.278 228.056 307.877 227.902 307.343C227.749 306.809 227.672 306.126 227.672 305.292C227.672 304.458 227.749 303.701 227.902 303.014C228.056 302.326 228.265 301.716 228.537 301.178C228.809 300.641 229.13 300.184 229.5 299.804C229.87 299.424 230.275 299.124 230.711 298.907C231.147 298.688 231.555 298.583 231.928 298.59C232.302 298.597 232.626 298.733 232.898 298.998C233.17 299.263 233.387 299.661 233.54 300.195C233.694 300.728 233.77 301.412 233.77 302.246ZM231.963 303.15C231.963 302.49 231.928 301.97 231.855 301.583C231.782 301.199 231.687 300.917 231.569 300.735C231.45 300.554 231.318 300.456 231.164 300.442C231.014 300.428 230.861 300.46 230.707 300.537C230.554 300.613 230.4 300.735 230.254 300.899C230.107 301.063 229.974 301.294 229.859 301.59C229.744 301.887 229.653 302.264 229.584 302.721C229.514 303.178 229.479 303.732 229.479 304.392C229.479 305.055 229.514 305.578 229.584 305.962C229.653 306.345 229.744 306.628 229.859 306.813C229.974 306.998 230.107 307.095 230.254 307.113C230.404 307.127 230.554 307.095 230.707 307.019C230.861 306.942 231.014 306.82 231.164 306.656C231.314 306.492 231.45 306.258 231.569 305.958C231.687 305.658 231.782 305.278 231.855 304.824C231.925 304.371 231.963 303.813 231.963 303.15Z" fill="#CBD7E2"/>
<path d="M211.316 272.337V269.853C211.316 269.699 211.319 269.532 211.33 269.35C211.34 269.169 211.354 268.977 211.371 268.778L209.198 273.397L211.316 272.337ZM213.688 271.15V272.288C213.688 272.389 213.66 272.49 213.601 272.591C213.541 272.696 213.458 272.773 213.35 272.829L212.84 273.083V275.274L211.316 276.038V273.847L208.005 275.501C207.897 275.557 207.795 275.564 207.708 275.532C207.621 275.498 207.565 275.428 207.541 275.323L207.359 274.412L211.166 266.584L212.837 265.746V271.573L213.688 271.15Z" fill="#CBD7E2"/>
<path d="M268.777 170.502V166.462C268.777 166.215 268.784 165.943 268.798 165.65C268.812 165.356 268.837 165.042 268.868 164.718L265.331 172.229L268.777 170.502ZM272.636 168.573V170.426C272.636 170.59 272.587 170.754 272.493 170.921C272.399 171.089 272.263 171.218 272.085 171.305L271.258 171.717V175.279L268.777 176.517V172.955L263.394 175.645C263.216 175.732 263.056 175.75 262.913 175.694C262.77 175.638 262.679 175.523 262.641 175.352L262.348 173.873L268.537 161.142L271.255 159.781V169.257L272.636 168.573Z" fill="#ECF1F8"/>
<path d="M213.205 252.332V253.797L208.516 256.142V254.676L210.097 253.884V249.077C210.097 248.955 210.1 248.833 210.104 248.704C210.107 248.578 210.114 248.449 210.121 248.32L209.183 249.691C209.099 249.806 209.019 249.893 208.938 249.949C208.858 250.005 208.781 250.043 208.708 250.064C208.635 250.085 208.572 250.089 208.516 250.075C208.46 250.061 208.419 250.04 208.391 250.008L207.836 249.436L210.4 245.661L211.845 244.939V253.009L213.205 252.332Z" fill="#CBD7E2"/>
<path d="M263.315 176.36V178.743L255.692 182.556V180.173L258.263 178.886V171.068C258.263 170.869 258.267 170.666 258.274 170.464C258.281 170.258 258.288 170.049 258.302 169.839L256.777 172.069C256.641 172.257 256.508 172.397 256.376 172.487C256.243 172.578 256.121 172.641 256.002 172.672C255.887 172.704 255.783 172.711 255.688 172.69C255.598 172.669 255.528 172.634 255.486 172.582L254.586 171.65L258.755 165.513L261.106 164.338V177.462L263.315 176.36Z" fill="#ECF1F8"/>
<path d="M212.025 224.767V232.223L210.706 232.882V228.594C210.706 228.497 210.71 228.385 210.713 228.27C210.717 228.151 210.727 228.029 210.737 227.904L209.028 232.592C208.976 232.739 208.902 232.865 208.815 232.969C208.724 233.077 208.623 233.158 208.508 233.213L208.306 233.315C208.191 233.37 208.089 233.391 207.999 233.377C207.908 233.36 207.838 233.308 207.786 233.213L206.076 230.224C206.087 230.342 206.094 230.457 206.097 230.572C206.104 230.688 206.108 230.796 206.108 230.893V235.181L204.789 235.84V228.385L205.93 227.816C205.996 227.785 206.052 227.757 206.101 227.736C206.15 227.715 206.192 227.705 206.23 227.701C206.268 227.698 206.303 227.708 206.335 227.729C206.366 227.75 206.397 227.785 206.425 227.834L208.082 230.789C208.142 230.89 208.198 230.995 208.253 231.11C208.309 231.221 208.362 231.34 208.41 231.462C208.459 231.288 208.512 231.113 208.567 230.942C208.623 230.771 208.679 230.607 208.742 230.447L210.396 225.852C210.427 225.772 210.455 225.706 210.486 225.657C210.518 225.604 210.553 225.563 210.591 225.524C210.629 225.489 210.671 225.458 210.72 225.43C210.769 225.402 210.825 225.371 210.891 225.339L212.025 224.767Z" fill="#CBD7E2"/>
<path d="M216.817 227.896C216.851 227.879 216.886 227.869 216.921 227.865C216.956 227.862 216.991 227.872 217.022 227.893L217.616 228.319C217.357 228.842 217.033 229.299 216.642 229.693C216.251 230.087 215.791 230.419 215.257 230.684C214.769 230.928 214.329 231.05 213.942 231.054C213.555 231.057 213.227 230.953 212.955 230.747C212.686 230.541 212.477 230.244 212.333 229.85C212.19 229.456 212.117 228.988 212.117 228.441C212.117 227.886 212.194 227.335 212.351 226.79C212.508 226.246 212.728 225.733 213.01 225.255C213.293 224.777 213.631 224.345 214.026 223.958C214.42 223.574 214.856 223.26 215.33 223.023C215.571 222.901 215.798 222.813 216.014 222.754C216.227 222.698 216.426 222.663 216.614 222.66C216.799 222.653 216.97 222.674 217.127 222.719C217.284 222.764 217.424 222.827 217.542 222.911L217.04 223.947C217.008 224.01 216.97 224.073 216.925 224.136C216.879 224.198 216.82 224.247 216.74 224.286C216.687 224.313 216.635 224.324 216.59 224.32C216.544 224.317 216.492 224.31 216.44 224.296C216.387 224.282 216.328 224.268 216.265 224.254C216.203 224.24 216.126 224.233 216.039 224.24C215.951 224.244 215.85 224.261 215.735 224.293C215.62 224.324 215.484 224.38 215.327 224.456C215.079 224.579 214.852 224.746 214.65 224.955C214.444 225.165 214.27 225.405 214.12 225.685C213.97 225.96 213.855 226.267 213.774 226.606C213.694 226.941 213.652 227.3 213.652 227.677C213.652 228.06 213.698 228.374 213.788 228.629C213.879 228.88 214.001 229.069 214.155 229.194C214.308 229.32 214.49 229.383 214.695 229.386C214.901 229.39 215.121 229.33 215.358 229.215C215.494 229.149 215.616 229.079 215.728 229.006C215.84 228.936 215.944 228.856 216.042 228.772C216.14 228.688 216.23 228.594 216.314 228.493C216.401 228.392 216.485 228.273 216.576 228.134C216.611 228.081 216.649 228.036 216.691 227.991C216.729 227.952 216.775 227.921 216.817 227.896Z" fill="#CBD7E2"/>
<path d="M228.774 220.996L228.178 219.251C228.132 219.143 228.087 219.014 228.035 218.864C227.986 218.714 227.934 218.547 227.885 218.369C227.839 218.599 227.794 218.815 227.742 219.018C227.693 219.22 227.644 219.398 227.599 219.548L227.006 221.875L228.774 220.996ZM231.15 222.66L229.992 223.239C229.863 223.305 229.758 223.323 229.678 223.291C229.598 223.26 229.538 223.201 229.497 223.113L229.116 222.004L226.667 223.229L226.287 224.718C226.256 224.83 226.196 224.945 226.112 225.064C226.029 225.182 225.924 225.273 225.802 225.336L224.637 225.918L227.131 217.214L228.659 216.45L231.15 222.66Z" fill="#CBD7E2"/>
<path d="M235 218.805C235.035 218.787 235.07 218.777 235.105 218.773C235.14 218.77 235.175 218.78 235.206 218.801L235.799 219.227C235.541 219.75 235.216 220.207 234.826 220.601C234.435 220.996 233.974 221.327 233.441 221.592C232.952 221.836 232.513 221.959 232.125 221.959C231.738 221.959 231.41 221.857 231.138 221.652C230.869 221.446 230.66 221.149 230.517 220.755C230.374 220.361 230.301 219.893 230.301 219.345C230.301 218.791 230.378 218.24 230.535 217.695C230.692 217.151 230.911 216.642 231.194 216.16C231.477 215.682 231.815 215.25 232.209 214.862C232.603 214.479 233.039 214.165 233.514 213.927C233.755 213.805 233.981 213.718 234.198 213.659C234.411 213.603 234.609 213.568 234.798 213.565C234.983 213.558 235.154 213.579 235.311 213.624C235.468 213.669 235.607 213.732 235.726 213.816L235.223 214.852C235.192 214.915 235.154 214.978 235.108 215.04C235.063 215.103 235.004 215.152 234.923 215.19C234.871 215.218 234.822 215.229 234.773 215.225C234.725 215.222 234.676 215.215 234.623 215.201C234.571 215.187 234.512 215.176 234.449 215.159C234.386 215.145 234.309 215.138 234.222 215.145C234.135 215.148 234.034 215.166 233.919 215.197C233.804 215.229 233.667 215.281 233.51 215.361C233.263 215.483 233.036 215.651 232.834 215.86C232.628 216.07 232.453 216.31 232.303 216.589C232.153 216.865 232.038 217.172 231.958 217.51C231.878 217.845 231.836 218.205 231.836 218.581C231.836 218.965 231.881 219.279 231.972 219.534C232.063 219.785 232.185 219.973 232.338 220.099C232.492 220.225 232.673 220.287 232.879 220.291C233.085 220.294 233.305 220.235 233.542 220.12C233.678 220.054 233.8 219.984 233.912 219.911C234.023 219.837 234.128 219.761 234.226 219.677C234.323 219.593 234.414 219.499 234.501 219.398C234.585 219.297 234.672 219.175 234.763 219.038C234.798 218.986 234.836 218.941 234.878 218.895C234.913 218.861 234.958 218.826 235 218.805Z" fill="#CBD7E2"/>
<path d="M251.876 204.839V212.298L250.557 212.958V208.67C250.557 208.572 250.561 208.46 250.564 208.345C250.568 208.227 250.578 208.105 250.589 207.979L248.879 212.668C248.827 212.814 248.753 212.94 248.663 213.045C248.572 213.153 248.471 213.233 248.356 213.292L248.153 213.394C248.038 213.453 247.937 213.47 247.846 213.456C247.756 213.439 247.686 213.387 247.634 213.292L245.924 210.303C245.935 210.421 245.942 210.536 245.945 210.651C245.952 210.767 245.955 210.871 245.955 210.972V215.26L244.637 215.919V208.464L245.778 207.892C245.844 207.86 245.9 207.832 245.949 207.812C245.997 207.791 246.039 207.78 246.078 207.777C246.116 207.773 246.151 207.784 246.182 207.805C246.214 207.826 246.245 207.86 246.273 207.909L247.93 210.864C247.989 210.965 248.045 211.07 248.101 211.182C248.157 211.293 248.209 211.412 248.258 211.534C248.307 211.36 248.359 211.185 248.415 211.014C248.471 210.843 248.527 210.679 248.59 210.519L250.243 205.924C250.271 205.844 250.303 205.778 250.334 205.729C250.365 205.676 250.4 205.635 250.439 205.596C250.477 205.561 250.519 205.53 250.568 205.498C250.617 205.471 250.672 205.443 250.739 205.408L251.876 204.839Z" fill="#CBD7E2"/>
<path d="M256.457 207.138L254.82 207.955V209.992L253.707 210.55V208.513L252.078 209.326V208.188L253.707 207.375V205.348L254.82 204.79V206.817L256.457 206.001V207.138Z" fill="#CBD7E2"/>
<path d="M230.13 260.356C230.283 260.245 230.433 260.147 230.576 260.063C230.719 259.979 230.859 259.903 230.995 259.833C231.427 259.617 231.811 259.501 232.143 259.487C232.474 259.473 232.753 259.543 232.98 259.693C233.207 259.843 233.378 260.067 233.489 260.367C233.604 260.663 233.66 261.016 233.66 261.42C233.66 261.93 233.583 262.435 233.426 262.934C233.269 263.433 233.053 263.904 232.774 264.351C232.495 264.794 232.164 265.199 231.776 265.558C231.389 265.917 230.967 266.214 230.51 266.444C230.241 266.577 229.987 266.674 229.746 266.73C229.502 266.786 229.275 266.81 229.062 266.807C228.849 266.803 228.654 266.772 228.472 266.716C228.291 266.66 228.127 266.587 227.98 266.493L228.521 265.383C228.577 265.268 228.643 265.167 228.72 265.083C228.797 265 228.877 264.937 228.964 264.895C229.076 264.839 229.184 264.822 229.285 264.843C229.386 264.864 229.495 264.888 229.613 264.916C229.732 264.94 229.871 264.951 230.028 264.94C230.185 264.93 230.384 264.867 230.614 264.752C230.848 264.637 231.047 264.49 231.211 264.319C231.379 264.148 231.511 263.957 231.616 263.751C231.72 263.545 231.794 263.325 231.843 263.095C231.891 262.865 231.912 262.631 231.912 262.397C231.912 261.933 231.801 261.64 231.574 261.511C231.347 261.382 231.03 261.42 230.614 261.63C230.245 261.814 229.885 262.076 229.529 262.415L228.444 262.617L229.146 257.499L233.36 255.392V256.229C233.36 256.368 233.343 256.505 233.304 256.637C233.266 256.77 233.207 256.899 233.126 257.024C233.046 257.15 232.938 257.269 232.805 257.38C232.673 257.492 232.516 257.593 232.331 257.687L230.367 258.671L230.13 260.356Z" fill="#CBD7E2"/>
<path d="M233.15 241.995C233.339 241.901 233.489 241.887 233.597 241.953C233.705 242.019 233.761 242.148 233.761 242.344V243.519L227.977 246.412V245.756C227.977 245.63 227.997 245.484 228.043 245.316C228.088 245.149 228.168 244.978 228.28 244.807L230.652 240.854C230.855 240.515 231.033 240.205 231.183 239.915C231.333 239.626 231.458 239.354 231.556 239.099C231.654 238.844 231.727 238.6 231.776 238.366C231.825 238.136 231.849 237.902 231.849 237.672C231.849 237.292 231.772 237.041 231.615 236.915C231.458 236.789 231.221 236.807 230.9 236.967C230.642 237.096 230.422 237.285 230.241 237.536C230.063 237.784 229.937 238.042 229.871 238.314C229.791 238.593 229.69 238.806 229.56 238.946C229.431 239.089 229.25 239.197 229.013 239.27L228.085 239.542C228.144 239.036 228.263 238.565 228.434 238.126C228.605 237.686 228.817 237.285 229.072 236.922C229.327 236.559 229.616 236.238 229.944 235.959C230.272 235.68 230.625 235.446 231.001 235.258C231.406 235.056 231.772 234.94 232.1 234.916C232.425 234.892 232.704 234.944 232.934 235.073C233.164 235.202 233.339 235.404 233.461 235.684C233.583 235.959 233.646 236.301 233.646 236.706C233.646 237.055 233.604 237.4 233.52 237.738C233.437 238.077 233.321 238.419 233.175 238.757C233.028 239.099 232.857 239.444 232.665 239.79C232.47 240.139 232.264 240.495 232.048 240.861L230.44 243.575C230.645 243.397 230.851 243.237 231.054 243.097C231.256 242.958 231.444 242.843 231.619 242.755L233.15 241.995Z" fill="#CBD7E2"/>
<path d="M250.425 254.882C250.606 254.792 250.774 254.669 250.931 254.512C251.088 254.356 251.22 254.181 251.335 253.986C251.447 253.794 251.538 253.584 251.604 253.368C251.67 253.152 251.702 252.932 251.702 252.712C251.702 252.468 251.67 252.266 251.608 252.105C251.545 251.945 251.458 251.826 251.346 251.753C251.234 251.68 251.098 251.648 250.938 251.659C250.777 251.669 250.599 251.721 250.404 251.819C250.226 251.906 250.066 252.025 249.919 252.172C249.772 252.318 249.647 252.486 249.539 252.674C249.431 252.862 249.347 253.065 249.288 253.284C249.228 253.501 249.197 253.728 249.197 253.965C249.197 254.202 249.221 254.401 249.27 254.561C249.319 254.725 249.396 254.847 249.497 254.931C249.598 255.015 249.727 255.053 249.881 255.05C250.031 255.043 250.212 254.987 250.425 254.882ZM250.142 250.654C250.407 250.41 250.7 250.204 251.025 250.043C251.321 249.893 251.615 249.806 251.904 249.771C252.194 249.74 252.455 249.785 252.682 249.904C252.912 250.026 253.097 250.228 253.237 250.518C253.376 250.807 253.45 251.195 253.45 251.683C253.45 252.13 253.38 252.587 253.237 253.058C253.094 253.529 252.891 253.979 252.63 254.408C252.368 254.837 252.054 255.231 251.684 255.591C251.315 255.95 250.906 256.239 250.46 256.466C249.999 256.696 249.588 256.819 249.221 256.833C248.855 256.846 248.548 256.766 248.293 256.595C248.039 256.421 247.847 256.159 247.711 255.807C247.578 255.454 247.512 255.029 247.512 254.526C247.512 253.588 247.826 252.482 248.45 251.202L250.303 247.378C250.39 247.207 250.516 247.036 250.68 246.862C250.844 246.687 251.032 246.548 251.241 246.443L252.801 245.665L250.362 250.26L250.142 250.654Z" fill="#CBD7E2"/>
<path d="M230.723 285.685C230.918 285.587 231.089 285.468 231.232 285.325C231.375 285.186 231.494 285.029 231.584 284.865C231.675 284.697 231.745 284.523 231.787 284.338C231.829 284.153 231.853 283.965 231.853 283.78C231.853 283.574 231.836 283.396 231.797 283.246C231.759 283.096 231.696 282.981 231.612 282.904C231.525 282.827 231.41 282.793 231.263 282.796C231.117 282.8 230.939 282.859 230.723 282.964C230.51 283.072 230.328 283.194 230.182 283.333C230.039 283.473 229.92 283.626 229.837 283.787C229.749 283.951 229.687 284.125 229.652 284.314C229.613 284.502 229.596 284.701 229.596 284.903C229.596 285.092 229.617 285.256 229.662 285.399C229.704 285.542 229.774 285.65 229.864 285.723C229.955 285.796 230.074 285.835 230.213 285.831C230.353 285.835 230.52 285.782 230.723 285.685ZM230.723 278.955C230.545 279.042 230.398 279.15 230.276 279.276C230.154 279.401 230.056 279.538 229.98 279.681C229.903 279.827 229.847 279.977 229.812 280.134C229.777 280.291 229.76 280.445 229.76 280.591C229.76 280.755 229.774 280.912 229.798 281.055C229.823 281.198 229.875 281.313 229.945 281.401C230.018 281.488 230.116 281.537 230.238 281.547C230.363 281.558 230.52 281.516 230.719 281.418C230.915 281.32 231.075 281.202 231.201 281.066C231.326 280.93 231.424 280.783 231.494 280.626C231.564 280.469 231.612 280.305 231.64 280.134C231.665 279.963 231.679 279.796 231.679 279.632C231.679 279.485 231.661 279.349 231.626 279.227C231.591 279.105 231.536 279.011 231.459 278.941C231.382 278.875 231.281 278.836 231.159 278.833C231.044 278.826 230.894 278.868 230.723 278.955ZM232.275 281.362C232.519 281.341 232.729 281.359 232.907 281.421C233.081 281.481 233.224 281.582 233.336 281.718C233.447 281.854 233.528 282.025 233.58 282.227C233.632 282.43 233.66 282.66 233.66 282.918C233.66 283.344 233.59 283.769 233.447 284.188C233.304 284.607 233.106 285.004 232.847 285.381C232.589 285.755 232.279 286.103 231.919 286.417C231.56 286.731 231.159 287 230.723 287.22C230.287 287.44 229.885 287.569 229.526 287.618C229.163 287.663 228.856 287.628 228.598 287.509C228.34 287.391 228.141 287.195 227.998 286.916C227.855 286.637 227.785 286.285 227.785 285.859C227.785 285.601 227.813 285.346 227.865 285.092C227.918 284.837 228.001 284.586 228.11 284.338C228.221 284.09 228.364 283.85 228.539 283.612C228.713 283.375 228.922 283.148 229.17 282.925C228.797 282.915 228.518 282.782 228.333 282.527C228.148 282.273 228.057 281.903 228.057 281.415C228.057 281.045 228.124 280.668 228.256 280.284C228.389 279.904 228.574 279.538 228.811 279.189C229.048 278.84 229.331 278.515 229.655 278.219C229.98 277.922 230.339 277.678 230.726 277.483C231.113 277.287 231.469 277.176 231.797 277.148C232.122 277.116 232.404 277.158 232.642 277.27C232.879 277.381 233.064 277.563 233.196 277.814C233.329 278.065 233.395 278.376 233.395 278.746C233.395 279.234 233.301 279.698 233.12 280.138C232.924 280.57 232.649 280.982 232.275 281.362Z" fill="#CBD7E2"/>
<path d="M247.837 229.672C247.896 229.166 248.015 228.695 248.186 228.256C248.357 227.816 248.57 227.415 248.824 227.056C249.079 226.693 249.369 226.372 249.697 226.093C250.024 225.814 250.377 225.58 250.754 225.392C251.158 225.189 251.521 225.074 251.839 225.05C252.156 225.025 252.421 225.071 252.641 225.189C252.861 225.308 253.025 225.486 253.14 225.73C253.252 225.971 253.307 226.26 253.307 226.592C253.307 226.892 253.283 227.171 253.227 227.425C253.175 227.68 253.095 227.917 252.993 228.137C252.889 228.357 252.763 228.563 252.61 228.755C252.456 228.947 252.282 229.131 252.086 229.306C252.997 229.222 253.454 229.711 253.454 230.782C253.454 231.288 253.374 231.766 253.217 232.223C253.06 232.676 252.847 233.095 252.582 233.475C252.317 233.855 252.01 234.197 251.657 234.497C251.308 234.797 250.942 235.041 250.562 235.23C250.171 235.425 249.822 235.551 249.519 235.607C249.215 235.663 248.943 235.645 248.706 235.554C248.468 235.467 248.259 235.307 248.081 235.073C247.903 234.839 247.746 234.532 247.617 234.155L248.395 233.398C248.598 233.206 248.786 233.088 248.96 233.042C249.135 233.001 249.257 233.039 249.334 233.158C249.501 233.433 249.683 233.608 249.874 233.677C250.066 233.747 250.286 233.716 250.544 233.587C250.74 233.489 250.911 233.367 251.057 233.217C251.204 233.067 251.322 232.91 251.42 232.742C251.518 232.575 251.587 232.4 251.636 232.226C251.685 232.052 251.71 231.881 251.71 231.724C251.71 231.518 251.699 231.34 251.675 231.19C251.65 231.04 251.58 230.932 251.469 230.872C251.357 230.813 251.186 230.806 250.959 230.858C250.733 230.911 250.415 231.036 250.007 231.239V229.84C250.349 229.669 250.628 229.498 250.837 229.334C251.047 229.166 251.211 229.002 251.326 228.838C251.441 228.674 251.518 228.507 251.556 228.336C251.594 228.165 251.612 227.987 251.612 227.806C251.612 227.432 251.535 227.181 251.378 227.056C251.221 226.93 250.984 226.947 250.663 227.108C250.405 227.237 250.185 227.425 250.004 227.677C249.826 227.924 249.7 228.183 249.634 228.455C249.553 228.734 249.452 228.943 249.323 229.086C249.194 229.229 249.013 229.337 248.775 229.414L247.837 229.672Z" fill="#CBD7E2"/>
<path d="M237.268 180.944C237.366 180.121 237.554 179.354 237.833 178.642C238.113 177.93 238.458 177.278 238.87 176.688C239.285 176.098 239.756 175.575 240.29 175.122C240.823 174.668 241.395 174.288 242.006 173.981C242.669 173.649 243.255 173.464 243.768 173.423C244.281 173.381 244.717 173.457 245.073 173.649C245.429 173.841 245.697 174.134 245.882 174.525C246.067 174.919 246.158 175.387 246.158 175.924C246.158 176.412 246.116 176.866 246.029 177.281C245.941 177.696 245.816 178.084 245.648 178.439C245.481 178.795 245.272 179.13 245.024 179.444C244.776 179.755 244.494 180.055 244.173 180.341C245.655 180.201 246.395 181.004 246.395 182.738C246.395 183.561 246.266 184.339 246.008 185.079C245.749 185.818 245.408 186.495 244.975 187.116C244.542 187.737 244.043 188.288 243.475 188.777C242.906 189.265 242.313 189.663 241.692 189.97C241.054 190.287 240.488 190.49 239.993 190.58C239.498 190.668 239.055 190.64 238.671 190.497C238.283 190.354 237.945 190.092 237.655 189.712C237.366 189.331 237.111 188.836 236.898 188.219L238.165 186.99C238.496 186.676 238.803 186.485 239.082 186.415C239.365 186.345 239.567 186.408 239.689 186.6C239.965 187.05 240.258 187.332 240.565 187.444C240.876 187.556 241.238 187.507 241.654 187.298C241.971 187.137 242.25 186.938 242.484 186.694C242.721 186.453 242.917 186.195 243.074 185.923C243.231 185.651 243.346 185.368 243.426 185.082C243.506 184.793 243.545 184.524 243.545 184.266C243.545 183.931 243.524 183.641 243.485 183.397C243.447 183.149 243.335 182.978 243.15 182.877C242.965 182.78 242.69 182.769 242.32 182.853C241.95 182.937 241.434 183.142 240.771 183.474V181.199C241.329 180.92 241.779 180.644 242.121 180.376C242.463 180.104 242.728 179.835 242.917 179.57C243.105 179.301 243.227 179.029 243.29 178.75C243.353 178.471 243.381 178.185 243.381 177.885C243.381 177.274 243.255 176.87 243 176.667C242.746 176.465 242.358 176.493 241.839 176.754C241.416 176.967 241.061 177.274 240.767 177.679C240.478 178.084 240.276 178.506 240.167 178.942C240.038 179.395 239.871 179.741 239.662 179.971C239.452 180.205 239.156 180.379 238.772 180.501L237.268 180.944Z" fill="#ECF1F8"/>
<path d="M270.06 218.152C270.06 218.501 270.004 218.847 269.896 219.188C269.788 219.53 269.641 219.851 269.46 220.148C269.278 220.444 269.069 220.71 268.832 220.943C268.595 221.177 268.343 221.358 268.085 221.488C267.799 221.631 267.538 221.704 267.297 221.711C267.06 221.718 266.85 221.662 266.676 221.54C266.501 221.421 266.365 221.24 266.268 221.003C266.17 220.765 266.121 220.469 266.121 220.12C266.121 219.757 266.17 219.405 266.268 219.063C266.365 218.721 266.501 218.4 266.676 218.103C266.85 217.807 267.06 217.542 267.297 217.304C267.538 217.071 267.799 216.879 268.085 216.736C268.371 216.593 268.637 216.52 268.881 216.513C269.125 216.506 269.331 216.565 269.509 216.687C269.683 216.809 269.819 216.99 269.917 217.238C270.011 217.486 270.06 217.789 270.06 218.152ZM268.717 218.822C268.717 218.599 268.699 218.424 268.668 218.295C268.637 218.166 268.591 218.072 268.535 218.013C268.48 217.953 268.413 217.925 268.336 217.929C268.26 217.932 268.176 217.957 268.085 218.002C267.995 218.048 267.911 218.107 267.838 218.18C267.764 218.253 267.698 218.344 267.646 218.459C267.593 218.574 267.551 218.71 267.52 218.871C267.489 219.031 267.475 219.223 267.475 219.447C267.475 219.656 267.489 219.823 267.52 219.946C267.551 220.071 267.59 220.162 267.646 220.218C267.698 220.273 267.761 220.301 267.838 220.298C267.914 220.294 267.995 220.27 268.085 220.225C268.176 220.179 268.26 220.12 268.336 220.047C268.413 219.973 268.48 219.879 268.535 219.771C268.591 219.659 268.637 219.527 268.668 219.37C268.699 219.213 268.717 219.031 268.717 218.822ZM272.645 214.852C272.701 214.751 272.771 214.646 272.854 214.541C272.938 214.437 273.053 214.349 273.2 214.273L274.477 213.634L268.277 225.974C268.221 226.086 268.152 226.19 268.064 226.285C267.981 226.382 267.876 226.459 267.757 226.518L266.449 227.174L272.645 214.852ZM274.791 220.769C274.791 221.118 274.735 221.463 274.627 221.809C274.519 222.154 274.372 222.475 274.191 222.771C274.009 223.068 273.8 223.333 273.559 223.567C273.322 223.801 273.071 223.982 272.809 224.111C272.523 224.254 272.261 224.327 272.021 224.334C271.78 224.341 271.574 224.286 271.4 224.163C271.225 224.045 271.089 223.863 270.991 223.623C270.894 223.382 270.845 223.085 270.845 222.737C270.845 222.374 270.894 222.021 270.991 221.679C271.089 221.338 271.225 221.017 271.4 220.72C271.574 220.423 271.783 220.158 272.021 219.921C272.258 219.687 272.523 219.495 272.809 219.352C273.095 219.209 273.36 219.136 273.601 219.129C273.845 219.122 274.055 219.181 274.229 219.304C274.403 219.426 274.54 219.607 274.637 219.855C274.742 220.102 274.791 220.406 274.791 220.769ZM273.448 221.439C273.448 221.222 273.43 221.048 273.399 220.915C273.367 220.786 273.322 220.692 273.266 220.633C273.21 220.573 273.144 220.546 273.067 220.549C272.991 220.553 272.907 220.577 272.816 220.622C272.725 220.668 272.642 220.727 272.568 220.8C272.492 220.874 272.429 220.964 272.376 221.079C272.324 221.194 272.282 221.331 272.251 221.491C272.219 221.652 272.206 221.843 272.206 222.06C272.206 222.269 272.219 222.436 272.251 222.562C272.282 222.688 272.324 222.778 272.376 222.834C272.429 222.89 272.492 222.918 272.568 222.914C272.645 222.911 272.725 222.887 272.816 222.841C272.907 222.796 272.991 222.737 273.067 222.663C273.144 222.59 273.21 222.496 273.266 222.388C273.322 222.28 273.367 222.143 273.399 221.986C273.434 221.829 273.448 221.648 273.448 221.439Z" fill="#CBD7E2"/>
<path d="M213.784 286.051V286.902C213.784 287.157 213.76 287.37 213.711 287.551C213.662 287.733 213.617 287.883 213.572 288.012L210.714 296.451C210.634 296.675 210.522 296.887 210.379 297.09C210.233 297.292 210.041 297.456 209.8 297.575L208.523 298.213L211.461 289.924C211.548 289.697 211.635 289.488 211.723 289.292C211.81 289.097 211.911 288.905 212.019 288.717L208.398 290.527C208.345 290.555 208.297 290.566 208.248 290.566C208.202 290.566 208.16 290.555 208.122 290.531C208.087 290.506 208.056 290.475 208.035 290.43C208.01 290.388 208 290.335 208 290.28V288.947L213.784 286.051Z" fill="#CBD7E2"/>
<path d="M249.369 271.168C249.369 272.117 249.749 272.403 250.51 272.023C250.883 271.838 251.169 271.562 251.372 271.203C251.574 270.843 251.675 270.446 251.675 270.017C251.675 269.786 251.647 269.594 251.588 269.448C251.529 269.301 251.448 269.193 251.344 269.127C251.239 269.061 251.117 269.033 250.967 269.047C250.82 269.061 250.66 269.11 250.485 269.197C250.307 269.284 250.15 269.399 250.014 269.542C249.878 269.682 249.76 269.839 249.666 270.013C249.571 270.188 249.495 270.372 249.446 270.571C249.393 270.767 249.369 270.966 249.369 271.168ZM250.768 273.474C250.82 273.373 250.873 273.275 250.921 273.181C250.97 273.087 251.016 272.996 251.058 272.905C250.712 273.293 250.318 273.596 249.878 273.816C249.61 273.948 249.345 274.029 249.076 274.05C248.807 274.071 248.567 274.025 248.35 273.907C248.134 273.788 247.96 273.593 247.823 273.314C247.687 273.038 247.621 272.665 247.621 272.194C247.621 271.761 247.691 271.321 247.827 270.868C247.963 270.414 248.162 269.982 248.413 269.567C248.668 269.151 248.971 268.771 249.324 268.426C249.676 268.08 250.074 267.798 250.51 267.581C250.953 267.358 251.351 267.24 251.699 267.222C252.048 267.205 252.345 267.274 252.589 267.438C252.833 267.599 253.018 267.843 253.147 268.168C253.276 268.492 253.343 268.89 253.343 269.361C253.343 269.985 253.262 270.582 253.098 271.157C252.938 271.73 252.718 272.302 252.45 272.874L250.677 276.677C250.597 276.844 250.478 277.008 250.318 277.176C250.157 277.343 249.976 277.476 249.774 277.577L248.158 278.386L250.768 273.474Z" fill="#CBD7E2"/>
<path fill-rule="evenodd" clip-rule="evenodd" d="M274.03 269.197L267.168 272.63V274.507L274.03 271.077V269.197Z" fill="#CBD7E2"/>
<path fill-rule="evenodd" clip-rule="evenodd" d="M274.132 196.714L267.27 200.147V202.024L274.132 198.594V196.714Z" fill="#CBD7E2"/>
<path fill-rule="evenodd" clip-rule="evenodd" d="M214.632 310.748L207.77 314.181V316.058L214.632 312.629V310.748Z" fill="#CBD7E2"/>
<path fill-rule="evenodd" clip-rule="evenodd" d="M254.151 290.991L247.285 294.421V296.301L254.151 292.872V290.991Z" fill="#CBD7E2"/>
<path fill-rule="evenodd" clip-rule="evenodd" d="M249.875 290.231V297.903L251.557 297.062V289.39L249.875 290.231Z" fill="#CBD7E2"/>
<path fill-rule="evenodd" clip-rule="evenodd" d="M274.03 273.481L267.168 276.914V278.794L274.03 275.361V273.481Z" fill="#CBD7E2"/>
<path fill-rule="evenodd" clip-rule="evenodd" d="M270.444 194.073C271.026 193.78 271.501 194.177 271.501 194.955C271.501 195.733 271.026 196.602 270.444 196.892C269.861 197.181 269.387 196.787 269.387 196.009C269.387 195.231 269.861 194.362 270.444 194.073Z" fill="#ECF1F8"/>
<path fill-rule="evenodd" clip-rule="evenodd" d="M270.702 240.474C271.284 240.18 271.759 240.578 271.759 241.353C271.759 242.131 271.284 242.999 270.702 243.289C270.119 243.582 269.645 243.184 269.645 242.41C269.645 241.632 270.119 240.763 270.702 240.474Z" fill="#CBD7E2"/>
<path fill-rule="evenodd" clip-rule="evenodd" d="M251.729 182.563C252.546 182.155 253.208 182.71 253.208 183.798C253.208 184.89 252.546 186.104 251.729 186.516C250.913 186.924 250.25 186.369 250.25 185.281C250.247 184.189 250.909 182.971 251.729 182.563Z" fill="#ECF1F8"/>
<path fill-rule="evenodd" clip-rule="evenodd" d="M270.444 202.072C271.026 201.779 271.501 202.177 271.501 202.952C271.501 203.73 271.026 204.598 270.444 204.888C269.861 205.177 269.387 204.783 269.387 204.005C269.387 203.231 269.861 202.365 270.444 202.072Z" fill="#CBD7E2"/>
</g>
<path d="M404 7.5C416 75 369.5 202 304.5 224.5" stroke="#ACC4DD" stroke-width="2" stroke-linecap="round" stroke-linejoin="round" stroke-dasharray="0.1 5"/>
<path d="M391 23L403 1L419.5 17.5" stroke="#ACC4DD" stroke-width="2" stroke-linecap="round" stroke-linejoin="round" stroke-dasharray="0.1 5"/>
<defs>
<clipPath id="clip0">
<rect width="291.97" height="382.57" fill="white" transform="translate(0 23)"/>
</clipPath>
</defs>
</svg>
