<svg width="448" height="390" viewBox="0 0 448 390" fill="none" xmlns="http://www.w3.org/2000/svg">
<g opacity="0.67" clip-path="url(#clip0)">
<path opacity="0.3" d="M8.30966 307.128C-6.66667 319.582 31.6968 332.261 39.7881 336.486C53.4039 343.591 67.1079 350.746 81.1534 357.245C102.249 367.006 123.097 378.787 145.845 384.846C175.671 392.789 196.596 383.095 223.305 373.984C240.974 367.959 258.611 361.856 276.231 355.72C307.572 344.808 338.918 333.897 370.039 322.528C379.573 319.047 388.948 316.805 397.353 311.116C399.859 309.419 402.31 307.458 403.445 304.803C404.579 302.149 403.985 298.646 401.33 296.955C400.101 296.172 398.603 295.858 397.144 295.6C383.853 293.226 371.509 295.175 358.417 295.429C343.016 295.726 327.324 294.57 311.879 294.338C291.34 294.035 270.718 293.732 250.437 295.98C236.353 297.538 222.528 300.32 208.538 302.347C180.717 306.384 152.499 307.409 124.43 306.037C110.616 305.365 96.8347 304.104 83.1142 302.347C72.0982 300.937 62.8887 295.572 51.746 296.982C43.4674 298.045 18.4059 298.728 8.30966 307.128Z" fill="#ECF1F8"/>
<path d="M142.613 237.545L4.41106 288.473C0.33512 289.96 -0.0118861 292.609 3.64545 294.394L159.313 367.904L193.425 355.902L209.073 350.19L385.407 287.074L389.819 285.498L196.509 226.584C190.313 224.007 180.227 223.792 173.954 226.083L150.01 234.841L142.613 237.545Z" fill="#ECF1F8"/>
<path d="M148.818 239.688L9.47536 291.078C5.48754 292.532 5.09647 295.099 8.6161 296.812L158.715 367.91C158.715 367.91 160.313 367.75 164.659 366.197L192.524 356.221L207.792 350.653L379.725 289.112C386.902 286.699 380.221 286.104 375.655 284.265L191.934 228.755C188.525 227.328 182.984 227.201 179.541 228.457L148.818 239.688Z" fill="#F4F6FB"/>
<path d="M389.85 284.612C383.472 282.667 377.099 280.723 370.72 278.784C355.408 274.119 340.101 269.453 324.789 264.788C306.271 259.142 287.747 253.502 269.229 247.856C253.223 242.976 237.217 238.102 221.211 233.222C213.45 230.859 205.612 228.661 197.912 226.122C189.787 223.439 181.046 222.977 172.889 225.913C165.53 228.562 158.199 231.283 150.856 233.971C143.729 236.576 136.613 239.198 129.491 241.82C113.925 247.554 98.3594 253.293 82.7937 259.027C65.3773 265.444 47.9609 271.86 30.5445 278.277C21.7097 281.533 12.7922 284.628 4.01786 288.054C0.388068 289.47 -2.02996 292.444 2.40401 294.868C3.12005 295.259 5.36733 294.168 4.89915 293.915C2.10107 292.389 1.74304 290.334 4.95973 288.836C5.19658 288.726 5.46096 288.66 5.70332 288.561C6.98669 288.049 8.30311 287.602 9.603 287.123C14.7861 285.212 19.9691 283.301 25.1522 281.395C41.522 275.364 57.8864 269.332 74.2563 263.301C90.6371 257.264 107.024 251.227 123.404 245.191C130.95 242.409 138.496 239.616 146.048 236.857C152.371 234.544 158.694 232.23 165.018 229.917C168.08 228.793 171.137 227.631 174.216 226.551C180.379 224.392 187.931 224.569 194.094 226.645C200.423 228.777 206.862 230.627 213.251 232.577C228.002 237.072 242.747 241.566 257.497 246.061C275.558 251.563 293.625 257.071 311.685 262.574C327.846 267.498 344.007 272.422 360.173 277.352C368.941 280.023 377.71 282.695 386.479 285.366C386.881 285.487 387.289 285.614 387.691 285.735C388.357 285.939 390.737 284.881 389.85 284.612Z" fill="#C2D4E5"/>
<path d="M176.666 316.26C159.377 308.852 142.081 301.444 124.792 294.035C122.308 292.972 119.829 291.909 117.345 290.846C116.227 290.367 114.255 291.975 115.808 292.636C133.098 300.044 150.393 307.453 167.683 314.861C170.167 315.924 172.645 316.987 175.13 318.05C176.253 318.529 178.22 316.927 176.666 316.26Z" fill="#C2D4E5"/>
<path d="M173.512 327.54C148.742 316.778 123.972 306.015 99.2027 295.247C95.6555 293.705 92.1084 292.162 88.5612 290.62C87.4431 290.135 85.4767 291.738 87.0245 292.41C111.794 303.173 136.564 313.936 161.333 324.704C164.88 326.246 168.428 327.788 171.975 329.331C173.087 329.815 175.059 328.212 173.512 327.54Z" fill="#C2D4E5"/>
<path d="M2.30226 315.809L139.188 384.422C145.753 387.694 153.002 390.195 159.314 386.929L162.492 384.45C166.403 377.559 163.875 370.383 157.094 367.056L1.4375 293.287C1.4375 293.287 3.38183 296.112 3.17253 305.239C2.97975 313.584 2.30226 315.809 2.30226 315.809Z" fill="#ECF1F8"/>
<path d="M7.35938 313.793L144.052 381.889C150.408 385.05 157.145 387.028 162.085 384.466C162.085 384.466 170.122 372.927 157.376 367.039L8.04788 296.729C8.04788 296.729 8.63173 300.491 8.94569 307.222C9.19906 312.581 7.35938 313.793 7.35938 313.793Z" fill="white"/>
<path d="M95.3494 363.723C97.4094 364.753 99.4694 365.777 101.529 366.807C102.29 367.187 104.735 366.075 103.65 365.535C101.59 364.505 99.53 363.481 97.47 362.451C96.7099 362.071 94.2698 363.183 95.3494 363.723Z" fill="#C2D4E5"/>
<path d="M159.312 386.928L369.477 313.066C377.656 310.18 385.792 306.588 388.38 302.276L390.529 289.502C390.022 285.702 390.005 285.504 383.935 287.883C382.371 288.445 380.807 289.001 379.248 289.563C375.012 291.078 370.804 292.587 366.618 294.085C360.317 296.343 354.065 298.574 347.874 300.794C340.125 303.57 332.457 306.313 324.873 309.023C316.264 312.102 307.765 315.148 299.371 318.15C290.448 321.344 281.64 324.495 272.949 327.607C264.18 330.747 255.521 333.842 246.984 336.899C238.771 339.84 230.658 342.743 222.649 345.607C215.335 348.224 208.103 350.812 200.948 353.374C194.823 355.566 188.764 357.736 182.76 359.884C178.095 361.553 173.468 363.211 168.874 364.852C167.178 365.458 165.481 366.064 163.791 366.67C162.97 366.962 159.571 367.744 159.984 368.686C160.166 369.104 160.535 369.44 160.888 369.765C163.003 371.688 164.418 373.329 164.826 375.934C165.107 377.752 164.507 379.498 163.757 381.007C162.667 383.2 161.103 385.237 159.312 386.928Z" fill="#ECF1F8"/>
<path d="M164.915 379.818C164.915 379.818 360.103 311.463 360.109 311.463C365.187 309.684 370.624 308.323 375.366 305.922C381.7 302.711 385.011 296.701 385.732 290.725C386.107 287.613 382.973 288.191 380.445 289.106L159.396 368.019C159.396 368.019 159.099 368.532 160.547 369.363C166.948 373.032 164.915 379.818 164.915 379.818Z" fill="white"/>
<path d="M162.047 386.543C170.491 383.579 178.934 380.616 187.378 377.658C206.97 370.784 226.557 363.916 246.149 357.042C268.269 349.281 290.395 341.52 312.515 333.759C328.555 328.136 344.594 322.506 360.633 316.883C363.679 315.814 366.731 314.751 369.771 313.677C375.5 311.656 381.624 309.485 386.438 305.663C388.3 304.187 389.468 302.859 389.87 300.573C390.333 297.935 390.801 295.297 391.264 292.658C391.77 289.8 393.186 284.226 388.427 285.41C386.4 285.916 384.511 286.93 382.544 287.641C378.986 288.929 375.422 290.191 371.859 291.463C355.693 297.252 339.521 303.035 323.355 308.824C301.345 316.701 279.34 324.577 257.33 332.454C236.945 339.752 216.56 347.045 196.18 354.343C184.883 358.386 173.586 362.429 162.289 366.471C161.76 366.659 161.232 366.851 160.697 367.039C158.946 367.667 160.543 368.537 161.744 368.107C169.466 365.342 177.183 362.583 184.905 359.818C203.23 353.258 221.561 346.698 239.886 340.138C261.775 332.305 283.67 324.467 305.559 316.635C324.021 310.025 342.49 303.415 360.958 296.806C368.785 294.002 376.673 291.336 384.45 288.401C385.513 287.999 387.149 286.891 388.289 286.869C389.429 286.847 389.264 288.335 389.192 289.447C389.071 291.391 388.543 293.374 388.201 295.291C387.815 297.472 387.738 300.1 386.989 302.182C385.733 305.668 380.247 307.91 377.168 309.293C372.9 311.209 368.455 312.691 364.048 314.239C350.168 319.108 336.293 323.977 322.413 328.846C301.191 336.287 279.974 343.734 258.751 351.176C238.289 358.353 217.827 365.53 197.37 372.707C185.797 376.766 174.225 380.825 162.658 384.885C162.107 385.078 161.557 385.27 161.006 385.463C159.249 386.091 160.846 386.967 162.047 386.543Z" fill="#C2D4E5"/>
<path d="M86.9277 347.039C65.9641 336.943 45.0006 326.841 24.037 316.745C21.0682 315.313 18.0994 313.881 15.125 312.455C14.0234 311.926 12.0681 313.512 13.5883 314.245C34.5518 324.341 55.5154 334.443 76.479 344.539C79.4478 345.971 82.4166 347.403 85.391 348.83C86.4926 349.358 88.4534 347.772 86.9277 347.039Z" fill="#ECF1F8"/>
<path d="M137.709 371.726C134.057 369.919 130.41 368.113 126.759 366.306C125.662 365.766 123.707 367.347 125.222 368.096C128.874 369.903 132.52 371.709 136.172 373.516C137.268 374.056 139.223 372.475 137.709 371.726Z" fill="#ECF1F8"/>
<path d="M92.0573 342.319C69.4633 331.534 46.8749 320.755 24.281 309.97C21.0808 308.444 17.8861 306.919 14.686 305.393C13.5844 304.87 11.6235 306.456 13.1492 307.183C35.7432 317.968 58.3316 328.747 80.9255 339.532C84.1257 341.057 87.3204 342.583 90.5205 344.109C91.6221 344.638 93.583 343.046 92.0573 342.319Z" fill="#ECF1F8"/>
<path d="M142.509 366.168C138.725 364.373 134.947 362.572 131.163 360.776C130.061 360.253 128.1 361.845 129.626 362.566C133.41 364.362 137.188 366.163 140.972 367.958C142.074 368.487 144.035 366.895 142.509 366.168Z" fill="#ECF1F8"/>
<path d="M116.305 374.172C123.444 377.73 130.566 381.321 137.715 384.852C145.536 388.713 160.441 393.108 164.969 382.428C167.084 377.438 165.569 370.971 161.091 367.815C159.868 366.951 158.42 366.389 157.065 365.75C152.84 363.75 148.615 361.756 144.391 359.757C127.217 351.633 110.043 343.514 92.8686 335.39C73.5574 326.257 54.2518 317.125 34.9407 307.993C27.8133 304.622 20.6804 301.251 13.553 297.88C10.0664 296.233 6.57981 294.234 2.97205 292.873C2.81231 292.812 2.65809 292.724 2.50386 292.653C2.02467 292.427 -0.250151 292.757 0.113379 293.644C1.47937 296.999 1.68868 301.008 1.79884 304.567C1.89247 307.684 1.89798 310.912 1.45734 314.013C1.39124 314.498 1.24252 315.594 1.07178 315.792C0.862471 316.034 0.994664 316.321 1.24803 316.447C24.7618 328.273 48.2756 340.099 71.7894 351.925C75.0997 353.588 78.41 355.257 81.7204 356.92C82.4805 357.3 84.9205 356.193 83.8409 355.648C71.6517 349.518 59.4679 343.387 47.2786 337.262C38.3281 332.762 29.372 328.257 20.4215 323.757C17.0065 322.038 13.586 320.32 10.171 318.601C8.23221 317.626 6.26585 316.381 4.22788 315.616C3.15932 315.214 3.78723 315.043 3.56141 315.82C3.96349 314.431 4.21135 313.115 4.31601 311.639C4.74012 305.718 5.0651 298.579 2.77376 292.939C1.97509 293.27 1.18194 293.6 0.383272 293.931C8.5682 297.803 16.7531 301.669 24.9326 305.542C42.9053 314.04 60.8725 322.539 78.8452 331.038C96.6692 339.471 114.499 347.898 132.323 356.331C140.64 360.264 149.062 364.037 157.307 368.118C162.87 370.867 164.699 378.154 161.923 383.524C160.816 385.667 157.985 387.484 154.917 387.633C151.182 387.809 147.387 386.746 143.934 385.413C136.063 382.379 128.583 377.972 121.048 374.216C120.172 373.781 119.296 373.34 118.42 372.905C117.666 372.519 115.22 373.632 116.305 374.172Z" fill="#C2D4E5"/>
<path d="M261.584 297.302C287.411 288.01 286.91 271.546 260.956 260.789C235.608 250.28 195.465 249.222 170.833 258.184C146.268 267.118 145.59 282.948 169.765 293.782C194.507 304.875 235.828 306.566 261.584 297.302Z" fill="white"/>
<path d="M129.594 359.311C115.593 365.381 113.924 373.583 113.924 373.583C109.887 369.733 101.085 358.92 101.085 358.92C101.085 358.92 92.3436 355.533 85.5742 359.636L98.3253 343.999L129.594 359.311Z" fill="#ECF1F8"/>
<path d="M127.302 358.198C121.546 361.14 112.959 366.73 112.568 374.155C113.422 373.924 114.276 373.698 115.135 373.467C110.745 369.479 107.099 364.549 103.474 359.878C102.632 358.788 102.29 358.198 100.963 357.824C97.9665 356.97 94.6837 356.739 91.5992 357.168C89.754 357.427 87.9418 357.923 86.2564 358.722C85.9149 358.898 85.5789 359.074 85.2429 359.25C85.8488 359.118 86.3005 359.234 86.6089 359.597C86.708 359.548 86.8182 359.047 86.9118 358.942C88.2613 357.444 89.2858 355.389 90.5251 353.77C92.7338 350.884 95.0197 348.053 97.3496 345.26C98.4016 344.004 95.8514 343.795 95.1629 344.621C93.4664 346.654 91.792 348.719 90.1506 350.796C88.2007 353.269 85.2264 356.216 84.1468 359.234C83.8714 360 83.7668 360.523 84.6315 360.87C85.1548 361.079 85.7992 360.826 86.2949 360.65C88.1512 359.978 89.7099 359.096 91.7314 358.854C94.3422 358.54 97.4707 358.678 99.9659 359.631C100.594 359.867 99.6244 359.173 100.115 359.801C100.555 360.363 100.985 360.93 101.426 361.492C104.934 365.992 108.459 370.735 112.695 374.579C113.301 375.13 115.207 374.937 115.262 373.891C115.614 367.232 123.276 362.203 128.442 359.564C130.051 358.738 128.58 357.543 127.302 358.198Z" fill="#C2D4E5"/>
<path d="M150.1 217.897L14.0735 264.374C9.93692 265.773 9.56789 268.296 13.2638 270.009L163.209 333.957L373.786 257.495L200.939 208.644C195.183 206.182 185.753 205.813 179.849 207.818L157.161 215.513L150.1 217.897Z" fill="white"/>
<path d="M155.988 219.963L19.1744 266.875C15.137 268.246 14.7294 270.686 18.2711 272.328L163.165 334.073L365.057 260.662C371.253 258.552 365.514 258.018 361.598 256.393L196.654 210.561C193.487 209.2 188.304 208.991 185.071 210.092L155.988 219.963Z" fill="white"/>
<path d="M148.501 300.011C132.947 293.402 117.392 286.792 101.832 280.188C99.6009 279.24 97.3701 278.293 95.1339 277.346C94.0157 276.872 92.0439 278.48 93.5971 279.136C109.152 285.745 124.706 292.355 140.267 298.959C142.497 299.907 144.728 300.854 146.964 301.801C148.083 302.281 150.054 300.672 148.501 300.011Z" fill="#C2D4E5"/>
<path d="M181.725 290.488C165.317 283.625 148.908 276.762 132.5 269.899C130.181 268.93 127.862 267.96 125.543 266.991C124.42 266.523 122.448 268.131 124.007 268.781C140.415 275.644 156.823 282.507 173.232 289.37C175.551 290.339 177.87 291.309 180.188 292.278C181.307 292.752 183.279 291.144 181.725 290.488Z" fill="#C2D4E5"/>
<path d="M178.667 300.832C155.032 290.868 131.392 280.91 107.757 270.946C104.386 269.525 101.02 268.104 97.6495 266.688C96.5314 266.214 94.5595 267.823 96.1128 268.478C119.748 278.442 143.388 288.401 167.023 298.365C170.394 299.786 173.759 301.207 177.13 302.622C178.254 303.096 180.22 301.488 178.667 300.832Z" fill="#C2D4E5"/>
<path d="M11.7842 290.4L145.74 353.5C151.953 356.413 158.81 358.594 164.797 355.493L167.816 353.175C171.556 346.802 169.551 337.031 163.172 334.073L11.0352 268.946C11.0352 268.946 12.9905 271.645 12.7261 280.331C12.4838 288.279 11.7842 290.4 11.7842 290.4Z" fill="#ECF1F8"/>
<path d="M16.9141 288.472L150.39 351.087C156.399 353.902 162.756 355.615 167.432 353.186C167.432 353.186 175.364 339.729 163.389 334.502L17.7017 272.245C17.7017 272.245 18.269 275.82 18.5499 282.226C18.7758 287.321 16.9141 288.472 16.9141 288.472Z" fill="white"/>
<path d="M164.8 355.488L355.251 287.486C362.335 284.947 369.369 281.796 371.632 278.018L374.353 261.003C373.962 257.671 373.946 257.495 368.708 259.571L163.445 334.018C163.445 334.018 167.4 336.497 168.281 338.496C173.569 350.454 164.8 355.488 164.8 355.488Z" fill="white"/>
<path d="M170.133 348.884C170.133 348.884 347.15 286.081 347.15 286.076C351.573 284.506 356.283 283.311 360.397 281.201C365.883 278.387 369.535 267.316 370.212 262.072C370.565 259.34 367.866 259.847 365.679 260.645L163.281 334.056C163.281 334.056 164.047 334.728 165.407 335.472C171.411 338.744 170.133 348.884 170.133 348.884Z" fill="white"/>
<path d="M168.801 332.795C175.625 330.311 182.45 327.832 189.269 325.348C205.567 319.416 221.865 313.49 238.164 307.557C257.965 300.353 277.766 293.148 297.568 285.944C314.626 279.736 331.679 273.534 348.737 267.327C354.411 265.261 360.084 263.196 365.763 261.13C368.401 260.172 371.238 259.401 373.782 258.211C373.898 258.156 374.025 258.123 374.14 258.079C374.779 257.847 375.369 257.098 374.438 256.834C353.601 250.929 332.759 245.03 311.922 239.126C280.438 230.208 248.954 221.291 217.47 212.373C213.378 211.216 209.285 210.054 205.193 208.898C201.827 207.945 198.5 206.656 195.041 206.171C189.908 205.45 184.493 205.609 179.536 207.207C176.639 208.137 173.769 209.162 170.889 210.137C164.83 212.191 158.765 214.246 152.707 216.3C130.19 223.934 107.706 231.668 85.2057 239.357C61.3504 247.509 37.2693 255.182 13.5903 263.824C12.3785 264.264 10.5168 264.854 9.77319 266.038C8.62752 267.856 10.9023 268.996 12.2738 269.679C13.0339 270.059 15.474 268.946 14.3944 268.406C13.7941 268.103 12.5382 267.679 12.2849 266.991C11.7506 265.526 13.6839 265.25 14.5872 264.903C14.6203 264.892 14.6533 264.881 14.6808 264.87C14.9562 264.766 15.2372 264.683 15.5126 264.584C16.7188 264.165 17.9306 263.758 19.1368 263.344C23.9398 261.703 28.7428 260.062 33.5458 258.42C48.6819 253.248 63.818 248.076 78.9596 242.904C102.787 234.763 126.615 226.606 150.448 218.476C150.839 218.344 149.997 218.63 150.938 218.311C152.844 217.666 154.75 217.016 156.656 216.372C158.54 215.733 160.429 215.094 162.313 214.455C168.801 212.257 175.394 209.355 182.097 207.873C191.825 205.725 201.97 209.872 211.323 212.522C241.022 220.933 270.727 229.349 300.426 237.76C324.144 244.479 347.862 251.194 371.579 257.914C371.981 258.029 372.383 258.139 372.785 258.255C372.885 257.842 372.984 257.423 373.083 257.01C366.258 259.494 359.434 261.973 352.615 264.457C336.317 270.389 320.018 276.316 303.72 282.248C283.919 289.452 264.117 296.657 244.316 303.862C227.258 310.069 210.205 316.271 193.147 322.479C187.473 324.544 181.8 326.61 176.121 328.675C173.483 329.634 170.646 330.405 168.102 331.594C167.986 331.65 167.859 331.683 167.743 331.727C166.014 332.36 167.606 333.23 168.801 332.795Z" fill="#C2D4E5"/>
<path d="M167.41 355.147C175.083 352.415 182.755 349.677 190.428 346.945C208.131 340.633 225.839 334.326 243.542 328.014C263.536 320.887 283.525 313.765 303.519 306.637C318.055 301.46 332.59 296.277 347.126 291.099C349.93 290.102 352.739 289.105 355.542 288.103C360.538 286.313 365.897 284.385 370.078 281.02C371.791 279.643 372.755 278.453 373.14 276.365C373.576 274.002 374.011 271.639 374.446 269.276C374.864 267.002 375.289 264.71 375.547 262.419C375.663 261.383 372.986 261.874 372.887 262.76C372.369 267.431 371.334 272.08 370.48 276.707C369.951 279.565 367.599 281.047 365.143 282.452C361.854 284.33 358.252 285.685 354.7 286.963C352.458 287.772 350.21 288.566 347.963 289.364C334.347 294.217 320.732 299.069 307.11 303.922C287.452 310.928 267.788 317.934 248.13 324.941C230.075 331.374 212.02 337.807 193.964 344.246C187.839 346.427 181.714 348.614 175.589 350.795C172.681 351.831 169.564 352.668 166.749 353.946C166.622 354.001 166.485 354.04 166.358 354.084C164.617 354.706 166.215 355.576 167.41 355.147Z" fill="#C2D4E5"/>
<path d="M145.953 337.46C132.398 331.335 118.837 325.21 105.282 319.085C83.6797 309.325 62.0827 299.565 40.4802 289.81C35.534 287.574 30.5878 285.343 25.6416 283.107C24.529 282.606 22.5681 284.203 24.1048 284.897C37.6601 291.022 51.2209 297.147 64.7761 303.272C86.3786 313.032 107.976 322.792 129.578 332.547C134.524 334.783 139.471 337.014 144.417 339.25C145.529 339.757 147.49 338.16 145.953 337.46Z" fill="#ECF1F8"/>
<path d="M10.7938 271.336C11.5099 275.985 11.5154 280.865 11.251 285.547C11.1849 286.671 11.2565 289.606 10.5515 290.372C10.3367 290.609 10.4744 290.912 10.7278 291.027C33.5585 301.818 56.3838 312.608 79.2146 323.398C96.6475 331.638 114.119 339.801 131.585 347.986C137.468 350.745 143.378 354.05 149.585 356.039C156.536 358.269 167.343 359.156 170.389 350.757C172.68 344.433 170.708 336.595 164.308 333.803C162.325 332.938 160.348 332.073 158.365 331.209C132.835 320.066 107.3 308.923 81.7703 297.78C59.9475 288.257 38.1302 278.734 16.3074 269.21C15.9383 269.05 15.5638 268.885 15.1948 268.725C14.4181 268.384 11.9891 269.524 13.0742 269.998C32.1154 278.309 51.1567 286.615 70.1979 294.927C97.4957 306.841 124.799 318.755 152.097 330.669C155.049 331.958 158.007 333.246 160.959 334.535C161.411 334.734 161.868 334.932 162.32 335.13C166.682 337.036 168.511 341.233 168.555 345.827C168.593 349.985 167.409 354.089 163.438 355.598C158.293 357.559 151.48 354.998 146.798 352.85C140.96 350.167 135.16 347.397 129.338 344.665C111.795 336.441 94.2515 328.229 76.736 319.95C62.1342 313.049 47.5379 306.147 32.9361 299.251C27.5217 296.69 22.1018 294.134 16.6874 291.573C15.7456 291.127 14.2254 289.992 13.1678 289.909C12.4903 289.86 13.3331 289.474 13.0577 290.355C13.3386 289.441 13.5754 288.637 13.6966 287.657C14.3741 282.143 14.297 276.101 13.4487 270.615C13.322 269.75 10.6451 270.367 10.7938 271.336Z" fill="#C2D4E5"/>
<path d="M260.026 273.386C283.341 265.124 283.044 250.379 259.789 240.503C236.815 230.748 199.784 229.321 176.661 237.264C153.363 245.267 152.597 259.874 175.373 269.949C198.435 280.149 236.528 281.714 260.026 273.386Z" fill="white"/>
<path d="M154.653 188.094L20.8081 235.672C16.7267 237.077 16.297 240.062 19.9158 241.714L166.22 301.454L375.239 225.559L204.319 178.702C198.74 176.334 189.558 176.037 183.78 178.031L161.571 185.703L154.653 188.094Z" fill="#ECF1F8"/>
<path d="M160.382 190.076L25.7987 238.084C21.8164 239.461 21.3923 241.857 24.8568 243.438L166.116 302.115L366.74 228.71C372.772 226.605 363.303 225.664 359.541 224.11L200.117 180.602C197.043 179.297 191.998 179.126 188.836 180.217L160.382 190.076Z" fill="white"/>
<path d="M370.626 223.405C350.181 217.804 329.735 212.202 309.289 206.6C279.055 198.316 248.822 190.038 218.583 181.754C210.849 179.633 202.092 176.229 194.111 176.102C186.184 175.976 179.024 179.115 171.671 181.654C165.975 183.621 160.28 185.571 154.59 187.554C132.701 195.182 110.906 203.081 89.0614 210.841C66.1865 218.971 43.1079 226.683 20.3873 235.253C16.8842 236.575 14.2568 239.373 18.7073 241.67C19.4344 242.044 21.6596 240.954 21.2024 240.717C18.465 239.301 18.0133 237.423 21.3512 236.024C21.5715 235.931 21.8083 235.864 22.0342 235.782C23.1688 235.347 24.3255 234.967 25.4712 234.559C29.9492 232.967 34.4217 231.375 38.8997 229.789C53.3473 224.65 67.8004 219.517 82.2479 214.378C106.29 205.829 130.322 197.248 154.376 188.738C164.125 185.29 173.896 181.858 183.706 178.597C193.361 175.392 203.105 179.22 212.458 181.781C240.714 189.52 268.965 197.264 297.221 205.003C320.58 211.403 343.934 217.798 367.294 224.198C367.68 224.303 368.071 224.413 368.456 224.518C369.139 224.711 371.508 223.648 370.626 223.405Z" fill="#C2D4E5"/>
<path d="M18.0968 263.664L148.973 320.722C155.01 323.503 161.669 325.563 167.541 322.473L170.509 320.176C174.222 313.919 172.371 304.39 166.18 301.565L17.7773 240.183C17.7773 240.183 19.7602 241.797 19.4132 250.323C19.0938 258.117 18.0968 263.664 18.0968 263.664Z" fill="#ECF1F8"/>
<path d="M23.1055 262.254L153.53 318.326C159.363 321.014 165.543 322.622 170.131 320.204C170.131 320.204 178.002 306.985 166.386 301.995L24.2952 243.367C24.2952 243.367 24.9066 245.851 25.1159 252.13C25.2866 257.126 23.1055 262.254 23.1055 262.254Z" fill="white"/>
<path d="M167.541 322.473L356.919 254.928C363.815 252.395 370.667 249.272 372.903 245.57L375.745 228.975C375.403 225.73 375.392 225.56 370.292 227.625L166.445 301.51C166.445 301.51 170.273 303.895 171.116 305.834C176.145 317.467 167.541 322.473 167.541 322.473Z" fill="#ECF1F8"/>
<path d="M172.816 315.968C172.816 315.968 360.469 249.922 364.496 247.823C369.86 245.03 370.218 235.066 370.934 229.955C371.309 227.295 368.687 227.807 366.567 228.6L166.289 301.554C166.289 301.554 167.027 302.204 168.344 302.914C174.166 306.054 172.816 315.968 172.816 315.968Z" fill="white"/>
<path d="M170.115 322.126C177.827 319.383 185.532 316.64 193.244 313.897C211.084 307.546 228.919 301.201 246.76 294.85C266.798 287.718 286.836 280.59 306.874 273.457C321.179 268.368 335.488 263.273 349.793 258.184C352.316 257.286 354.849 256.399 357.366 255.485C362.737 253.535 369.55 251.243 373.329 246.666C374.474 245.278 374.518 243.543 374.854 241.814C375.295 239.55 375.857 237.27 376.187 234.984C376.545 232.505 376.446 229.861 376.578 227.35C376.633 226.325 376.898 225.19 375.725 224.843C373.962 224.32 371.092 226.578 369.578 227.162C366.967 228.17 364.301 229.074 361.668 230.026C347.628 235.11 333.588 240.194 319.554 245.284C299.692 252.477 279.83 259.671 259.968 266.864C241.318 273.617 222.668 280.375 204.017 287.128C193.613 290.896 183.213 294.663 172.809 298.431C172.319 298.607 171.834 298.783 171.344 298.959C169.598 299.593 171.189 300.463 172.39 300.028C179.49 297.456 186.595 294.883 193.695 292.311C210.456 286.241 227.223 280.166 243.984 274.096C263.89 266.886 283.796 259.676 303.696 252.466C319.95 246.578 336.199 240.696 352.453 234.807C357.19 233.089 361.927 231.376 366.664 229.657C368.906 228.848 372.618 228.005 374.397 226.468C374.441 226.43 375.009 226.193 375.003 226.187C373.543 221.197 373.857 226.38 373.924 226.287C373.896 226.325 373.973 226.634 373.962 226.667C373.615 227.405 373.83 229.074 373.78 229.878C373.648 232.169 373.714 234.394 373.274 236.642C372.811 239.027 372.343 241.406 371.88 243.791C371.329 246.6 369.798 247.928 367.281 249.486C362.726 252.306 357.543 253.986 352.508 255.776C340.264 260.133 328.014 264.49 315.77 268.853C296.541 275.699 277.307 282.54 258.079 289.386C239.428 296.024 220.778 302.661 202.128 309.298C191.613 313.038 181.093 316.783 170.578 320.523C170.077 320.7 169.576 320.881 169.08 321.058C167.317 321.686 168.915 322.556 170.115 322.126Z" fill="#C2D4E5"/>
<path d="M94.461 286.682C75.9595 278.734 57.4636 270.786 38.9621 262.838C36.2907 261.692 33.6193 260.541 30.9479 259.395C29.8298 258.916 27.8634 260.519 29.4112 261.185C47.9126 269.133 66.4086 277.081 84.9101 285.03C87.5815 286.175 90.2529 287.326 92.9243 288.472C94.0424 288.957 96.0088 287.348 94.461 286.682Z" fill="#ECF1F8"/>
<path d="M147.814 309.606C140.654 306.532 133.499 303.453 126.339 300.38C125.22 299.901 123.254 301.504 124.802 302.17C131.962 305.244 139.117 308.323 146.278 311.396C147.396 311.875 149.362 310.272 147.814 309.606Z" fill="#ECF1F8"/>
<path d="M99.7548 281.108C79.59 272.714 59.4251 264.314 39.2602 255.92C36.3905 254.724 33.5263 253.529 30.6566 252.339C29.533 251.871 27.5611 253.485 29.1199 254.129C49.2848 262.524 69.4497 270.923 89.6146 279.318C92.4842 280.513 95.3484 281.708 98.2181 282.898C99.3417 283.366 101.314 281.752 99.7548 281.108Z" fill="#ECF1F8"/>
<path d="M148.05 301.212C143.263 299.218 138.482 297.23 133.696 295.236C132.572 294.768 130.6 296.381 132.159 297.026C136.945 299.02 141.726 301.008 146.513 303.002C147.636 303.47 149.608 301.862 148.05 301.212Z" fill="#ECF1F8"/>
<path d="M147.912 321.361C155.21 324.654 168.76 327.877 172.863 318.331C175.568 312.036 173.623 303.911 167.063 301.196C158.608 297.698 150.148 294.223 141.693 290.736C125.505 284.06 109.312 277.384 93.1234 270.709C76.9353 264.033 60.7417 257.357 44.5536 250.682C38.8748 248.341 33.196 246 27.5173 243.659C24.7798 242.53 22.0147 241.098 19.1781 240.222C19.0459 240.183 18.9192 240.117 18.7925 240.062C18.2472 239.836 15.8237 240.271 16.4957 241.213C18.407 243.885 18.0985 248.864 18.0434 251.871C17.9663 255.832 17.7405 259.979 16.7711 263.84C16.7215 264.044 16.8592 264.226 17.041 264.308C31.819 270.753 46.5971 277.192 61.3696 283.636C84.8228 293.859 108.276 304.082 131.724 314.31C137.122 316.651 142.519 319.003 147.912 321.361C148.688 321.697 151.117 320.562 150.032 320.088C132.319 312.366 114.605 304.644 96.8909 296.921C72.8814 286.456 48.8719 275.985 24.8624 265.52C23.4799 264.914 22.0918 264.314 20.7093 263.708C20.3072 263.532 19.4755 263.356 19.1616 263.031C19.7179 263.603 19.3929 263.289 19.6298 262.573C19.9107 261.731 19.9547 260.728 20.0759 259.852C20.5055 256.696 20.7093 253.491 20.7203 250.307C20.7314 247.283 20.8691 242.827 18.9743 240.178C18.2087 240.563 17.4431 240.949 16.6775 241.329C37.7347 250.01 58.7863 258.696 79.8435 267.376C106.877 278.525 133.916 289.673 160.949 300.821C164.342 302.22 168.198 303.278 169.966 306.808C171.172 309.221 171.475 312.102 171.183 314.751C171.062 315.875 170.842 317.02 170.445 318.083C170.28 318.524 170.093 318.937 169.867 319.35C169.487 320.05 169.685 319.659 169.448 319.967C164.937 325.828 155.623 322.605 150.038 320.088C149.261 319.736 146.827 320.87 147.912 321.361Z" fill="#C2D4E5"/>
<path d="M132.749 292.851C120.538 297.996 118.874 304.363 118.874 304.363C115.481 301.554 108.117 293.54 108.117 293.54C108.117 293.54 100.571 291.226 94.5234 294.636L106.112 282.11L132.749 292.851Z" fill="white"/>
<path d="M130.504 292.372C125.795 294.685 118.106 298.992 117.517 305.057C118.376 304.781 119.235 304.511 120.094 304.236C116.211 301.168 113.369 297.125 109.882 293.672C107.597 291.408 102 292.228 99.1693 292.807C97.7978 293.088 96.1839 293.468 94.9391 294.156C92.8901 295.291 95.4128 294.531 95.567 294.437C95.6992 294.355 95.7598 293.975 95.881 293.848C97.0817 292.575 98.0787 291 99.2354 289.673C101.262 287.343 103.355 285.068 105.476 282.826C106.06 282.209 103.526 282.49 103.058 282.986C100.882 285.288 98.7341 287.624 96.6576 290.02C96.0022 290.774 91.6673 294.982 93.5401 295.533C94.1019 295.699 94.9501 295.274 95.4514 295.082C97.5885 294.272 99.4392 293.572 101.764 293.512C103.471 293.468 106.12 293.506 107.194 294.393C108.819 295.737 110.136 297.748 111.568 299.301C113.463 301.35 115.39 303.432 117.583 305.167C118.1 305.574 120.094 305.068 120.16 304.346C120.667 299.108 127.767 294.889 132.041 292.79C133.639 292.019 131.176 292.047 130.504 292.372Z" fill="#C2D4E5"/>
<path d="M303.248 230.45C303.248 236.955 300.301 242.827 295.773 245.294C282.268 252.653 249.98 266.175 195.114 266.175C144.87 266.175 110.632 252.262 96.1625 244.986C91.4751 242.629 88.3906 236.647 88.3906 229.988V144.971H303.248V230.45Z" fill="white"/>
<path d="M201.46 209.404C197.478 210.555 193.159 210.555 189.177 209.404L88.5508 180.366V231.508C88.5508 238.002 91.5361 243.84 96.0637 246.137C110.049 253.237 143.119 266.803 191.661 266.803C244.665 266.803 275.857 253.617 288.905 246.44C293.279 244.039 296.126 238.31 296.126 231.965V182.084L201.46 209.404Z" fill="white"/>
<path d="M301.922 152.726C301.922 172.803 301.922 192.885 301.922 212.962C301.922 217.55 301.922 222.139 301.922 226.727C301.922 230.329 302.027 233.854 300.821 237.335C298.507 244.022 292.361 246.468 286.401 249.095C280.661 251.623 274.757 253.771 268.764 255.6C249.91 261.35 230.202 264.17 210.544 265.09C187.267 266.181 163.875 264.666 141.11 259.56C126.943 256.382 112.986 251.893 99.8659 245.636C96.1921 243.884 93.3003 241.885 91.5212 238.04C90.2434 235.286 89.7477 232.317 89.7311 229.299C89.7091 226.435 89.7311 223.571 89.7311 220.706C89.7311 198.735 89.7311 176.758 89.7311 154.786C89.7311 154.252 89.7311 153.718 89.7311 153.184C89.7311 152.39 87.0708 152.881 87.0708 153.894C87.0708 174.648 87.0708 195.408 87.0708 216.162C87.0708 224.678 85.3522 236.223 91.6259 242.964C93.6859 245.179 96.5115 246.341 99.2049 247.591C101.898 248.841 104.625 250.015 107.379 251.116C114.545 253.992 121.887 256.415 129.334 258.453C150.562 264.27 172.621 266.902 194.61 266.908C216.289 266.913 238.101 264.864 259.175 259.632C271.441 256.586 283.559 252.466 294.795 246.633C301.317 243.245 304.528 237.324 304.588 229.965C304.61 227.256 304.588 224.54 304.588 221.83C304.588 199.143 304.588 176.455 304.588 153.762C304.588 153.178 304.588 152.594 304.588 152.01C304.583 151.223 301.922 151.707 301.922 152.726Z" fill="#C2D4E5"/>
<path d="M189.681 202.954L54.04 165.736C44.9242 163.236 44.9242 152.925 54.04 150.424L189.681 113.201C193.663 112.11 197.981 112.11 201.964 113.201L337.604 150.419C346.72 152.919 346.72 163.23 337.604 165.731L201.964 202.949C197.981 204.045 193.663 204.045 189.681 202.954Z" fill="white"/>
<path d="M189.762 198.399L62.1468 163.385C53.5708 161.033 53.5708 151.333 62.1468 148.976L189.762 113.961C193.508 112.931 197.573 112.931 201.318 113.961L328.934 148.976C337.51 151.327 337.51 161.027 328.934 163.385L201.318 198.399C197.573 199.429 193.508 199.429 189.762 198.399Z" fill="white"/>
<path d="M190.765 202.398C174.103 197.826 157.436 193.255 140.774 188.678C116.081 181.903 91.3889 175.128 66.6909 168.347C63.5733 167.494 60.4503 166.634 57.3327 165.781C54.3198 164.954 51.1527 164.09 49.4673 161.159C46.6416 156.252 50.5634 151.933 55.1901 150.628C57.7183 149.912 60.263 149.234 62.7967 148.54C86.8337 141.947 110.871 135.349 134.902 128.756C153.112 123.76 171.272 118.527 189.542 113.763C196.581 111.929 203.086 114.358 209.784 116.197C220.222 119.062 230.654 121.926 241.092 124.79C266.869 131.862 292.641 138.934 318.419 146.007C324.379 147.643 330.377 149.168 336.303 150.914C338.755 151.636 341.073 152.881 342.307 155.227C344.554 159.507 341.74 163.875 337.477 165.246C336.127 165.681 334.734 166.001 333.368 166.375C311.247 172.445 289.127 178.515 267.007 184.585C246.016 190.346 225.03 196.102 204.039 201.864C199.627 203.07 195.336 203.549 190.765 202.398C190.098 202.233 187.746 203.29 188.6 203.505C196.857 205.582 204.441 202.795 212.29 200.641C223.444 197.578 234.603 194.516 245.757 191.459C271.804 184.31 297.852 177.166 323.894 170.016C327.386 169.058 330.884 168.099 334.376 167.141C336.37 166.596 338.507 166.15 340.368 165.246C343.31 163.82 345.783 161.165 345.761 157.722C345.733 153.773 342.522 151.102 339.024 149.978C337.559 149.504 336.05 149.152 334.563 148.744C311.561 142.432 288.56 136.12 265.558 129.808C245.052 124.184 224.562 118.505 204.045 112.931C197.193 111.064 191.073 112.298 184.508 114.099C174.78 116.77 165.053 119.436 155.321 122.107C128.579 129.444 101.843 136.781 75.1016 144.118C68.2386 146.001 61.3646 147.841 54.5126 149.769C50.2824 150.959 45.6777 153.657 45.8815 158.686C46.0633 163.23 50.1227 165.511 54.0224 166.579C74.5068 172.203 94.9966 177.821 115.481 183.445C138.516 189.768 161.55 196.086 184.585 202.409C185.923 202.778 187.256 203.142 188.595 203.511C189.261 203.687 191.624 202.635 190.765 202.398Z" fill="#C2D4E5"/>
<path d="M281.36 180.471C256.866 173.751 232.377 167.031 207.883 160.311C204.441 159.364 200.993 158.422 197.55 157.475C196.349 157.144 194.416 158.885 196.03 159.331C220.524 166.051 245.013 172.77 269.507 179.49C272.949 180.438 276.397 181.379 279.84 182.327C281.041 182.657 282.98 180.917 281.36 180.471Z" fill="#C2D4E5"/>
<path d="M279.336 181.809C279.336 199.941 279.336 218.079 279.336 236.212C279.336 238.789 279.336 241.373 279.336 243.95C279.336 245.08 281.996 244.529 281.996 243.631C281.996 225.499 281.996 207.361 281.996 189.228C281.996 186.65 281.996 184.067 281.996 181.489C282.002 180.36 279.336 180.911 279.336 181.809Z" fill="#C2D4E5"/>
<path d="M272.266 278.877C271.776 278.839 271.434 278.244 271.638 277.759C272.773 274.994 273.043 267.31 273.12 266.065C273.649 257.693 273.814 246.529 279.614 240.811C280.302 240.134 281.288 239.743 282.214 240.079C283.018 240.371 283.635 241.142 284.185 241.885C288.372 247.542 292.073 253.645 295.218 260.062C295.995 261.654 300.104 273.006 302.643 274.085C302.77 274.14 302.775 274.339 302.654 274.388C292.938 278.563 282.935 279.676 272.266 278.877Z" fill="#F4F6FB"/>
<path d="M273.524 278.431C272.439 277.925 273.436 275.903 273.607 274.945C273.882 273.419 274.036 271.871 274.163 270.329C274.361 267.928 274.466 265.521 274.604 263.119C275.011 256.162 275.21 247.983 279.555 242.155C280.101 241.423 280.558 240.514 281.533 240.823C282.387 241.092 283.24 242.756 283.747 243.461C285.124 245.372 286.44 247.328 287.696 249.321C289.999 252.968 292.24 256.757 294.014 260.695C295.909 264.904 297.17 270.142 300.326 273.628C300.431 273.744 301.02 274.201 301.031 274.311C301.086 274.862 298.778 275.452 298.084 275.688C295.435 276.581 292.72 277.264 289.96 277.737C284.397 278.69 278.751 278.74 273.133 278.354C272.577 278.316 270.115 279.318 271.398 279.406C277.589 279.836 283.802 279.693 289.922 278.591C292.681 278.095 295.402 277.412 298.073 276.553C299.511 276.09 303.24 275.435 304.055 273.997C304.061 273.959 304.066 273.92 304.077 273.882C303.719 273.331 303.025 272.967 302.601 272.422C301.891 271.513 301.345 270.461 300.822 269.442C299.588 267.052 298.564 264.562 297.545 262.073C294.802 255.364 290.907 249.046 286.705 243.158C285.223 241.081 283.918 238.944 281.081 239.594C278.674 240.145 277.159 242.067 275.964 244.122C272.643 249.839 272.345 257.022 271.965 263.455C271.806 266.093 271.701 268.737 271.475 271.37C271.321 273.122 271.161 274.912 270.748 276.619C270.5 277.633 269.795 278.751 271.018 279.324C271.706 279.649 273.778 278.553 273.524 278.431Z" fill="#F4F6FB"/>
</g>
<path d="M431 8C443 75.5 411 174.5 371 209" stroke="#ACC4DD" stroke-width="2" stroke-linecap="round" stroke-linejoin="round" stroke-dasharray="0.1 5"/>
<path d="M418 23.5L430 1.5L446.5 18" stroke="#ACC4DD" stroke-width="2" stroke-linecap="round" stroke-linejoin="round" stroke-dasharray="0.1 5"/>
<defs>
<clipPath id="clip0">
<rect width="403.986" height="277.12" fill="white" transform="translate(0 112)"/>
</clipPath>
</defs>
</svg>
