<svg width="642" height="383" viewBox="0 0 642 383" fill="none" xmlns="http://www.w3.org/2000/svg">
<g clip-path="url(#clip0)">
<path d="M76.8506 289.336L54.6463 240.895C59.9552 237.474 64.3931 232.71 67.2202 227.063C75.0334 211.463 68.677 190.295 53.5575 181.566C38.438 172.836 16.9095 177.909 7.29036 192.469C-9.29718 217.575 12.0999 251.708 41.7532 246.08C42.6318 245.915 43.4991 245.708 44.3626 245.475L66.612 294.018C67.9073 296.841 71.2489 298.084 74.076 296.792C76.9032 295.501 78.1459 292.159 76.8506 289.336ZM54.62 220.954C51.6915 226.8 45.8757 231.065 39.4479 232.286C21.7791 235.638 9.03246 215.304 18.9144 200.346C24.6438 191.673 37.4693 188.65 46.4802 193.85C55.4873 199.047 59.2756 211.658 54.62 220.954Z" fill="white"/>
<path d="M71.7444 298.805C69.0374 298.805 66.4467 297.258 65.249 294.645L43.5215 247.24C43.0184 247.36 42.5228 247.465 42.0385 247.555C28.0641 250.206 14.3864 244.341 6.34039 232.252C2.42441 226.368 0.239269 219.591 0.0215061 212.653C-0.211275 205.223 1.86874 197.958 6.04378 191.639C10.8383 184.385 18.8467 178.982 28.0228 176.82C37.1989 174.657 46.7805 175.911 54.3158 180.263C61.8512 184.61 67.727 192.281 70.4341 201.303C73.1448 210.325 72.4653 219.959 68.568 227.735C65.861 233.138 61.7198 237.85 56.5498 241.431L78.221 288.709C79.0132 290.439 79.0845 292.377 78.4199 294.16C77.7554 295.944 76.4376 297.363 74.703 298.155C73.7418 298.598 72.7356 298.805 71.7444 298.805ZM44.3626 243.973C44.937 243.973 45.4777 244.304 45.7292 244.848L67.9786 293.39C68.9285 295.459 71.3802 296.372 73.4527 295.425C74.4552 294.967 75.2173 294.145 75.604 293.113C75.987 292.08 75.9457 290.961 75.4877 289.959L53.2833 241.518C52.9717 240.838 53.2082 240.035 53.8353 239.629C59.0616 236.261 63.2253 231.685 65.8798 226.387C73.3288 211.519 67.2202 191.181 52.8103 182.865C38.4004 174.544 17.7166 179.418 8.54805 193.295C4.71843 199.092 2.80737 205.752 3.02138 212.559C3.22412 218.938 5.2328 225.171 8.84091 230.588C16.2073 241.657 28.7137 247.026 41.4791 244.604C42.2788 244.454 43.1198 244.259 43.9758 244.026C44.1035 243.992 44.2349 243.973 44.3626 243.973ZM35.6633 234.144C28.5747 234.144 21.9855 230.611 17.8405 224.382C12.7006 216.659 12.633 207.13 17.6603 199.516C20.6001 195.067 25.5073 191.755 31.1203 190.43C36.7333 189.105 42.6054 189.878 47.2273 192.547C51.8491 195.217 55.4497 199.914 57.1092 205.433C58.7687 210.956 58.3482 216.858 55.9603 221.626C52.8703 227.795 46.6491 232.447 39.7257 233.761C38.3628 234.016 37.0037 234.144 35.6633 234.144ZM36.5907 192.791C30.1892 192.791 23.6976 195.825 20.1683 201.168C15.8131 207.757 15.8807 216.013 20.341 222.715C24.5912 229.102 31.8074 232.203 39.17 230.806C45.1923 229.665 50.5988 225.629 53.2796 220.278C57.5823 211.692 54.053 199.948 45.733 195.146C42.9584 193.55 39.7858 192.791 36.5907 192.791ZM54.6199 220.954H54.6237H54.6199Z" fill="#ECF1F8"/>
<path d="M114.196 181.964C111.973 177.12 89.1904 64.3189 88.0941 59.0926C87.8613 57.9888 84.73 46.5224 85.2895 46.2446C96.3278 44.1683 107.31 42.1409 118.352 39.9745C130.614 37.5679 142.877 35.1575 155.143 32.7508C162.088 31.3879 169.098 29.567 176.112 28.6321C176.052 28.6471 194.952 112.587 196.3 118.79C198.414 128.514 200.497 138.249 202.39 148.023C203.362 153.046 204.38 159.849 205.266 164.922C205.202 164.557 115.337 184.457 114.196 181.964Z" fill="white"/>
<path d="M115.344 183.679C113.576 183.679 113.144 183.278 112.829 182.591C111.47 179.632 103.638 142.909 88.1804 67.0222C87.3281 62.8397 86.7724 60.1139 86.6223 59.4005C86.5772 59.1865 86.3669 58.3605 86.1191 57.4068C85.6611 55.6272 84.9703 52.9352 84.4559 50.6975C83.5623 46.8003 83.3408 45.5388 84.6173 44.9005C84.7412 44.8367 84.8764 44.7916 85.0116 44.7691C87.5346 44.296 90.0539 43.8229 92.5732 43.3499C100.92 41.788 109.547 40.1698 118.059 38.499L154.85 31.2753C157.144 30.8247 159.498 30.3141 161.769 29.8185C166.391 28.8123 171.167 27.7761 175.909 27.1415C176.705 27.0327 177.444 27.5771 177.587 28.3693C177.591 28.3805 177.591 28.3918 177.591 28.4031C177.835 29.6233 183.437 54.5722 188.381 76.6C192.887 96.6718 197.144 115.628 197.764 118.471C199.78 127.763 201.913 137.675 203.861 147.737C204.462 150.846 205.078 154.612 205.675 158.25C206.05 160.548 206.407 162.718 206.745 164.663C206.888 165.481 206.343 166.258 205.525 166.401C205.438 166.416 205.352 166.424 205.269 166.424C204.241 166.57 197.358 168.015 189.429 169.682C176.134 172.476 157.925 176.302 142.531 179.29C134.087 180.927 127.46 182.121 122.838 182.835C119.054 183.417 116.767 183.679 115.344 183.679ZM115.558 181.333C115.558 181.333 115.558 181.337 115.562 181.337C115.558 181.333 115.558 181.333 115.558 181.333ZM115.333 180.698C115.367 180.698 115.405 180.698 115.442 180.698C122.407 180.698 168.629 170.985 188.809 166.743C193.566 165.744 197.576 164.899 200.411 164.317C201.781 164.036 202.784 163.829 203.527 163.686C203.264 162.132 202.99 160.469 202.709 158.734C202.116 155.115 201.507 151.375 200.914 148.308C198.973 138.276 196.844 128.383 194.832 119.109C194.216 116.274 189.962 97.3213 185.457 77.2571C182.81 65.4678 180.099 53.4045 178.056 44.281C177.035 39.7192 176.179 35.8934 175.578 33.2051C175.312 31.9999 175.094 31.0237 174.936 30.3141C170.758 30.9374 166.523 31.861 162.411 32.7546C160.125 33.2539 157.756 33.7683 155.432 34.2226L118.641 41.4463C110.114 43.1208 101.479 44.739 93.1289 46.3009C91.0338 46.6914 88.9426 47.0856 86.8438 47.4799C87.238 49.6875 88.4995 54.5985 89.0289 56.6597C89.3405 57.8724 89.5057 58.5182 89.562 58.7848C89.7122 59.5019 90.2679 62.2314 91.1239 66.4215C108.552 151.987 114.004 176.347 115.333 180.698ZM204.729 166.322C204.86 166.375 204.991 166.405 205.123 166.416C204.984 166.401 204.853 166.371 204.729 166.322ZM203.794 165.207C203.794 165.211 203.794 165.211 203.794 165.207C203.794 165.211 203.794 165.211 203.794 165.207ZM203.79 165.203C203.79 165.203 203.79 165.207 203.79 165.203C203.79 165.207 203.79 165.203 203.79 165.203ZM203.79 165.2C203.79 165.203 203.79 165.2 203.79 165.2V165.2ZM203.786 165.181C203.786 165.185 203.786 165.185 203.786 165.181C203.786 165.185 203.786 165.185 203.786 165.181Z" fill="#ECF1F8"/>
<path d="M149.551 67.33C148.842 67.33 148.211 66.8231 148.076 66.1022C147.926 65.2875 148.463 64.5028 149.281 64.3526C152.131 63.827 155.048 63.1737 157.868 62.5429C160.717 61.9047 163.661 61.2476 166.567 60.7107C167.382 60.5605 168.166 61.0974 168.317 61.9159C168.467 62.7307 167.93 63.5154 167.111 63.6655C164.262 64.1912 161.344 64.8445 158.521 65.4752C155.671 66.1135 152.728 66.7705 149.822 67.3074C149.735 67.3187 149.642 67.33 149.551 67.33Z" fill="#ECF1F8"/>
<path d="M153.938 78.0041C153.236 78.0041 152.609 77.5085 152.466 76.7952C152.305 75.9804 152.834 75.192 153.645 75.0305L168.356 72.102C169.17 71.9405 169.959 72.4699 170.12 73.2809C170.282 74.0956 169.752 74.8841 168.941 75.0455L154.231 77.9741C154.134 77.9966 154.036 78.0041 153.938 78.0041Z" fill="#ECF1F8"/>
<path d="M115.741 118.392C115.066 118.392 114.45 117.93 114.285 117.243C114.089 116.436 114.585 115.625 115.392 115.429C125.473 112.985 138.164 110.278 149.356 107.887C158.889 105.852 167.892 103.929 173.693 102.51C174.5 102.311 175.311 102.807 175.51 103.614C175.705 104.421 175.213 105.232 174.406 105.427C168.564 106.854 159.538 108.784 149.983 110.823C138.809 113.21 126.142 115.914 116.098 118.347C115.978 118.377 115.858 118.392 115.741 118.392Z" fill="#ECF1F8"/>
<path d="M125.079 169.588C124.629 169.588 124.175 169.427 123.814 169.097C123.048 168.398 122.996 167.212 123.694 166.446C127.985 161.742 133.981 155.411 139.782 149.288C145.572 143.175 151.556 136.856 155.822 132.182C156.704 131.217 158.345 129.419 160.672 129.407C160.68 129.407 160.684 129.407 160.691 129.407C162.343 129.407 163.672 130.327 164.555 130.936L178.814 140.787C179.667 141.377 179.881 142.545 179.291 143.401C178.702 144.253 177.534 144.467 176.678 143.877L162.418 134.026C161.893 133.661 161.172 133.162 160.687 133.162H160.684C160.004 133.166 159.084 134.172 158.592 134.713C154.301 139.417 148.305 145.747 142.504 151.871C136.715 157.983 130.73 164.302 126.465 168.977C126.097 169.386 125.59 169.588 125.079 169.588Z" fill="#ECF1F8"/>
<path d="M125.081 169.213C124.372 169.213 123.748 168.714 123.609 168C121.222 155.798 116.397 132.636 116.348 132.404C116.179 131.593 116.701 130.797 117.512 130.628C118.327 130.459 119.119 130.981 119.288 131.792C119.333 132.017 123.816 153.542 126.283 166.044C143.64 163.803 165.165 160.075 190.301 154.961C191.116 154.796 191.908 155.321 192.073 156.132C192.239 156.943 191.713 157.739 190.902 157.904C165.018 163.172 142.938 166.972 125.269 169.202C125.205 169.209 125.145 169.213 125.081 169.213Z" fill="#ECF1F8"/>
<path d="M123.123 159.418C122.913 159.418 122.699 159.373 122.496 159.279C121.742 158.933 121.411 158.04 121.76 157.289C121.832 157.135 129.288 141.546 135.021 139.365C138.224 138.144 142.099 139.676 144.933 140.791L145.388 140.968C145.827 141.14 146.705 141.595 148.346 142.451C150.749 143.705 157.781 147.373 159.903 147.7L175.582 123.772C176.036 123.077 176.967 122.882 177.662 123.34C178.356 123.795 178.548 124.726 178.093 125.42L162.103 149.821C160.838 151.732 157.864 150.808 146.953 145.117C145.744 144.486 144.603 143.889 144.291 143.769L143.833 143.588C141.592 142.706 138.205 141.373 136.091 142.177C132.847 143.412 126.814 153.493 124.49 158.55C124.235 159.091 123.69 159.418 123.123 159.418Z" fill="#ECF1F8"/>
<path opacity="0.5" d="M102.089 68.5053C101.845 69.3839 102.401 70.2812 103.287 70.4614C103.576 70.5215 103.865 70.5778 104.158 70.6379C106.11 71.0359 114.941 72.7855 119.427 73.6415C120.302 73.8105 121.139 73.206 121.275 72.3162C122.164 66.4028 123.351 61.6758 124.406 56.1905C124.582 55.2668 123.925 54.3883 122.994 54.3207C116.649 53.8589 110.12 56.1079 105.9 61.1014C104.09 63.2452 102.836 65.8096 102.089 68.5053Z" fill="#ECF1F8"/>
<path opacity="0.5" d="M123.307 77.749C119.845 77.107 108.653 74.8956 106.426 74.4375C106.31 74.415 106.194 74.3887 106.077 74.3662C104.917 74.1296 103.776 74.8918 103.581 76.0595C103.179 78.4511 103.209 80.8728 103.806 83.148C105.319 88.9225 109.896 93.3679 115.31 95.5418C121.621 98.0723 129.119 98.0122 134.961 94.7045C144.922 89.0689 146.345 74.6778 139.485 66.1062C136.846 62.8097 133.215 60.328 129.235 59.0402C128.041 58.6534 126.787 59.4269 126.547 60.6546C125.424 66.3578 124.182 71.3025 123.307 77.749Z" fill="#ECF1F8"/>
<path d="M470.955 122.097C470.819 121.17 470.771 120.22 470.733 119.293C469.674 93.3526 472.498 67.2886 474.84 41.4762C475.054 39.1109 475.415 36.4714 477.288 35.0109C478.734 33.8845 480.709 33.7832 482.541 33.7494C495.149 33.5091 507.775 34.1586 520.297 35.6867C526.657 36.4639 534.282 35.4502 536.077 43.2408C537.252 48.347 536.644 54.7973 536.892 60.0949C537.414 71.2009 536.621 82.3143 535.581 93.3676C534.519 104.642 532.394 115.35 531.481 126.648C531.35 128.274 531.174 130.012 530.134 131.27C527.595 134.33 521.19 132.726 517.714 132.663C509.75 132.52 501.791 132.373 493.827 132.231C487.805 132.122 476.019 131.48 472.242 125.792C471.503 124.688 471.142 123.415 470.955 122.097Z" fill="white"/>
<path d="M524.521 134.641C523.087 134.641 521.63 134.495 520.29 134.363C519.321 134.266 518.409 134.176 517.681 134.164L493.794 133.733C481.479 133.511 474.015 131.183 470.985 126.625C470.216 125.469 469.72 124.057 469.469 122.315C469.322 121.29 469.27 120.25 469.232 119.356C468.282 96.0596 470.471 72.4098 472.592 49.5334C472.844 46.8001 473.099 44.0706 473.347 41.341C473.591 38.6528 474.045 35.6341 476.366 33.8282C478.142 32.4428 480.376 32.2888 482.516 32.2475C495.157 32.0072 507.93 32.6643 520.482 34.1961C521.522 34.3238 522.637 34.4026 523.714 34.4815C529.102 34.8682 535.808 35.3525 537.542 42.9067C538.376 46.526 538.353 50.671 538.334 54.6771C538.323 56.5657 538.316 58.3491 538.394 60.0273C538.931 71.4599 538.079 82.8774 537.077 93.5103C536.577 98.8304 535.83 104.091 535.109 109.182C534.298 114.9 533.461 120.813 532.98 126.772C532.849 128.371 532.673 130.564 531.291 132.231C529.688 134.157 527.146 134.641 524.521 134.641ZM472.442 121.883C472.63 123.194 472.964 124.17 473.49 124.962C475.9 128.589 482.752 130.53 493.854 130.733L517.741 131.164C518.589 131.18 519.562 131.277 520.59 131.379C523.68 131.686 527.521 132.069 528.974 130.316C529.691 129.449 529.857 128.09 529.98 126.531C530.469 120.487 531.313 114.524 532.132 108.761C532.849 103.708 533.589 98.4813 534.084 93.2287C535.075 82.7047 535.92 71.4148 535.391 60.1663C535.308 58.4091 535.316 56.5882 535.327 54.6583C535.346 50.825 535.368 46.8564 534.614 43.5787C533.457 38.5514 529.643 37.9206 523.496 37.4776C522.381 37.3988 521.229 37.3162 520.117 37.1772C507.705 35.6604 495.075 35.0146 482.572 35.2512C480.875 35.285 479.26 35.3788 478.213 36.1973C476.843 37.2673 476.535 39.46 476.339 41.6113C476.092 44.3409 475.84 47.0742 475.585 49.8075C473.475 72.5825 471.293 96.1347 472.236 119.229C472.266 120.047 472.315 120.997 472.442 121.883Z" fill="#ECF1F8"/>
<path opacity="0.5" d="M484.763 57.0123C486.486 58.3077 488.772 58.4879 490.924 58.6155C497.659 59.0248 504.395 59.4303 511.131 59.8395C514.896 60.0685 518.842 60.2638 522.278 58.6981C525.713 57.1325 528.375 53.1827 527.178 49.6046C526.442 47.4045 524.422 45.8238 522.237 45.0391C520.055 44.2507 517.694 44.138 515.377 44.0329C507.523 43.6725 499.668 43.312 491.814 42.9516C488.029 42.7789 484.274 42.4785 482.791 46.3908C481.541 49.691 481.748 54.7446 484.763 57.0123Z" fill="#ECF1F8"/>
<path d="M488.78 74.6474C488.589 74.6474 488.39 74.6099 488.202 74.531C486.37 73.7651 484.35 73.3934 482.364 73.4647C481.538 73.4835 480.84 72.8452 480.81 72.0155C480.78 71.1857 481.429 70.4911 482.259 70.4611C484.673 70.3823 487.128 70.8253 489.359 71.7602C490.125 72.0793 490.485 72.9616 490.166 73.7238C489.926 74.2982 489.366 74.6474 488.78 74.6474Z" fill="#ECF1F8"/>
<path d="M501.766 74.6736C500.594 74.6736 499.423 74.5272 498.278 74.2305C497.474 74.024 496.994 73.2018 497.2 72.4021C497.407 71.5986 498.229 71.118 499.029 71.3245C500.966 71.8239 503.084 71.7751 504.995 71.1856C505.787 70.9378 506.628 71.3846 506.872 72.1768C507.116 72.969 506.673 73.81 505.881 74.0541C504.544 74.4633 503.155 74.6736 501.766 74.6736Z" fill="#ECF1F8"/>
<path d="M519.272 75.7473C517.789 75.7473 516.306 75.5745 514.875 75.2329C514.068 75.0414 513.572 74.2304 513.764 73.4232C513.955 72.616 514.766 72.1204 515.573 72.3119C517.65 72.8075 519.861 72.8788 521.964 72.5146C522.782 72.3719 523.559 72.9201 523.698 73.7386C523.841 74.5571 523.293 75.3343 522.474 75.4732C521.427 75.6571 520.349 75.7473 519.272 75.7473Z" fill="#ECF1F8"/>
<path d="M482.041 87.8783C481.227 87.8783 480.558 87.2288 480.539 86.4103C480.521 85.5805 481.178 84.8935 482.007 84.8747L488.724 84.7283C488.736 84.7283 488.747 84.7283 488.758 84.7283C489.573 84.7283 490.241 85.3778 490.26 86.1963C490.279 87.026 489.622 87.7131 488.792 87.7319L482.075 87.8783C482.064 87.8783 482.053 87.8783 482.041 87.8783Z" fill="#ECF1F8"/>
<path d="M502.805 88.0249C501.363 88.0249 499.921 87.7922 498.554 87.3228C497.77 87.0525 497.353 86.2002 497.62 85.4155C497.89 84.6308 498.742 84.2103 499.527 84.4807C501.562 85.179 503.815 85.2015 505.865 84.552C506.653 84.3004 507.498 84.7397 507.749 85.5282C508.001 86.3204 507.562 87.1614 506.773 87.4129C505.489 87.8184 504.149 88.0249 502.805 88.0249Z" fill="#ECF1F8"/>
<path d="M519.62 89.3239C517.803 89.3239 515.989 88.8658 514.39 87.991C513.661 87.593 513.395 86.6807 513.797 85.9523C514.195 85.2239 515.111 84.9611 515.835 85.3591C517.318 86.1738 519.06 86.4854 520.735 86.2414C521.557 86.1212 522.319 86.6919 522.439 87.5104C522.56 88.3327 521.993 89.0948 521.17 89.215C520.656 89.2863 520.138 89.3239 519.62 89.3239Z" fill="#ECF1F8"/>
<path d="M485.507 101.849C484.148 101.849 482.823 101.628 481.7 101.184C480.927 100.88 480.551 100.009 480.855 99.2359C481.16 98.4625 482.034 98.087 482.804 98.3911C484.265 98.9656 486.341 99.0031 488.09 98.485C488.886 98.2522 489.72 98.7027 489.956 99.4987C490.193 100.295 489.739 101.128 488.943 101.365C487.843 101.688 486.664 101.849 485.507 101.849Z" fill="#ECF1F8"/>
<path d="M504.334 102.232C501.998 102.232 499.663 101.819 497.467 101.012C496.689 100.727 496.291 99.863 496.577 99.082C496.862 98.3048 497.726 97.9069 498.507 98.1922C501.018 99.1196 503.752 99.4312 506.406 99.097C507.225 98.9919 507.979 99.5776 508.084 100.4C508.19 101.222 507.604 101.973 506.782 102.078C505.967 102.183 505.148 102.232 504.334 102.232Z" fill="#ECF1F8"/>
<path d="M516.732 103.174C515.426 103.174 514.123 102.96 512.891 102.529C512.11 102.254 511.697 101.398 511.971 100.614C512.246 99.8328 513.102 99.4198 513.886 99.6938C515.872 100.392 518.129 100.325 520.074 99.5099C520.84 99.1907 521.718 99.5474 522.041 100.313C522.36 101.079 522.004 101.958 521.238 102.281C519.815 102.874 518.272 103.174 516.732 103.174Z" fill="#ECF1F8"/>
<path d="M485.918 114.134C484.506 114.134 483.099 113.8 481.844 113.143C481.109 112.76 480.827 111.851 481.21 111.115C481.593 110.379 482.502 110.098 483.237 110.481C484.521 111.153 486.053 111.31 487.446 110.924C488.242 110.702 489.072 111.168 489.297 111.968C489.519 112.767 489.053 113.593 488.254 113.819C487.495 114.029 486.707 114.134 485.918 114.134Z" fill="#ECF1F8"/>
<path d="M502.342 114.434C500.383 114.434 498.423 114.077 496.591 113.371C495.817 113.075 495.43 112.204 495.731 111.43C496.027 110.657 496.898 110.27 497.672 110.571C500.217 111.551 503.071 111.701 505.707 110.991C506.506 110.777 507.332 111.25 507.546 112.05C507.76 112.85 507.287 113.676 506.488 113.89C505.136 114.254 503.739 114.434 502.342 114.434Z" fill="#ECF1F8"/>
<path d="M516.852 115.831C515.147 115.831 513.443 115.534 511.862 114.941C511.085 114.648 510.691 113.785 510.984 113.008C511.273 112.23 512.14 111.836 512.917 112.129C515.343 113.038 518.14 113.064 520.584 112.2C521.365 111.926 522.225 112.332 522.499 113.116C522.777 113.897 522.363 114.757 521.583 115.031C520.077 115.564 518.466 115.831 516.852 115.831Z" fill="#ECF1F8"/>
<path d="M529.889 212.762C525.98 197.368 528.376 180.195 538.562 167.666C549.547 154.146 569.713 148.191 586.725 149.686C595.646 150.467 604.491 153.215 611.925 158.28C631.209 171.421 638.643 197.045 632.699 219.126C624.954 247.901 591.279 267.694 563.083 254.726C546.548 247.12 534.443 230.705 529.889 212.762Z" fill="white"/>
<path d="M528.948 190.606C528.862 190.606 528.772 190.599 528.682 190.584C527.867 190.437 527.323 189.656 527.469 188.842C528.952 180.536 532.384 172.888 537.396 166.72C541.248 161.982 546.283 157.99 552.358 154.859C553.094 154.48 554.002 154.769 554.382 155.505C554.761 156.241 554.472 157.149 553.736 157.529C548.029 160.468 543.317 164.2 539.728 168.616C535.035 174.39 531.821 181.565 530.428 189.371C530.296 190.096 529.662 190.606 528.948 190.606Z" fill="#ECF1F8"/>
<path d="M581.73 260.305C575.096 260.305 568.574 258.901 562.462 256.093C552.561 251.539 543.895 243.808 537.4 233.731C536.95 233.032 537.152 232.105 537.851 231.655C538.549 231.204 539.476 231.407 539.927 232.105C546.111 241.702 554.337 249.053 563.716 253.367C575.704 258.879 589.397 258.593 602.275 252.556C616.516 245.88 627.348 233.239 631.252 218.743C632.307 214.827 632.942 210.746 633.133 206.616C633.171 205.786 633.877 205.14 634.703 205.185C635.532 205.223 636.171 205.928 636.133 206.754C635.93 211.102 635.262 215.397 634.151 219.524C630.021 234.865 618.581 248.231 603.548 255.278C596.395 258.623 588.995 260.305 581.73 260.305Z" fill="#ECF1F8"/>
<g opacity="0.3">
<path d="M560.585 156.789C563.348 162.857 577.495 193.452 581.779 202.403C601.915 200.706 618.427 199.666 639.776 199.606C639.502 196.569 638.98 193.55 638.191 190.58C631.835 166.622 610.993 146.569 585.774 144.655C576.091 143.919 566.341 146.104 557.566 150.159C558.565 152.374 559.579 154.582 560.585 156.789Z" fill="#ECF1F8"/>
<path d="M581.779 203.909C581.204 203.909 580.675 203.578 580.423 203.056C576.079 193.978 561.831 163.161 559.218 157.416L558.294 155.389C557.592 153.853 556.894 152.318 556.199 150.778C555.861 150.027 556.191 149.145 556.939 148.8C566.464 144.395 576.477 142.447 585.89 143.16C598.344 144.106 610.163 149.321 620.064 158.238C629.469 166.712 636.426 178.062 639.643 190.197C640.439 193.197 640.988 196.317 641.269 199.474C641.307 199.895 641.168 200.308 640.882 200.62C640.601 200.931 640.199 201.108 639.779 201.111C618.472 201.172 601.835 202.223 581.902 203.905C581.861 203.905 581.82 203.909 581.779 203.909ZM561.951 156.17C564.481 161.723 577.896 190.749 582.687 200.822C601.719 199.23 617.856 198.22 638.108 198.112C637.815 195.682 637.357 193.283 636.741 190.967C633.67 179.388 627.032 168.556 618.055 160.469C608.65 151.998 597.45 147.046 585.665 146.153C577.206 145.511 568.21 147.155 559.559 150.913C560.047 151.991 560.535 153.065 561.027 154.139L561.951 156.17Z" fill="#ECF1F8"/>
</g>
<g opacity="0.3">
<path d="M530.905 230.828C547.8 221.074 564.692 211.324 581.587 201.569C562.916 198.618 544.031 196.565 525.089 195.708C524.954 195.802 524.826 195.896 524.695 195.994C523.861 207.911 525.938 220.147 530.905 230.828Z" fill="#ECF1F8"/>
<path d="M530.906 232.33C530.752 232.33 530.602 232.308 530.452 232.259C530.05 232.131 529.719 231.842 529.543 231.459C524.519 220.65 522.323 208.35 523.194 195.885C523.224 195.446 523.446 195.044 523.802 194.781C523.956 194.668 524.091 194.567 524.234 194.47C524.504 194.282 524.827 194.188 525.154 194.207C543.251 195.025 562.316 197.004 581.821 200.086C582.448 200.184 582.947 200.672 583.064 201.295C583.18 201.922 582.891 202.553 582.339 202.868L531.657 232.128C531.424 232.263 531.165 232.33 530.906 232.33ZM526.123 197.259C525.544 208.106 527.47 219.163 531.597 228.696L577.143 202.403C559.609 199.767 542.47 198.04 526.123 197.259Z" fill="#ECF1F8"/>
</g>
<path d="M418.902 243.185C418.035 242.291 417.156 241.413 416.266 240.545C402.878 226.308 388.197 213.344 373.825 200.079C364.608 186.686 360.211 170.377 358.616 154.281C356.04 128.315 355.45 100.914 337.222 79.9075C327.693 68.9255 313.163 61.4126 298.457 61.5741C283.052 61.743 273.793 74.8651 269.141 88.7081C262.541 108.363 267.572 128.964 270.958 148.702C273.493 163.461 280.172 183.491 271.916 197.439C266.986 205.767 227.717 236.355 217.212 245.768C210.424 251.85 203.587 257.985 198.09 265.254C192.594 272.526 188.453 281.094 187.822 290.188C186.782 305.198 195.199 319.101 203.884 331.386C210.916 341.336 218.335 351.011 226.118 360.379C231.739 367.144 237.716 372.949 246.317 375.434C255.572 378.111 264.294 375.881 273.729 375.892C290.651 375.911 307.573 375.934 324.498 375.953C349.965 375.983 375.432 376.013 400.899 376.043C408.307 376.05 415.703 376.272 423.066 376.497C429.738 376.7 431.987 374.59 431.536 367.587C431.382 365.177 431.555 359.954 433.319 358.145C436.789 358.04 440.19 357.086 443.337 355.487C453.744 350.669 459.429 339.901 460.814 327.65C464.264 297.145 438.827 263.752 418.902 243.185Z" fill="white"/>
<path d="M314.936 225.839C298.971 225.839 283.214 218.341 271.961 205.167C271.424 204.536 271.496 203.59 272.127 203.049C272.757 202.512 273.703 202.583 274.244 203.214C286.082 217.076 303.135 224.315 319.847 222.58C336.584 220.842 352.32 210.186 361.935 194.068C362.359 193.355 363.283 193.122 363.996 193.546C364.71 193.971 364.942 194.894 364.518 195.608C354.418 212.533 337.838 223.733 320.162 225.569C318.416 225.749 316.674 225.839 314.936 225.839Z" fill="#ECF1F8"/>
<path d="M311.047 165.151C306.741 165.151 302.779 161.727 302.145 157.405C302.025 156.583 302.592 155.821 303.414 155.701C304.236 155.58 304.998 156.147 305.119 156.97C305.543 159.868 308.34 162.245 311.216 162.147C314.096 162.053 316.735 159.504 316.975 156.583C317.043 155.757 317.775 155.137 318.594 155.209C319.42 155.276 320.035 156.001 319.968 156.827C319.604 161.272 315.721 165.004 311.314 165.147C311.223 165.151 311.133 165.151 311.047 165.151Z" fill="#ECF1F8"/>
<path d="M302.827 245.239C296.693 245.239 290.141 242.292 284.524 239.393C277.259 235.646 267.276 228.749 260.991 217.185C260.596 216.457 260.863 215.544 261.591 215.15C262.32 214.752 263.232 215.022 263.626 215.751C269.547 226.647 279.005 233.168 285.898 236.724C291.275 239.498 297.53 242.318 303.075 242.232C308.756 242.141 313.28 238.961 316.911 232.511C317.29 231.835 318.082 230.427 319.588 230.247C321.168 230.056 322.22 231.328 322.723 231.944C330.78 241.729 337.471 240.26 347.007 234.122C357.294 227.499 366.223 218.935 372.831 209.349C373.3 208.666 374.235 208.493 374.918 208.966C375.602 209.436 375.774 210.374 375.301 211.054C368.472 220.962 359.247 229.812 348.629 236.645C338.165 243.38 329.793 245.262 320.399 233.848C320.181 233.585 320.034 233.427 319.929 233.333C319.839 233.45 319.708 233.645 319.52 233.979C315.323 241.439 309.954 245.119 303.113 245.228C303.026 245.239 302.925 245.239 302.827 245.239Z" fill="#ECF1F8"/>
<path d="M272.585 4.12639C260.574 8.69566 244.602 18.709 240.697 31.8123C238.448 39.3665 241.339 48.077 247.411 53.1043C252.487 57.3056 259.128 58.1617 265.515 57.606C268.834 57.3169 272.153 56.7837 275.479 56.4158C278.348 56.0967 283.39 56.5284 285.94 55.2519C279.305 60.3693 272.363 64.7847 267.407 71.6292C261.839 79.3185 256.872 87.6873 255.089 97.0586C253.59 104.628 254.469 112.415 256.095 119.886C257.491 126.306 259.564 134.296 263.45 139.703C265.781 142.947 269.626 145.406 273.595 144.966C280.661 144.186 284.625 135.261 288.113 130.008C293.002 122.642 296.539 114.375 298.442 105.739C298.025 107.62 300.973 112.171 301.848 113.819C303.447 116.822 305.583 119.323 307.431 122.139C310.104 126.216 313.626 130.072 318.758 129.926C324.48 129.764 329.736 128.799 335.529 129.599C346.816 131.161 356.529 136.459 365.738 142.823C365.288 142.511 366.778 131.146 366.763 129.764C366.733 127.193 366.568 124.621 366.272 122.064C366.039 120.059 365.72 118.065 365.322 116.087C363.565 107.361 360.805 98.9246 356.968 90.905C353.649 83.9703 350.221 76.878 344.694 71.3739C334.302 61.0301 317.767 55.1393 303.113 54.6774C302.339 54.6512 302.167 53.5661 302.895 53.2958C311.102 50.2584 319.186 46.7554 325.659 41.1386C329.233 38.0373 332.349 34.0988 332.984 29.4057C333.968 22.1482 328.79 15.0896 322.745 10.3702C312.758 2.57952 299.606 -1.14873 287.254 0.311783C282.185 0.908754 277.289 2.33548 272.585 4.12639Z" fill="#ECF1F8"/>
<path d="M305.939 54.5385C305.657 55.571 304.501 56.0328 303.487 56.3482C299.699 57.5271 276.623 64.687 280.273 56.4796C283.246 49.7815 307.181 49.9467 305.939 54.5385Z" fill="#ECF1F8"/>
<path d="M424.664 367.862C419.847 365.188 413.55 365.038 408.043 365.004C395.303 364.926 380.77 365.019 372.513 365.061C362.661 338.501 349.569 296.173 343.446 276.529C341.674 270.841 336.432 268.663 330.47 268.58C317.69 268.408 196.167 267.225 184.76 267.796C178.997 268.085 174.927 273.555 176.316 279.149C177.781 285.044 179.279 290.927 180.811 296.807C185.669 315.49 190.7 334.165 196.651 352.536C198.937 359.59 201.07 367.16 204.592 373.726C208.624 381.247 218.367 380.529 225.553 380.439C225.553 380.439 330.602 380.511 367.681 380.856C388.519 381.051 409.353 381.243 430.191 381.438C432.364 376.381 429.481 370.539 424.664 367.862ZM365.868 365.057L365.875 365.068C365.845 365.064 365.842 365.061 365.868 365.057Z" fill="#ECF1F8"/>
<path d="M430.19 382.94C430.186 382.94 430.183 382.94 430.175 382.94L367.666 382.358C331.018 382.016 226.601 381.941 225.549 381.941C225.095 381.949 224.607 381.956 224.108 381.964C217.083 382.091 207.464 382.264 203.266 374.436C200.229 368.77 198.224 362.44 196.283 356.32C195.93 355.205 195.577 354.094 195.22 352.997C189.551 335.494 184.779 318.028 179.357 297.186C177.743 290.984 176.275 285.202 174.859 279.514C174.09 276.412 174.739 273.161 176.646 270.593C178.554 268.021 181.486 266.455 184.685 266.294C196.234 265.719 319.36 266.928 330.489 267.079C337.99 267.18 343.1 270.379 344.88 276.082L345.886 279.311C353.331 303.224 368.822 352.979 378.28 375.727C378.599 376.493 378.235 377.372 377.469 377.691C376.703 378.01 375.825 377.646 375.505 376.88C365.995 354.004 350.474 304.158 343.017 280.204L342.011 276.979C340.269 271.389 334.761 270.146 330.447 270.086C319.326 269.936 196.324 268.723 184.835 269.298C182.534 269.414 180.431 270.537 179.057 272.388C177.686 274.231 177.221 276.566 177.773 278.793C179.185 284.473 180.653 290.244 182.263 296.435C187.67 317.224 192.431 334.645 198.077 352.078C198.434 353.181 198.787 354.296 199.144 355.415C201.043 361.404 203.007 367.599 205.913 373.02C209.243 379.23 217.113 379.088 224.055 378.964C224.558 378.956 225.05 378.945 225.531 378.941C226.601 378.941 331.033 379.016 367.692 379.358L429.128 379.929C430.081 376.422 428.519 371.721 423.935 369.179C419.61 366.777 413.944 366.548 408.031 366.51C394.916 366.431 385.485 366.574 380.953 366.641C379.981 366.656 379.237 366.668 378.738 366.671C377.935 366.679 376.583 366.694 376.47 365.278C376.41 364.486 377.007 363.777 377.796 363.668C377.95 363.645 378.1 363.649 378.246 363.672C378.64 363.675 379.665 363.657 380.904 363.638C385.447 363.566 394.898 363.424 408.046 363.506C414.361 363.544 420.443 363.807 425.388 366.555C431.196 369.78 433.911 376.58 431.564 382.035C431.332 382.583 430.791 382.94 430.19 382.94Z" fill="#ECF1F8"/>
<path d="M257.681 320.994C258.097 326.626 261.499 332.145 266.699 334.645C271.174 336.8 276.787 336.857 280.944 334.139C290.544 327.868 286.94 312.892 277.696 308.3C267.945 303.456 256.851 309.809 257.681 320.994Z" fill="white"/>
<path d="M206.992 363.529C201.019 363.529 195.169 361.858 190.277 358.727C179.854 352.048 173.021 339.046 172.443 324.794C172.146 317.514 173.115 310.11 175.315 302.792C175.555 301.996 176.393 301.546 177.185 301.786C177.981 302.026 178.428 302.863 178.191 303.656C176.085 310.65 175.161 317.72 175.443 324.67C175.983 337.957 182.287 350.035 191.899 356.197C202.554 363.026 217.448 361.611 225.1 353.043C225.652 352.423 226.602 352.371 227.221 352.923C227.841 353.475 227.894 354.424 227.342 355.044C223.039 359.857 216.746 362.835 209.624 363.42C208.742 363.492 207.867 363.529 206.992 363.529Z" fill="#ECF1F8"/>
<path d="M391.337 360.36C391.171 360.36 391.006 360.334 390.841 360.278C390.056 360.004 389.643 359.148 389.917 358.367C391.581 353.595 396.95 351.398 401.237 351.379C401.264 351.379 401.29 351.379 401.316 351.379C405.131 351.379 408.713 352.618 412.174 353.82C412.674 353.993 413.169 354.165 413.669 354.334C419.939 356.456 424.733 357.323 429.216 357.15C435.708 356.899 443.701 353.114 449.577 347.505C454.991 342.339 458.453 335.231 459.328 327.489C462.883 296.004 434.852 261.811 417.825 244.236C417.048 243.433 416.195 242.581 415.219 241.627C415.204 241.612 415.189 241.597 415.174 241.582C412.096 238.312 404.977 231.689 397.434 224.679C386.501 214.515 375.192 204.003 371.888 199.786C361.469 186.488 358.522 168.564 357.122 154.435C356.851 151.725 356.6 148.958 356.359 146.277C354.268 123.205 352.102 99.3489 336.092 80.8991C326.53 69.872 312.323 63.0763 298.915 63.0763C298.769 63.0763 298.622 63.0763 298.476 63.08C281.764 63.264 273.816 79.5212 270.568 89.1928C264.85 106.223 268.09 124.211 271.225 141.606C271.631 143.855 272.051 146.179 272.442 148.454C272.9 151.116 273.489 153.936 274.113 156.925C276.992 170.696 280.259 186.304 273.212 198.209C269.603 204.303 249.532 220.853 233.398 234.155C226.907 239.506 221.301 244.131 218.219 246.891C213.15 251.434 205.498 259.014 201.166 263.79C200.606 264.406 199.656 264.451 199.044 263.895C198.429 263.339 198.384 262.389 198.939 261.774C203.328 256.934 211.078 249.256 216.21 244.657C219.338 241.852 224.966 237.212 231.484 231.839C246.592 219.381 267.283 202.321 270.621 196.681C277.075 185.778 273.936 170.775 271.169 157.54C270.538 154.525 269.941 151.68 269.476 148.965C269.089 146.705 268.669 144.384 268.267 142.143C265.064 124.377 261.753 106.002 267.715 88.2392C270.358 80.3659 274.15 73.7091 278.678 68.9822C284.257 63.1589 290.907 60.1628 298.434 60.0802C298.588 60.0802 298.746 60.0764 298.904 60.0764C313.16 60.0764 328.234 67.2701 338.353 78.9279C355 98.1136 357.208 122.458 359.344 146.003C359.588 148.676 359.836 151.439 360.106 154.139C361.469 167.862 364.308 185.245 374.25 197.932C377.407 201.96 389.133 212.86 399.477 222.479C407.038 229.507 414.179 236.145 417.337 239.498C418.324 240.463 419.188 241.327 419.98 242.145C437.375 260.103 466.003 295.114 462.309 327.827C461.355 336.264 457.57 344.024 451.646 349.679C446.802 354.301 438.051 359.816 429.329 360.154C423.096 360.394 417.168 358.693 412.704 357.18C412.201 357.011 411.698 356.835 411.191 356.662C407.815 355.494 404.624 354.387 401.316 354.387C401.294 354.387 401.271 354.387 401.252 354.387C397.99 354.402 393.939 355.964 392.756 359.358C392.538 359.97 391.956 360.36 391.337 360.36Z" fill="#ECF1F8"/>
</g>
<defs>
<clipPath id="clip0">
<rect width="641.275" height="382.94" fill="white"/>
</clipPath>
</defs>
</svg>
