<svg width="61" height="79" viewBox="0 0 61 79" fill="none" xmlns="http://www.w3.org/2000/svg">
<path d="M8.81836 32.6819V77.0001" stroke="#3661F7" stroke-width="3" stroke-miterlimit="10" stroke-linecap="round" stroke-linejoin="round"/>
<path d="M29.1044 27.4723C28.3267 23.4432 24.9453 20.75 20.75 20.75H13.9318H10.5227C5.72869 20.75 2 24.2656 2 29.2727V44.6136C2 48.3786 5.05327 51.4318 8.81818 51.4318" stroke="#3661F7" stroke-width="3" stroke-miterlimit="10" stroke-linecap="round" stroke-linejoin="round"/>
<path d="M49.7274 32.6819L54.841 61.6592H44.6138" stroke="#3661F7" stroke-width="3" stroke-miterlimit="10" stroke-linecap="round" stroke-linejoin="round"/>
<path d="M48.0229 61.6591V77" stroke="#3661F7" stroke-width="3" stroke-miterlimit="10" stroke-linecap="round" stroke-linejoin="round"/>
<path d="M17.3411 2C13.5762 2 10.5229 4.96804 10.5229 8.62855V14.1214C10.5229 17.782 13.5762 20.75 17.3411 20.75C21.106 20.75 24.1593 17.782 24.1593 14.1214V8.62855C24.1593 4.96804 21.106 2 17.3411 2Z" stroke="#3661F7" stroke-width="3" stroke-miterlimit="10" stroke-linecap="round" stroke-linejoin="round"/>
<path d="M30.9774 32.6819C27.2124 32.6819 24.1592 35.3538 24.1592 38.6478V42.0569C24.1592 45.3509 27.2124 48.0228 30.9774 48.0228C34.7423 48.0228 37.7955 45.3509 37.7955 42.0569V38.6478C37.7955 35.3538 34.7423 32.6819 30.9774 32.6819Z" stroke="#F87E1B" stroke-width="3" stroke-miterlimit="10" stroke-linecap="round" stroke-linejoin="round"/>
<path d="M36.0909 77V65.9204C38.0938 65.4197 39.5 63.6193 39.5 61.5547V55.6932C39.5 51.4574 36.0653 48.0227 31.8295 48.0227H28.4205C24.1847 48.0227 20.75 51.4574 20.75 55.6932V61.5547C20.75 63.6193 22.1563 65.4197 24.1591 65.9204V77" stroke="#F87E1B" stroke-width="3" stroke-miterlimit="10" stroke-linecap="round" stroke-linejoin="round"/>
<mask id="mask0" mask-type="alpha" maskUnits="userSpaceOnUse" x="20" y="48" width="20" height="29">
<path d="M36.0909 77V65.9204C38.0938 65.4197 39.5 63.6193 39.5 61.5547V55.6932C39.5 51.4574 36.0653 48.0227 31.8295 48.0227H28.4205C24.1847 48.0227 20.75 51.4574 20.75 55.6932V61.5547C20.75 63.6193 22.1563 65.4197 24.1591 65.9204V77" fill="#C4C4C4"/>
</mask>
<g mask="url(#mask0)">
<line x1="-6" y1="49" x2="72" y2="49" stroke="#F87E1B" stroke-width="2" stroke-linecap="round" stroke-linejoin="round" stroke-dasharray="0.1 5"/>
<line x1="-6" y1="61" x2="72" y2="61" stroke="#F87E1B" stroke-width="2" stroke-linecap="round" stroke-linejoin="round" stroke-dasharray="0.1 5"/>
<line x1="-6" y1="55" x2="72" y2="55" stroke="#F87E1B" stroke-width="2" stroke-linecap="round" stroke-linejoin="round" stroke-dasharray="0.1 5"/>
<line x1="-6" y1="67" x2="72" y2="67" stroke="#F87E1B" stroke-width="2" stroke-linecap="round" stroke-linejoin="round" stroke-dasharray="0.1 5"/>
<line x1="-6" y1="73" x2="72" y2="73" stroke="#F87E1B" stroke-width="2" stroke-linecap="round" stroke-linejoin="round" stroke-dasharray="0.1 5"/>
</g>
<path d="M33.7153 25.0944C34.8084 24.5 36.1486 24.1591 37.7956 24.1591H42.9092H48.0229C53.6692 24.1591 55.7146 28.1583 56.5456 32.6818C57.0058 35.1875 57.8091 38.8224 58.5207 41.9268C59.3155 45.3956 57.3467 48.8984 53.9717 50.0298L52.8531 50.4048" stroke="#3661F7" stroke-width="3" stroke-miterlimit="10" stroke-linecap="round" stroke-linejoin="round"/>
<path d="M46.3181 15.3828C41.8501 13.7315 38.6285 9.5 38.6285 9.5C38.6285 9.5 36.0908 11.2727 36.0908 14.5007V18.3189C36.0908 21.5469 38.5326 24.1633 41.801 24.1633L44.6135 24.1591V14.6072" stroke="#3661F7" stroke-width="3" stroke-miterlimit="10" stroke-linecap="round" stroke-linejoin="round"/>
<path d="M32.6816 8.81818C32.6816 5.40909 36.8791 2 42.0566 2C47.2342 2 51.4316 5.91832 51.4316 10.7507C51.4316 10.7507 51.4316 15.6364 51.4316 17.3409C51.4316 19.2585 52.4437 20.0575 53.1362 20.75" stroke="#3661F7" stroke-width="3" stroke-miterlimit="10" stroke-linecap="round" stroke-linejoin="round"/>
</svg>
