<svg width="88" height="84" viewBox="0 0 88 84" fill="none" xmlns="http://www.w3.org/2000/svg">
<path d="M7.47826 73.2172V27.565C7.47826 25.5563 9.12173 23.9128 11.1304 23.9128H21.913" stroke="#3661F7" stroke-width="3" stroke-miterlimit="10" stroke-linecap="round" stroke-linejoin="round"/>
<path d="M80.5217 54.3042V73.2172" stroke="#3661F7" stroke-width="3" stroke-miterlimit="10" stroke-linecap="round" stroke-linejoin="round"/>
<path d="M86 73.2173H53.1304L49.4783 76.8695H40.3478L36.6957 73.2173H2V75.0434C2 79.0791 5.2687 82.3478 9.30435 82.3478H78.6957C82.7313 82.3478 86 79.0791 86 75.0434V73.2173Z" stroke="#3661F7" stroke-width="3" stroke-miterlimit="10" stroke-linecap="round" stroke-linejoin="round"/>
<mask id="mask0" mask-type="alpha" maskUnits="userSpaceOnUse" x="7" y="23" width="74" height="51">
<rect x="6.99997" y="23" width="74" height="51" rx="7" fill="#C4C4C4"/>
</mask>
<g mask="url(#mask0)">
<line x1="9.99997" y1="28" x2="88" y2="28" stroke="#3661F7" stroke-width="2" stroke-linecap="round" stroke-linejoin="round" stroke-dasharray="0.1 5"/>
<line x1="9.99997" y1="34" x2="88" y2="34" stroke="#3661F7" stroke-width="2" stroke-linecap="round" stroke-linejoin="round" stroke-dasharray="0.1 5"/>
<line x1="9.99997" y1="40" x2="88" y2="40" stroke="#3661F7" stroke-width="2" stroke-linecap="round" stroke-linejoin="round" stroke-dasharray="0.1 5"/>
<line x1="9.99997" y1="52" x2="88" y2="52" stroke="#3661F7" stroke-width="2" stroke-linecap="round" stroke-linejoin="round" stroke-dasharray="0.1 5"/>
<line x1="9.99997" y1="46" x2="88" y2="46" stroke="#3661F7" stroke-width="2" stroke-linecap="round" stroke-linejoin="round" stroke-dasharray="0.1 5"/>
<line x1="9.99997" y1="58" x2="88" y2="58" stroke="#3661F7" stroke-width="2" stroke-linecap="round" stroke-linejoin="round" stroke-dasharray="0.1 5"/>
<line x1="9.99997" y1="64" x2="88" y2="64" stroke="#3661F7" stroke-width="2" stroke-linecap="round" stroke-linejoin="round" stroke-dasharray="0.1 5"/>
<line x1="9.99997" y1="70" x2="88" y2="70" stroke="#3661F7" stroke-width="2" stroke-linecap="round" stroke-linejoin="round" stroke-dasharray="0.1 5"/>
</g>
<path d="M27.5652 7.47826C27.5652 4.44696 30.0122 2 33.0435 2H80.5217C83.553 2 86 4.44696 86 7.47826V42.1739C86 45.2052 83.553 47.6522 80.5217 47.6522H58.6087L48.9487 59.1383C47.7983 60.2887 45.8261 59.4852 45.8261 57.86V47.6522H33.0435C30.0122 47.6522 27.5652 45.2052 27.5652 42.1739V7.47826Z" fill="white" stroke="#3661F7" stroke-width="3" stroke-miterlimit="10" stroke-linecap="round" stroke-linejoin="round"/>
<path d="M67.7391 25.7392V36.6958H45.8261V14.7827H62.2609" stroke="#F87E1B" stroke-width="3" stroke-miterlimit="10" stroke-linecap="round" stroke-linejoin="round"/>
<path d="M51.3044 25.7392L56.7826 31.2175L69.5652 14.7827" stroke="#F87E1B" stroke-width="3" stroke-miterlimit="10" stroke-linecap="round" stroke-linejoin="round"/>
</svg>
