<svg width="18" height="18" viewBox="0 0 18 18" fill="none" xmlns="http://www.w3.org/2000/svg">
<path d="M17.6288 0.371246C17.3173 0.0597967 16.8752 -0.0664142 16.4462 0.0336405C16.4443 0.0340975 16.4423 0.0345546 16.4403 0.0350467L2.30474 3.49453C0.947742 3.82661 0 5.03427 0 6.43131V8.29687C0 8.97655 0.538559 9.53283 1.21138 9.56134L6.52852 10.4664C6.64088 10.4855 6.75552 10.449 6.8361 10.3684L13.1022 4.10224C13.3219 3.88258 13.6781 3.88258 13.8978 4.10224C14.1174 4.32193 14.1174 4.67806 13.8978 4.89775L7.63161 11.1639C7.55104 11.2445 7.51451 11.3592 7.53363 11.4715L8.43866 16.7887C8.46717 17.4614 9.02345 18 9.70313 18H11.5687C12.9657 18 14.1734 17.0523 14.5055 15.6953L17.9649 1.55967C17.9654 1.5577 17.9659 1.55573 17.9663 1.55376C18.0664 1.12479 17.9402 0.68273 17.6288 0.371246Z" fill="white"/>
</svg>
