<svg width="16" height="16" viewBox="0 0 16 16" fill="none" xmlns="http://www.w3.org/2000/svg">
<path d="M3.1499 4.59259V1C3.1499 0.585938 2.81421 0.25 2.3999 0.25C1.9856 0.25 1.6499 0.585938 1.6499 1V4.59262C0.834656 4.89838 0.25 5.67932 0.25 6.6001C0.25 7.52087 0.834656 8.30179 1.6499 8.60754V15C1.6499 15.4141 1.9856 15.75 2.3999 15.75C2.81421 15.75 3.1499 15.4141 3.1499 15V8.60757C3.96524 8.30182 4.55005 7.5209 4.55005 6.6001C4.55005 5.67929 3.96524 4.89835 3.1499 4.59259Z" fill="#BFB6D1"/>
<path d="M8.76317 7.85922V1C8.76317 0.585938 8.42748 0.25 8.01318 0.25C7.59887 0.25 7.26318 0.585938 7.26318 1V7.85922C6.44794 8.16498 5.86328 8.94592 5.86328 9.8667C5.86328 10.7875 6.44794 11.5684 7.26318 11.8741V15C7.26318 15.4141 7.59887 15.75 8.01318 15.75C8.42748 15.75 8.76317 15.4141 8.76317 15V11.8742C9.57848 11.5685 10.1631 10.7875 10.1631 9.8667C10.1631 8.94589 9.57848 8.16495 8.76317 7.85922Z" fill="#BFB6D1"/>
<path d="M14.3748 4.59262V1C14.3748 0.585938 14.0391 0.25 13.6248 0.25C13.2104 0.25 12.8748 0.585938 12.8748 1V4.59259C12.0594 4.89835 11.4746 5.67929 11.4746 6.6001C11.4746 7.5209 12.0594 8.30182 12.8748 8.60757V15C12.8748 15.4141 13.2104 15.75 13.6248 15.75C14.0391 15.75 14.3748 15.4141 14.3748 15V8.60757C15.1901 8.30185 15.7747 7.5209 15.7747 6.6001C15.7747 5.67929 15.1901 4.89835 14.3748 4.59262Z" fill="#BFB6D1"/>
</svg>
