<svg width="16" height="14" viewBox="0 0 16 14" fill="none" xmlns="http://www.w3.org/2000/svg">
<path fill-rule="evenodd" clip-rule="evenodd" d="M14.9199 0.0887742L0.746942 5.55477C-0.220058 5.94277 -0.215059 6.48277 0.570942 6.72277L4.10494 7.82677L5.45794 11.9728C5.62194 12.4268 5.54094 12.6068 6.01794 12.6068C6.38594 12.6068 6.54794 12.4388 6.75394 12.2388C6.88394 12.1118 7.65694 11.3588 8.52094 10.5198L12.1979 13.2368C12.8739 13.6098 13.3629 13.4168 13.5309 12.6088L15.9449 1.23477C16.1919 0.244774 15.5669 -0.205226 14.9199 0.0887742ZM4.65994 7.57277L12.6269 2.54677C13.0249 2.30477 13.3899 2.43477 13.0899 2.70077L6.26794 8.85577L6.00294 11.6888L4.65994 7.57277Z" fill="#C8D2E1"/>
</svg>
