<svg width="16" height="14" viewBox="0 0 16 14" fill="none" xmlns="http://www.w3.org/2000/svg">
<path fill-rule="evenodd" clip-rule="evenodd" d="M16 1.54265C15.401 1.80815 14.7656 1.98242 14.115 2.05965C14.8003 1.64929 15.3131 1.00392 15.558 0.243652C14.9134 0.625861 14.2083 0.895072 13.473 1.03965C12.9788 0.51159 12.324 0.161511 11.6104 0.0437862C10.8968 -0.0739381 10.1643 0.0472828 9.52663 0.388621C8.88899 0.729959 8.38191 1.27231 8.08415 1.93143C7.7864 2.59055 7.71463 3.32955 7.88 4.03365C6.57477 3.96825 5.29789 3.62908 4.13225 3.03817C2.9666 2.44725 1.93827 1.61779 1.114 0.603652C0.692971 1.32596 0.563664 2.18179 0.752502 2.99625C0.94134 3.81071 1.43407 4.52231 2.13 4.98565C1.60875 4.96936 1.09894 4.8288 0.643 4.57565V4.61665C0.64338 5.37442 0.905726 6.10876 1.38558 6.69523C1.86544 7.28171 2.5333 7.68425 3.276 7.83465C2.79262 7.96535 2.28586 7.98449 1.794 7.89065C2.00361 8.54287 2.41183 9.11327 2.96156 9.52207C3.51129 9.93087 4.17505 10.1576 4.86 10.1707C4.17891 10.7052 3.39908 11.1003 2.56513 11.3331C1.73119 11.566 0.859518 11.6321 0 11.5277C1.50081 12.4926 3.24774 13.005 5.032 13.0037C11.07 13.0037 14.372 8.00365 14.372 3.66665C14.372 3.52365 14.368 3.38165 14.362 3.24165C15.0047 2.77685 15.5594 2.20118 16 1.54165V1.54265Z" fill="#C8D2E1"/>
</svg>
