<svg width="46" height="72" viewBox="0 0 46 72" fill="none" xmlns="http://www.w3.org/2000/svg">
<mask id="mask0" mask-type="alpha" maskUnits="userSpaceOnUse" x="4" y="43" width="38" height="27">
<path d="M11 54.9614L13.5 45.4614L14.5 43.4614C16.1667 44.1281 20.2 45.4614 23 45.4614C25.8 45.4614 30.5 44.1281 32.5 43.4614L42 66.4614L33.5 62.9614L30 69.9614L26 63.9614L23 55.4614L16 69.9614L12 63.9614L4.5 64.9614L11 54.9614Z" fill="#C4C4C4"/>
</mask>
<g mask="url(#mask0)">
<line x1="-12" y1="48.4614" x2="66" y2="48.4614" stroke="#3661F7" stroke-width="2" stroke-linecap="round" stroke-linejoin="round" stroke-dasharray="0.1 5"/>
<line x1="-12" y1="54.4614" x2="66" y2="54.4614" stroke="#3661F7" stroke-width="2" stroke-linecap="round" stroke-linejoin="round" stroke-dasharray="0.1 5"/>
<line x1="-12" y1="60.4614" x2="66" y2="60.4614" stroke="#3661F7" stroke-width="2" stroke-linecap="round" stroke-linejoin="round" stroke-dasharray="0.1 5"/>
<line x1="-12" y1="66.4614" x2="66" y2="66.4614" stroke="#3661F7" stroke-width="2" stroke-linecap="round" stroke-linejoin="round" stroke-dasharray="0.1 5"/>
</g>
<path d="M21.31 60.4616C19.8908 63.8924 17.9885 67.4001 15.5879 69.6924C14.7273 67.0308 13.5497 64.6308 12.5381 63.2616C9.74497 64.8001 7.2236 65.9693 3.02637 66.2155C12.1908 54.9539 13.8365 45.7231 13.8365 45.7231" stroke="#3661F7" stroke-width="3" stroke-miterlimit="10" stroke-linecap="round" stroke-linejoin="round"/>
<path d="M21.627 49.6921C21.627 49.6921 24.4654 63.7229 30.6857 69.6921C31.5463 67.0306 32.724 64.6306 33.7355 63.2614C36.5287 64.7998 39.05 65.9691 43.2624 66.2152C34.0828 54.9383 32.4522 45.7075 32.4522 45.7075" stroke="#3661F7" stroke-width="3" stroke-miterlimit="10" stroke-linecap="round" stroke-linejoin="round"/>
<path d="M23.1525 8.89209L27.2894 17.7536L36.016 18.8767L29.856 26.1844L31.0941 35.0459L23.1525 31.3998L15.1959 35.0459L16.4339 26.1844L10.2891 18.8767L19.0006 17.7536L23.1525 8.89209Z" stroke="#F87E1B" stroke-width="3" stroke-miterlimit="10" stroke-linecap="round" stroke-linejoin="round"/>
<path d="M23.1372 45.0769C34.8109 45.0769 44.2743 35.4338 44.2743 23.5385C44.2743 11.6431 34.8109 2 23.1372 2C11.4634 2 2 11.6431 2 23.5385C2 35.4338 11.4634 45.0769 23.1372 45.0769Z" stroke="#3661F7" stroke-width="3" stroke-miterlimit="10" stroke-linecap="round" stroke-linejoin="round"/>
</svg>
