<svg width="86" height="57" viewBox="0 0 86 57" fill="none" xmlns="http://www.w3.org/2000/svg">
<path d="M64.2011 21.3395C64.2011 16.4063 54.705 12.4121 43.0266 12.4121C31.3482 12.4121 21.8389 16.4063 21.8389 21.3395C21.8389 23.4557 21.8389 36.9063 21.8389 39.0224C23.1614 43.0034 32.6179 46.9579 44.2963 46.9579C55.9747 46.9579 63.1563 41.4957 64.1482 39.0224C64.1482 36.9063 64.2011 23.4557 64.2011 21.3395Z" stroke="#3661F7" stroke-width="3" stroke-miterlimit="10" stroke-linecap="round" stroke-linejoin="round"/>
<path d="M27.1289 23.1514L28.1289 24.1514" stroke="#3661F7" stroke-width="3" stroke-miterlimit="10" stroke-linecap="round" stroke-linejoin="round"/>
<path d="M45.8965 2.3075C44.5739 1.8975 43.1323 1.8975 41.8097 2.3075L2 13.7875V17.9272L41.9948 30.1478C43.1323 30.5049 44.3623 30.5049 45.4997 30.1478L84 17.9272V13.7875L45.8965 2.3075Z" fill="white"/>
<path d="M77.85 20.0433L84 17.9272V13.7875L45.8965 2.3075C44.5739 1.8975 43.1323 1.8975 41.8097 2.3075L2 13.7875V17.9272L41.9948 30.1478C43.1323 30.5049 44.3623 30.5049 45.4997 30.1478L72.2158 21.6701" stroke="#3661F7" stroke-width="3" stroke-miterlimit="10" stroke-linecap="round" stroke-linejoin="round"/>
<path d="M44.1768 13.417L71.6468 21.4451C73.4455 21.8947 74.7151 23.7199 74.7019 25.8228L74.6622 36.4034" stroke="#F87E1B" stroke-width="3" stroke-miterlimit="10" stroke-linecap="round" stroke-linejoin="round"/>
<path d="M80.0319 52.2483L76.0641 39.0225H73.419L69.4512 52.2483C69.0809 53.6105 70.6945 54.8934 72.0964 54.8934H77.3867C78.7887 54.8934 80.389 53.5973 80.0319 52.2483Z" fill="white" stroke="#F87E1B" stroke-width="3" stroke-miterlimit="10" stroke-linecap="round" stroke-linejoin="round"/>
<path d="M78.7099 36.3774C78.6967 38.5729 76.9112 40.3452 74.7289 40.3452C72.5334 40.3452 70.7744 38.5729 70.7744 36.3774C70.7876 34.1819 72.5731 32.4097 74.7554 32.4097C76.9509 32.4097 78.7231 34.1819 78.7099 36.3774Z" fill="white" stroke="#F87E1B" stroke-width="3" stroke-miterlimit="10" stroke-linecap="round" stroke-linejoin="round"/>
</svg>
