<svg width="51" height="70" viewBox="0 0 51 70" fill="none" xmlns="http://www.w3.org/2000/svg">
<path d="M9.34863 52.8924C22.0533 60.2242 38.3119 55.8727 45.6436 43.1681C52.9754 30.4634 48.6239 14.2048 35.9193 6.87305" stroke="#3661F7" stroke-width="3" stroke-miterlimit="10" stroke-linecap="round" stroke-linejoin="round"/>
<path d="M27.6217 48.8068C38.4515 45.9105 44.9437 35.0807 42.1453 24.6288C39.347 14.1768 28.3073 8.06237 17.4776 10.9587C6.66186 13.869 0.155625 24.6848 2.95401 35.1367C5.75239 45.5887 16.806 51.7031 27.6217 48.8068Z" stroke="#3661F7" stroke-width="3" stroke-miterlimit="10" stroke-linecap="round" stroke-linejoin="round"/>
<path d="M23.6191 57.0342V62.6309" stroke="#3661F7" stroke-width="3" stroke-miterlimit="10" stroke-linecap="round" stroke-linejoin="round"/>
<path d="M36.2128 68.2276H11.0273C11.0273 65.1354 13.5319 62.6309 16.6241 62.6309H30.616C33.6942 62.6309 36.2128 65.1354 36.2128 68.2276Z" stroke="#3661F7" stroke-width="3" stroke-miterlimit="10" stroke-linecap="round" stroke-linejoin="round"/>
<path d="M11.6247 47L6 56.7384" stroke="#3661F7" stroke-width="3" stroke-miterlimit="10" stroke-linecap="round" stroke-linejoin="round"/>
<path d="M37.7787 2L32 12.0042" stroke="#3661F7" stroke-width="3" stroke-miterlimit="10" stroke-linecap="round" stroke-linejoin="round"/>
<path d="M38.9701 41.0132L35.3322 38.9144L34.3108 35.0946L31.8902 33.6954L29.9453 34.1852L28.77 33.4996L27.2309 27.7629L19.9551 23.5653L21.3543 21.1447C22.1238 19.8015 23.8448 19.3537 25.1741 20.1233L27.6646 21.5645L31.4284 20.5011L35.0663 22.5999L40.4113 20.655" stroke="#F87E1B" stroke-width="3" stroke-miterlimit="10" stroke-linecap="round" stroke-linejoin="round"/>
<path d="M17.3655 43.0841L15.7144 42.1186L18.5128 37.2774L17.4914 33.4576L13.8535 31.3588L15.2527 28.9382L19.0725 27.9028L23.9137 30.7012L25.4528 36.4379L21.9408 42.5384L17.3655 43.0841Z" stroke="#F87E1B" stroke-width="3" stroke-miterlimit="10" stroke-linecap="round" stroke-linejoin="round"/>
<mask id="mask0" mask-type="alpha" maskUnits="userSpaceOnUse" x="9" y="6" width="41" height="51">
<path d="M11.5 46.9998L9 52.9998C11.5 54.3331 17.8 56.9998 23 56.9998C29.5 56.9998 49.5 49.4998 49.5 30.9998C49.5 16.1998 40.1667 8.83314 35.5 6.99981C34.8333 6.83314 34 7.69981 32 12.4998C36 15.4998 42.5 18.4998 42.5 30.9998C42.5 43.4998 27.5 49.4998 23 49.4998C19.4 49.4998 13.8333 47.8331 11.5 46.9998Z" fill="#C4C4C4"/>
</mask>
<g mask="url(#mask0)">
<line x1="-21" y1="9" x2="57" y2="9" stroke="#3661F7" stroke-width="2" stroke-linecap="round" stroke-linejoin="round" stroke-dasharray="0.1 5"/>
<line x1="-21" y1="21" x2="57" y2="21" stroke="#3661F7" stroke-width="2" stroke-linecap="round" stroke-linejoin="round" stroke-dasharray="0.1 5"/>
<line x1="-21" y1="15" x2="57" y2="15" stroke="#3661F7" stroke-width="2" stroke-linecap="round" stroke-linejoin="round" stroke-dasharray="0.1 5"/>
<line x1="-21" y1="27" x2="57" y2="27" stroke="#3661F7" stroke-width="2" stroke-linecap="round" stroke-linejoin="round" stroke-dasharray="0.1 5"/>
<line x1="-21" y1="33" x2="57" y2="33" stroke="#3661F7" stroke-width="2" stroke-linecap="round" stroke-linejoin="round" stroke-dasharray="0.1 5"/>
<line x1="-21" y1="39" x2="57" y2="39" stroke="#3661F7" stroke-width="2" stroke-linecap="round" stroke-linejoin="round" stroke-dasharray="0.1 5"/>
<line x1="-21" y1="45" x2="57" y2="45" stroke="#3661F7" stroke-width="2" stroke-linecap="round" stroke-linejoin="round" stroke-dasharray="0.1 5"/>
<line x1="-21" y1="51" x2="57" y2="51" stroke="#3661F7" stroke-width="2" stroke-linecap="round" stroke-linejoin="round" stroke-dasharray="0.1 5"/>
</g>
</svg>
