<svg width="96" height="26" viewBox="0 0 96 26" fill="none" xmlns="http://www.w3.org/2000/svg">
<path d="M23.1201 0C23.1201 0 31.0856 5.55752 31.1873 18.4926C33.2295 13.6424 37.0057 8.48715 40.7852 6.06364C37.5171 7.27701 33.6622 10.4727 33.6622 10.4727C33.6622 10.4727 29.4499 3.23459 23.1201 0Z" fill="#F87E1B"/>
<path d="M30.2662 20.9195C30.2662 20.9195 33.318 20.7184 34.4981 17.8893C35.6781 15.0603 39.5593 11.1184 43.2339 10.0056C42.9291 15.4626 41.6015 21.9317 37.7203 24.3552C33.8392 26.782 28.9386 27.5898 21.3828 19.0994C22.199 18.9989 23.1201 19.3006 23.1201 19.3006C23.1201 19.3006 26.2867 21.7273 27.7159 22.5352C29.1451 23.343 33.9441 24.8581 37.009 20.1084C34.662 21.1174 33.6392 22.2821 32.3116 22.1296C30.9808 21.9804 30.2662 20.9195 30.2662 20.9195Z" fill="#3661F7"/>
<path d="M23.8838 18.4926H25.313C25.313 18.4926 27.2011 20.7409 29.1941 22.0808C27.6109 21.6753 23.8838 18.4926 23.8838 18.4926Z" fill="#3661F7"/>
<path d="M26.5391 18.8982H27.4077C27.4077 18.8982 28.3256 20.5139 28.9386 20.9194C28.1223 20.6663 26.5391 18.8982 26.5391 18.8982Z" fill="#3661F7"/>
<path d="M34.4972 7.22523C35.7772 7.22523 36.8148 6.19829 36.8148 4.93149C36.8148 3.6647 35.7772 2.63776 34.4972 2.63776C33.2173 2.63776 32.1797 3.6647 32.1797 4.93149C32.1797 6.19829 33.2173 7.22523 34.4972 7.22523Z" fill="#3661F7"/>
<path d="M0 3.71489H2.6519L4.98255 11.9684L7.50661 3.6792H9.62747L12.1515 11.9684L14.4822 3.71489H17.0718L13.2333 15.9914H11.0796L8.53918 8.01686L5.99873 15.9914H3.84509L0 3.71489Z" fill="#F87E1B"/>
<path d="M15.9639 11.2902C15.9639 8.52604 17.9536 6.25177 20.8022 6.25177C24.0703 6.25177 25.5651 8.76288 25.5651 11.5076C25.5651 11.7249 25.5454 11.978 25.5291 12.2311H18.7174C18.9927 13.4769 19.868 14.129 21.107 14.129C22.038 14.129 22.7133 13.8402 23.4803 13.1362L25.0669 14.528C24.1556 15.6473 22.8411 16.3351 21.071 16.3351C18.1339 16.3286 15.9639 14.288 15.9639 11.2902ZM22.8608 10.5116C22.6969 9.28521 21.9659 8.45142 20.7989 8.45142C19.6483 8.45142 18.901 9.26575 18.6813 10.5116H22.8608Z" fill="#F87E1B"/>
<path d="M83.5862 10.7807C83.4059 10.7775 83.2125 10.771 83.0125 10.771C77.5711 10.771 74.6963 12.9252 74.6963 16.9936V24.4977H78.3742V17.224C78.3742 15.6667 79.7083 14.3657 81.2457 14.5701L81.4948 14.6025L81.5768 14.3657C82.1275 12.7306 83.1896 11.6502 83.7304 11.3517L84.7105 10.8132L83.5862 10.7807Z" fill="#3661F7"/>
<path d="M44.8662 15.6894C44.8662 10.8456 48.5572 6.87781 53.8446 6.87781C57.0931 6.87781 58.9124 8.09443 60.5088 9.6517L58.247 12.2309C56.9194 11.037 55.7885 10.333 53.8184 10.333C50.9174 10.333 48.826 12.7176 48.826 15.6861C48.826 18.606 50.8682 21.0425 53.8184 21.0425C55.7852 21.0425 56.9915 20.2639 58.3453 19.0473L60.7546 21.6038C58.9845 23.479 57.0177 24.501 53.6971 24.501C48.6293 24.501 44.8662 20.6305 44.8662 15.6894Z" fill="#3661F7"/>
<path d="M82.501 17.5581C82.501 13.7493 85.2414 10.6153 89.1651 10.6153C93.6658 10.6153 95.7277 14.0737 95.7277 17.8566C95.7277 18.1551 95.7015 18.5055 95.6785 18.8526H86.3002C86.6771 20.5689 87.8834 21.4643 89.5946 21.4643C90.8763 21.4643 91.8072 21.0653 92.8627 20.0952L95.0491 22.0126C93.7937 23.5569 91.9809 24.501 89.5421 24.501C85.4938 24.501 82.501 21.6882 82.501 17.5581ZM92.0072 16.4875C91.781 14.7972 90.7746 13.652 89.1651 13.652C87.5819 13.652 86.5493 14.7713 86.2477 16.4875H92.0072Z" fill="#3661F7"/>
<path d="M67.3795 10.6153C62.8362 10.6153 62.1839 14.1776 62.1577 14.3268L62.1019 14.6642H65.4258L65.5111 14.5734C65.5209 14.5636 66.3928 13.652 67.4877 13.652C68.435 13.652 69.4643 13.9732 69.5954 14.8686C68.9169 15.7381 68.1138 16.0398 66.1503 16.1826C64.0753 16.335 61.8594 17.477 61.8594 20.2315C61.8594 23.0638 63.6426 24.4978 67.1599 24.4978C70.8575 24.4978 72.8931 22.47 72.8931 18.7845V14.4468C72.8964 13.2951 72.3588 10.6153 67.3795 10.6153ZM69.5332 19.2939C69.5332 19.9297 68.8054 21.6071 67.1632 21.6071C65.7799 21.6071 65.0784 21.1301 65.0784 20.186C65.0784 19.4593 65.9798 18.5834 67.1861 18.499C68.1302 18.4341 69.0284 18.1129 69.5364 17.8988V19.2939H69.5332Z" fill="#3661F7"/>
</svg>
