<svg width="24" height="19" viewBox="0 0 24 19" fill="none" xmlns="http://www.w3.org/2000/svg">
<path d="M8.1 6.18772L0 7.57772V9.60772L5.66 8.63772L8.1 6.18772ZM24 2.29772L23.05 1.63772C22.86 1.51772 18.87 -1.73228 15.87 1.26772L5.59 11.5377H2.32L0 14.1777L6.01 17.6977C6.36 17.9077 6.75 18.0077 7.14 18.0077C7.67 18.0077 8.2 17.8177 8.63 17.4477L11.78 14.7077L20.18 16.7077L24 13.5777L18.34 8.53772L24 2.29772ZM20.89 13.5177L19.67 14.5277L11.24 12.5277L7.32 15.9477C7.24 16.0277 7.11 16.0377 7.02 15.9777L3.1 13.6977L3.23 13.5477H6.42L17.28 2.68772C18.47 1.50772 19.75 2.34772 20.87 2.78772L15.5 8.67772L20.89 13.5177Z" fill="white"/>
</svg>
